<?xml version="1.0" encoding="UTF-8"?><svg xmlns="http://www.w3.org/2000/svg" viewBox="0 0 1440 900"><defs><style>.cls-1{letter-spacing:-.09em;}.cls-2{stroke-width:3px;}.cls-2,.cls-3,.cls-4{stroke:#94B1AF;stroke-miterlimit:10;}.cls-2,.cls-4{fill:none;}.cls-5{letter-spacing:-.02em;}.cls-6{letter-spacing:-.04em;}.cls-7{letter-spacing:-.02em;}.cls-8{letter-spacing:0em;}.cls-9{letter-spacing:.01em;}.cls-10{letter-spacing:-.04em;}.cls-11{letter-spacing:.02em;}.cls-12{letter-spacing:-.05em;}.cls-13{letter-spacing:-.02em;}.cls-3{fill:#fff;}.cls-14{letter-spacing:-.02em;}.cls-15{letter-spacing:0em;}.cls-16{letter-spacing:-.01em;}.cls-17{letter-spacing:-.02em;}.cls-18{letter-spacing:-.03em;}.cls-19{letter-spacing:-.07em;}.cls-20{letter-spacing:0em;}.cls-21{font-family:Gilroy-Bold, Gilroy-Bold;font-size:12px;}</style></defs><g id="Calque_2"><path class="cls-2" d="M1091.58,635.1s-17.35-16.66-27.2-35.12c0,0-7.89-.67-10.27-1.9l2.31-1.97-1.09-5.16,2.09-3.66-4.94-4.55,4.28-6.26-3.36-2.77,3.36-2.57-8.57-8.97,1.91-2.64,5.8-2.77-4.55-7.25,6.39-1.98-5.47-5.54,2.24-3.16-3.43-3.56,3.76-2.77-3.1-6.99,7.71-4.02-.66-4.94,3.56-6.79-2.77-1.52s7.71-6.53,1.19-14.5l-2.97,.59-.4-10.09-8.77-.46-.79-4.09,2.5-5.67-2.37-3.56,3.23-1.25,.92-3.89,3.3-2.04-2.31-2.24,2.77-.86,4.42-10.02-10.09-.2-.26-4.81,2.5,.59,3.03-3.43-.13-3.3,7.32-9.49,.26-3.23,4.88-2.24,.59-4.48-1.71-4.55,3.96-2.57,6.99,.26-.13-3.69-7.65-.07-.26-4.02-2.83-3.63-.46-6.92,4.75-1.98,3.16-.07,6.39-4.28,1.25-4.42,2.11-3.82,2.64-2.37,1.71-5.87,.4-3.3-1.98-4.61-.79-4.15-10.94-1.32-2.11-1.32,.79-9.82-9.76-10.22,5.08-4.22,9.76-.53,6.26-.79,2.37-3.23-1.71-4.75,.99-3.69,.46-5.27,5.74-5.93-2.64-1.25h-3.69l-7.19-7.45,3.49-2.97-1.71-4.35,4.22-2.31,5.54-9.36,2.7,3.49,2.9-3.89-.4-2.77,3.82-2.5,3.76,6.53,1.71,4.22,3.89,.99,3.63-1.78-1.38-7.65,3.69-3.3,3.03-1.19,4.88-.2,1.71-1.78-4.88-8.11,.53-5.74-3.43-2.97-9.29-.07-3.56,3.03-5.21,1.71-6.26-.99,1.78-2.04-2.31-2.97-2.04-.2-.59-1.71-2.31-2.9,1.45-3.16-1.58-1.45-1.78,.07-3.76,2.97,.2-3.96-.46-.53-3.69,1.98-3.89-6.26,2.7-1.19-.79-3.16-2.64-2.9-2.97-.33-.92-1.78-3.96-6.06,.53-5.01-1.05-3.36-.26-8.04-4.22-6.66-2.57,.2-1.12-2.57h-3.82l-10.61,6.2-2.97,.4-5.54,3.16-4.94,.33-5.87,1.32-1.58-.59,.99-2.11-1.25-1.65-2.37,4.28-2.04,1.32-1.19,2.7-3.36-.59-.59,4.61-.79-.26,.13-2.97-1.65-1.32-2.18,2.83-1.25,.2-.2,5.21,2.57,2.5-1.12,2.11-4.61-5.41-2.04-4.75,1.58-2.44-3.56-2.64-4.15,2.44-7.12,1.25-5.01,2.44-4.94,4.02-1.91-2.18,1.19-2.57-2.77-.99-.59-5.21-7.38-.4-3.36,3.56-.13,3.76-6.26-1.71-3.16,2.44-1.85,1.52-3.82-.73-8.24,.59-.99-1.25-.86-34.15-4.81,.33-.79,3.36-2.7,1.12-2.77,5.54-7.05-3.3h-2.77l-1.71,1.19-5.14-2.5-.46-3.1-10.88-10.09,.26,2.64-1.58,2.44-2.11-.53-1.12,3.63-3.16,2.37,.2,4.94-1.78,3.82,1.05,1.19,2.83-1.58,1.12,1.25-2.83,3.63-1.58,4.55-1.38,.99-2.77,.92-5.34-.46-1.45-7.84,.4-6.26-1.19-.13-5.47,4.48-7.98,3.16-4.02,2.11-5.67-9.29,2.77-2.83,7.32-4.48-.33-3.96-8.83-8.31,.33-2.57-5.54-1.25,.07-1.78,2.04-1.78-3.63-2.64-2.77,2.5-3.76,.26-3.82-1.12-5.54,.79-3.82-3.03-5.59-2.25-2.6-4.98-5.41-2.27-7.03,.11-10.17,2.71-7.68,1.19-3.9,3.57-3.68,2.92,.76,3.13-1.95,3.69,.55,2.05-1.85,1.55-2.3-.2-4.84-5.74-2,.55-3.3,1.8-4.84,.9-6.89,8.34-7.84-5.39-7.89,6.69-.9,3.84-3.35-.5-1.25,2.5,3.64,3.3-5.54,5.74-6.89-.15-1.55-3.74-4.74-2.05-3.2,2.15-2.1,1.05-3.79,.25-4.04,1.95-5.14,4.39,4.39,3.1-.85,2.05,3.94,3.2,3.49,4.39,1.05,4.19-5.64,3.25,4.39,5.99-8.79,15.48-3.79,.75-.39,3.53,2.26,1.82-1.5,1,.19,4.13-2.63,.13-3.7-5.14-3.76,3.07v3.07l-.38,5.76-3.51,5.45-9.21-6.58-4.76,2.76,.13,3.13-8.27-.63-3.82-2.07-4.2,.44-3.51,6.33,.13,3.13-7.71,.19,.19,10.15-4.13,10.96-.25,8.96-5.2-2.13-1.32,2.07-3.26-2.13-4.2-.5-.38,10.27-1.94,3.13,3.95,1.82,4.07,4.26-2.88,4.51,6.08-1.75,7.08-.13,7.02,1.94-3.26,5.51,1.13,5.76,1.25,1.82,2.63,.13-.13,4.76,5.07,4.38,.75,3.76,5.45,.5,.06,3.38,6.2,1.63-.31,1.69-2.07,2.38-4.13,1.82,.19,1.38,3.45-.19-.25,1.19-2.19,2.07-4.51,1.19-5.32,2.26-4.2,1.06-4.51-.19,.5,5.89-2.94,9.15,2.44,.88,2.38-.25,.19,5.45-3.19,2.19-2.32,2.44-.63,4.64-6.51,4.01,.5,5.14-5.07,8.96,.5,3.26-.94,1.88,.63,9.58-2.88,.81-6.26,2.13-6.83,.19-3.13-2.69-3.57,2.07-3.88-2.51-3.45-.63-.13,4.32-3.76,1.5-5.2-7.08-7.45-2.38-10.4,2-4.38-2.63-1.88,.56-5.26-2.63-1.5,2.07,.19,9.4-1.94,6.7,2.44,4.26,4.51,1.88v2.88l2-.88,1.94-.5,3.45-5.07,1.38,.88-3.13,5.76,1.5,3.13,7.89,5.39,3.51,1.25,3.45,3.13,1.82-1.69-1.94-4.26,3.76-1.5,3.01,2.07,2.38,3.32-.88,4.2,1.19,3.38-.06,3.13-3.19-1.44-5.32,.25-1.44-2.07-3.51-.44-4.64,4.45-.19,3.57-4.01-2.19,.38,3.95-4.26,2.26-2.13,3.26,1.88,2.69-.06,1.44-1.57,.38-2.07,.75,2.82,2.88-3.95,3.38-7.52,17.29-.5,5.76,1.75,2.07-2,3.7v7.52l-4.2-.88-3.95,2.19-1.88,3.51-3.63,2.32-2.07,6.33,2.44,2.26-2.13,6.51,6.14,4.89v2.69l6.08,.56,.5,1.69-1,1.19,2.44,1.82-3.07,3.45,4.32,1.75-.88,6.14,2.07,1.44-1.13,2.26,2.32,1.5,2.57-1.06,4.7,.75-2.88,2.63-.56,2.94-3.95,2.76,3.82,2.51-2.69,5.76,3.76,5.26-.88,5.58-3.13,.63-4.13-1.19,.75,4.95-3.13,.44-2.76,3.32,1,2.19,4.26,1.19,.81,1.32-3.82,5.58,2.51,1.94,3.13,1.19,7.45-3.07,8.02-.56,16.16,5.95,5.32,.19,1.38-.38-1,2.26-2.38,3.01-.75,3.01,.06,3.57,.44,4.38-2.57,2.57-.31,2.76-3.7,4.45-.06,2.13,9.21,.81,1.75,2.19,.69,1.69-1.06,3.07,2,2.44-2.07,4.89,4.82,.5-.44,3.57,3.19,2.94-.13,1.63-10.59,6.26-2.63,2.69,2.38,12.15-2.13,3.13-3.63,2.57,.81,2.32,10.02,13.47,.06,2.44-6.2,6.51,5.83,5.58-1.88,2.07,.31,3.7-3.45,2-2.19-3.76-11.96,9.4v3.26l2.51,1.75,2.44,10.15,1.5,1.06,5.39-.81,3.57,1,4.01,.25,1.57,1.63-.56,1.94-4.13,.88-3.26-1.94-.13,3.7,2.05,3.72h6.3l4.8,1.71,8.43-.11h5.87l1.92,.75-2.03,2.35,13.55-1.81,4.7-3.84,7.9,1.39,4.27,3.84,9.71-6.94,1.07-6.83,15.05,2.13,16.97-1.39,.43-4.91,8.86-6.72,.85-3.41,10.46-1.07-2.03,14.09,22.41-3.63,11.84,.32,11.95,1.28-.96-5.66-2.35-2.77-3.95-.11-3.84-14.51,14.83,3.2,2.99-3.41,7.79,4.91,4.05-11.52-2.88-4.05,5.12-4.7,.11-6.72,13.13-7.58,1.81-4.59-3.73-3.09,4.8-1.39,1.81,4.16,3.41,2.56,2.24,7.36,2.45,.96,2.56-2.88,3.84,1.17,3.73,7.47,3.95,2.56,1.39-1.81-1.49-2.24,4.16-2.77,3.31,2.45,.85-1.92,3.2,2.77-2.03,7.58-6.08,10.03,13.23,.11-5.98,9.07,.43,6.62-1.92,3.84,.11,3.63,8.11-1.71,4.16-8.96h2.99l2.03-1.81-2.03-2.77,5.02-5.23,4.27,3.41,8.22-1.39,9.28,5.87,3.41,.11,2.99-3.41-.75-3.52,11.31-21.56,3.41-1.6,1.28,1.71,4.59-2.67,1.39,3.73,3.52-4.16-.64,8.43,5.98-1.17,6.62,13.45h5.12l2.24,2.67,3.31,1.07,3.73,7.9,6.94-5.55,1.92,4.91,5.34-1.28,4.48-2.24,7.9-1.17,2.56-2.77,3.31,.75,4.38-9.82-3.73-3.09-3.73-7.04,1.17-3.84-1.28-5.66,3.63,2.56,5.98,.85,4.7-3.31,6.72-1.39,7.15-.11,3.84-.11,2.13,2.45,.96-1.39-.75-5.76-2.99-5.98,.96-3.73,3.95-6.62,5.76,1.28,2.45-6.19-3.84-1.6-2.24-2.99-3.63,2.13-3.09-3.95,11.95-9.5,3.31,1.71,.64,2.13,2.67-1.71-2.03-4.91,.85-3.63,7.9-2.77,9.18-.32,13.87-8.54-2.45-4.05-6.62-4.59,.21-1.6,7.68-5.66,.11-2.99,8.64,2.35,3.95-2.03,2.77,2.35-.75,2.35,3.52,.96,10.24-9.39,2.67-.11,2.88-6.62,8.75,1.49,12.68,3.31Z"/><polygon class="cls-4" points="963.57 329.02 954.49 319.78 943.32 302.96 928.43 288.52 921.43 286.28 915.18 281.97 910.56 276.16 901.63 268.86 891.65 250.55 879.59 237.59 880.49 232.53 867.73 229.1 867.25 236.78 865.42 240.61 865.81 261.33 845.76 337.57 847.87 338.39 846.69 341.63 847.98 342.33 855.21 344.33 868.82 343.89 877.67 341.41 883.66 340.39 909.08 340.6 915.07 339.2 953.39 342.76 961.22 340.01 962.57 337.79 963.57 329.02"/><polygon class="cls-4" points="842.31 338.13 834.01 333 830.2 332.67 818.3 333.77 808.26 329.07 796.8 326.02 791.89 322.85 786.54 315.32 780.64 311.75 773.2 303.78 773.2 302.34 777.6 298.01 786.4 283.36 792.32 276.46 810.39 256.5 820.41 250.35 829.14 246.1 833.31 241.01 839.38 220.29 850.16 225.15 859.57 227.5 864.35 230.46 864.12 237.22 862.91 239.27 863.59 260.97 843.4 337.25 842.31 338.13"/><polyline class="cls-4" points="842.08 342.12 841.62 344.53 828.99 375.07 821.57 374.21 818.31 372.82 796.44 368.47 762.32 357.29 756.78 355.81 752.82 348.69 745.3 348.69 734.82 345.92"/><polyline class="cls-4" points="734.1 347.63 744.52 350.57 751.72 350.64 755.36 357.43 796.64 370.67 818.38 375.06 818.24 377.53 812.48 379.93 803.91 380.13 795.2 384.73 789.72 388.5 782.72 390.62 779.91 392.34 770.17 395.49 767.91 396.37 766.54 403.99 759.86 410.34 758.93 413.4 758.37 415.32 755.47 418.38 753.8 418.7 752.22 420.66 748.16 426.44 741.77 430.98 733.7 430.19 729.75 433.83 728.27 434.37 724 434.7 720.32 435.79 710.29 445.73 706.69 446.34 701.58 448.55 701.15 449.37 686.12 452.78 674.67 459.65 657.1 464.24 652.54 464.28"/><polyline class="cls-4" points="652.76 467.01 655.59 466.99 675.93 461.37 686.81 454.88 702.9 451.22 703.27 450.31 707.86 448.29 710.88 448.02 720.86 437.75 724.79 436.56 730.73 436.12 734.49 432.39 741.69 433.19 749.23 428.46 754.62 420.25 756.59 419.84 760.38 415.44 761.35 411.3 768.29 404.76 769.57 397.45 780.62 394.08 783.48 392.23 790.42 390.24 796.19 386.35 803.88 382.24 812.13 382.26 820.12 378.97 820.37 375.94 827.68 377.4 827.37 379.76 818.17 391.27 819.31 409.45 817.63 409.94 811.8 417.58 801.25 417.68"/><polyline class="cls-4" points="801.67 419.81 812.52 419.71 815.94 415.72 816.48 416.24 797.21 453.91 788.85 498.67 789.64 509.16 783.78 524.82 771.47 554.28 765.95 567.64 767.6 579.53 762.41 588.84 758.53 587.23 755.56 584.98 751.25 583.55 748.53 581 741.61 583.09 709.38 575.18 694.7 560.84 659.15 533.57 653.74 532.03 654 527.42 657.42 525.49 657.39 522.91 654.43 521.28 651.49 521.44 650 519.55 644.76 504.26 639.32 500.26 636.77 496.85 636.82 495.25 633.13 482.4 633.04 479.33"/><polyline class="cls-4" points="631.01 479.17 631.04 482.3 634.67 495.4 634.69 497.3 632.03 501.25 626.12 505.85 626.2 507.75 606.7 522.48 588.29 546.9 577.12 572.23 565.09 572.28 541.56 563.37"/><polyline class="cls-4" points="541.52 565.64 564.68 574.13 576.28 574.14 612.28 744.09 609.6 748.14"/><polyline class="cls-4" points="608 759.74 608.05 765.49 597.76 784.22 595.23 793.92"/><polyline class="cls-4" points="597.65 794.1 600.18 784.4 610.08 766.37 610.12 759.92"/><polyline class="cls-4" points="611.81 747.62 614.31 745.07 626.05 740.33 644.44 724.93 647.52 720.77 653.59 702.68 663.32 697.65 667.11 693.99 673.78 686.06 685.86 674.56 697.81 659.94 710.72 650.44 719.89 640.68 733.2 610.43 739.21 606.34 750.75 601.79 759.08 598.69 763.46 592.7"/><polygon class="cls-4" points="704.93 573.34 686.91 567.37 666.74 561.9 633.58 565.23 603.68 572.65 584.72 570.8 579.08 572.25 590.72 547.55 608.17 524.04 628.28 508.61 628.13 507.08 633.19 503.4 635.88 499.81 639.2 502.85 642.64 505.19 647.89 519.95 650.57 523.21 654.14 523.46 655.05 523.73 655.13 524.56 652.14 525.99 651.78 532.63 652.98 534.02 658.03 535.3 704.93 573.34"/><polyline class="cls-4" points="740.92 584.98 708.45 577.44 666.68 564.03 634.82 567.22 603.48 574.48 584.09 572.68 578.94 574.82 613.76 742.92 624.94 738.54 642.79 723.76 645.44 719.96 651.13 702.81 653.89 699.9 662 695.95 666.92 690.93 672.42 684.02 684.03 672.58 694.64 659.26 698.09 656.64 710.72 647.38 717.11 640.06 731.62 609.12 738.62 604.18 749.61 599.6 755.85 597.75"/><polyline class="cls-4" points="776 596.01 770.07 608.88 770.57 623.57 757.01 675.14 756.51 687.88 782.03 722.88 788.06 739.02 788.75 772.92 794.66 786.31 796.36 796.35"/><polyline class="cls-4" points="798.4 796 796.7 786.09 791.08 772.63 790.21 737.9 783.86 721.47 758.57 687.36 759.29 674.75 772.53 623.62 771.94 609.43 778.08 596.69"/><polyline class="cls-4" points="780.72 593.23 791.39 591.76 796.61 594.3 804.24 601.94 806.33 604.67 809.48 606.62 813.83 606.5 821.66 603.76 826.47 603.71 844.58 597.04 845.96 597.79 851.3 597.51 861.91 605.05 875.78 625.83 896.12 629.15 909.19 638.64 922.91 644.01"/><polyline class="cls-4" points="922.89 642.17 911.09 637.63 896.94 626.93 876.91 623.99 863.27 603.58 852.05 595.6 846.63 595.8 845.02 594.83 826.08 601.96 821.11 601.93 813.65 604.37 810.22 604.63 807.61 602.98 797.58 592.69 793.06 590.37 796.16 587.74 797.58 584.37 808.01 581.52 816.34 573.95 818.16 572.64 838.35 568.09 843.71 562.31 847.96 559.6 851.12 554.38 860.76 549.17 862.7 544.65 878.41 542.2 906.97 527.19 909.72 527.17 914.19 523.53 920.27 519.84"/><polyline class="cls-4" points="919.21 518.42 913.16 521.88 909.52 525.05 906.57 525.17 878.15 540.31 861.39 543.02 859.11 548.1 849.89 552.89 846.58 557.94 842.93 560.12 837.48 566.13 817.16 570.85 807 579.81 796.37 582.6 794.71 586.78 790.8 590.04 780.83 591.25"/><polyline class="cls-4" points="963.14 645.78 967.52 643.86 978.83 643.28 984 642.07 991.77 641.81 1007.63 636.97 1011.88 630.26 1012.07 627.81 1018.45 624.54"/><polyline class="cls-4" points="1017.73 622.32 1009.98 626.98 1009.77 630.37 1006.55 635.08 991.43 639.82 984.06 639.93 978.48 641.16 967.18 641.84 964.29 643.17"/><polyline class="cls-4" points="1023.95 632.08 1024.89 633.99 1024.42 637.75 1019.76 647.21 1028.42 663.47 1023.75 680.36 1019.15 687.99 1016.92 689.6 1010.56 695.83 1010.5 707 1014.18 708.22 1004.15 731.46"/><polyline class="cls-4" points="1006.89 731.49 1016.31 710.14 1016.2 706.15 1012.56 705.61 1012.54 696.2 1018.19 690.86 1019.75 689.78 1025.24 681.45 1030.76 662.77 1021.83 646.81 1026.39 638.7 1027.13 633.7"/><polyline class="cls-4" points="1029.94 632.62 1030.77 634.4 1037.55 636.69 1044.95 636.62 1051.77 635.09 1055.16 632.29 1065.31 630.49 1074.52 632.67 1081.03 632.61 1096.61 636.94 1103.53 629.47 1108.25 620.88 1117.01 619.17 1123.28 619.68 1144.64 615.89 1164.91 617.24 1186.36 623.13 1193.6 622.98 1198.9 624.15"/><polyline class="cls-4" points="1199.58 621.83 1194 620.79 1186.79 621.3 1166.84 615.92 1145.17 613.94 1123.02 617.65 1116.57 617.28 1107.4 619.22 1102.02 628.24 1095.63 634.21 1079.41 629.99 1071.76 630.17 1065.19 628.6 1054.71 630.45 1050.91 633 1045.02 634.8 1037.26 634.33 1032.98 633.28"/><polyline class="cls-4" points="1021.1 605.23 1020.93 600.84 1017.11 598.75 1015.78 598.89 1014.68 594.98 1014.22 588.26 1019.85 579.22 1030.79 553.29 1028.04 545.06 1028.14 534.55 1026.21 527.44 1036.33 507.64 1039.15 489.45 1042.44 478.7 1044.29 476.62 1045.29 463.76 1042.78 458.46 1042.29 448.48 1039.71 443.78 1039.03 435 1037.91 429.22"/><polyline class="cls-4" points="1036.22 423.45 1035.48 419.36 1045.71 426.58 1049.2 431.78 1043.56 429.66 1040.62 427.64"/><polyline class="cls-4" points="1021.53 365.21 1031.82 383.68 1030.51 406.28 1034.93 416.44 1048.08 425.46 1068.5 454.13 1101.31 472.6"/><polyline class="cls-4" points="1019.35 365.93 1029.69 384.45 1028.29 405.82 1024.44 409.48"/><polyline class="cls-4" points="1025.72 411.08 1028.96 407.82 1033.89 421.6"/><polyline class="cls-4" points="1019.36 412.04 1006.62 416.05 1005.52 417.33 1003.54 417.43 988.99 423.21 976.01 434.76 975.56 437.78 970.21 442.59 956.82 452.48 952.65 464.82 954.51 467.82 956.91 472.48 956.58 477.24 956.13 478.85 954.31 480.4 951.55 481.04 946.68 483.77 936.68 504.1 936.19 509.09 933.62 512.18 930.09 512.13"/><polyline class="cls-4" points="931.26 514.47 934.09 514.47 938.05 509.83 938.79 504 948.92 484.64 952.69 482.86 955.01 482.33 957.89 479.76 959.41 471.75 956.48 466.85 954.95 464.33 958.81 453.34 971.97 443.77 977.08 439.04 977.69 436.17 990.27 424.62 1004.19 419.17 1006.49 419.55 1007.51 417.95 1020.56 413.94"/><polyline class="cls-4" points="767.45 585.1 769.69 580.78 768.09 567.63 792.94 510.8 791.34 498.46 799.38 454.7 821.41 411.62 826.1 411.96 841.41 409.96 847.46 407.26 854.61 408.38 864.5 406.17 876.11 404.6 881.22 399.53 890.9 375.65 897.96 367.79 900.73 367.23 910.84 360.52 920.85 356.86 923.72 352.6 924.68 342.95"/><polyline class="cls-4" points="922.43 342.18 921.87 352.62 919.77 354.89 910.3 358.81 900.71 365.38 897.81 365.67 888.78 375.41 879.36 398.89 875.7 402.76 865 403.79 855.11 406 846.78 404.89 841.65 407.71 825.67 409.19 821.43 407.78 820.49 392.85 829.49 379.81 843.8 343.2"/><polygon points="1080.22 334.88 1083.21 341.93 1090.88 349.89 1137.31 374.88 1151.91 385.22 1167.74 383.73 1166.35 379.94 1160.61 381.13 1152.05 381.21 1137.79 370.92 1117.78 361.16 1090.55 344.92 1086.02 340.49 1083.57 331.99 1080.24 332.31 1080.22 334.88"/><polyline class="cls-4" points="1002.74 181.47 1003.14 204.61 1000.92 208.34 998.78 230.05 1000.2 237.18 1000.09 244.32 1002.31 249.27 1014.13 256.48 1031.59 258.21 1036.77 260.96 1077.31 311.55 1079.26 316.96 1079.84 330.33 1078.78 332.11 1064.31 332.47 1044.24 332.39 1038.01 333.36 1016.8 345.68 1006.88 357.07 994.88 360.17"/><polyline class="cls-4" points="1100.75 474.33 1066.61 455.95 1051.71 434.64 1044.23 432.41"/><polyline class="cls-4" points="1035.46 428.62 1036.75 435.22 1037.52 444.48 1040.15 448.68 1040.59 458.89 1043.3 463.97 1042.25 475.09 1040.7 477.15 1037.08 490.47 1034.18 507.19 1024.28 526.56 1026.2 534.72 1025.81 543.92 1028.83 553.02 1018.24 578.13 1012.6 586.22 1012.33 594.33 1014.51 600.85 1016.89 600.49 1019.08 602.03 1018.95 609.66"/><polyline class="cls-4" points="1024.04 607.5 1024.06 602.33 1028.34 594.04 1032.93 589.23 1036.19 581.77 1044.31 575.36 1052 575.14 1066.08 565.4"/><polyline class="cls-4" points="1071.29 561.88 1075.76 559.38 1085.28 550.16"/><polyline class="cls-4" points="1083.41 549.5 1075.86 556.76 1070.24 560.51"/><polyline class="cls-4" points="1065.36 563.06 1051.64 573.21 1043.47 573.07 1034.62 580.99 1030.78 588.65 1026.47 593.05 1022.64 602.45 1022.57 606.15"/><polyline class="cls-4" points="629.86 460.75 635.45 441.97 638.39 438.66 643.95 417.23 654.03 410.58 654.89 403.08 658.16 401.65 671.44 387.94 675.23 376.2"/><polyline class="cls-4" points="672.43 376.54 669.25 387.03 657.51 399.16 653.16 401.23 652.14 408.88 642.54 416 637.12 436.34 633.88 440.11 628.59 458.26"/><polyline class="cls-4" points="618.75 457.27 611.65 448.91 598.79 442.32 602.08 428.09 606.42 424.62 605.64 408.4 600.74 402.2 600.5 393.62 611.47 382.44 623.39 372.18 632.06 364.92 635.9 359.26 644.6 354.65 647.07 351.98 649.32 343.37 659.23 335.16 664.22 334.34 665.12 331.36 669.45 327.11 680.03 356.5 675.47 368.24"/><polyline class="cls-4" points="678.11 367.13 682.38 356.47 675.79 337.03 697.95 336.97 701.4 339.59 705.93 339.55 716.41 342.73 716.96 351.15 718.15 353.26"/><polyline class="cls-4" points="719.89 352.18 718.81 350.67 718.49 341.56 706.09 337.89 702.82 337.77 698.09 335.23 675.25 335.23 670.9 325.25 677.38 312.82 679.73 312.34 681.79 305.87 687.8 298.75 718.11 285.63 721.23 286.97 723.34 285.28 735.51 280.53 739.95 283.9 745.63 283.16 748.95 280.4 756.13 278.13 763.72 277.75 767.22 278.48 781.55 276.74"/><polyline class="cls-4" points="780.62 274.55 766.82 276.36 762.03 275.42 755.96 275.78 748.09 278.43 744.63 281.43 740.54 281.92 735.64 277.95 722.71 283.08 720.75 284.47 717.93 283.51 685.89 297.25 679.59 305.59 678.35 310.45 676.23 311.31 669.14 324.13 662.98 330.64 662.85 332.54 659.21 332.88 647.77 342.7 645.12 350.93 643.39 353.37 634.56 358.01 630.06 363.97 611.16 379.79 600.12 391.36 578.69 380.71 575.97 373.83 563.2 365 545.49 361.53 536.78 355.92 534.2 348.58 525.95 343.12 525.62 339.94 523.63 337.91 499.87 322.05"/><polyline class="cls-4" points="499.36 324.1 522.73 339.59 523.81 341.02 523.68 343.45 532.39 349.21 535.2 357.68 545.28 363.35 562.92 366.9 574.53 375.06 577.26 381.87 598.16 392.74 597.98 397.38 587.71 403.02 560.46 410.87 558.59 413.62 557.4 416.29 552.86 417.85 549.51 416.36 542.73 421.36 539.89 426.93 534.97 427.66 493.09 470.53 486.65 472.76"/><polyline class="cls-4" points="603.44 412.96 602.71 407.8 598.56 402.53 598.37 399.12 588.48 404.45 561.54 412.38 558.4 417.64 552.5 419.52 549.68 418.72 544.33 422.64 541.5 428.36 535.59 429.48 495.3 471.75 487.48 474.08"/><polyline class="cls-4" points="534.7 560.39 509.6 550.75 500.26 543.89 489.84 537.65 486.01 532.69 485.33 525.99 478.36 509.12"/><polyline class="cls-4" points="476.98 509.87 483.51 526.73 483.93 532.83 488.51 539.01 499.79 545.36 507.54 551.87 535.82 563.19"/><line class="cls-4" x1="1009.34" y1="351.88" x2="998.32" y2="337.13"/><line class="cls-4" x1="1010.51" y1="349.74" x2="1000.31" y2="336.71"/><polyline class="cls-4" points="990.39 325.67 983.7 319.76 982.62 317.52 981.6 321.91 977.67 327.38 971.2 329.83"/><polyline class="cls-4" points="969.85 327.72 975.94 326.34 980.25 319.4 981.01 315.94 950.65 276.18 945.14 282.07 945.19 287.25 942.59 293.11"/><polyline class="cls-4" points="940.72 291 942.01 287.81 942.09 282.37 949.31 274.21 936.54 257.22 938.67 244.21 937.67 236.26 926.66 236.63 921.76 236.68 920.15 234.84 920.49 228.73 919.4 226.09 912.11 226.29 902.54 224.66 893.8 225.41 890.63 227.3 887.05 227.73"/><polyline class="cls-4" points="887.3 225.68 890.56 225.41 893.32 223.32 903.34 222.9 912.35 224.72 920.62 224.48 922.96 228.44 922.3 234.17 923.03 235.28 937.26 234.82 937.02 218.12"/><polyline class="cls-4" points="939.23 219.05 939.85 234.49 955.15 226.55 957.74 226.06 961.25 223.16 962.86 218.48 968.59 211.64 967.04 196.14 970.2 192.24"/><polyline class="cls-4" points="972 193.36 969.34 196.84 970.95 212.3 965.27 218.92 962.86 224.81 959.9 227.42 957.21 227.68 940.35 236.63 939.14 257.1 971.14 299.06 974.74 295.51 979.21 290.07 975.7 285.06 972.75 277.59 969.44 262.44 977.41 243.49 989.08 238.45 991.6 237.84 998.24 233.49"/><polyline class="cls-4" points="998.73 236.24 993.48 239.11 988.99 240.91 979.35 244.76 971.73 262.65 974.91 276.8 977.69 284.63 981.19 289.11 986.26 292.23 1003.41 307.42 1009.43 311.7 1009.87 315.39 1027.44 337.26"/><polyline class="cls-4" points="1025.75 338.86 1013.34 322.62 1004.1 312.05 1002.72 309.42 985.93 294.28 980.68 291.11 980.23 292.87 976.52 296.95 972.63 300.86 985.79 318.16 991.77 324.24"/><polyline class="cls-4" points="1029.59 347.65 1036.58 357.53 1042.39 363.96 1045.83 374.63 1051.13 383.14 1058.93 390.78 1079.72 390.17 1125.8 416.22 1128.5 421.69 1137.79 433 1139.96 434.37 1145.39 434.46 1150.27 429.13 1153.47 429.03"/><polyline class="cls-4" points="1153.07 426.65 1149.49 426.69 1144.87 431.79 1140.36 431.91 1130.53 421.27 1127.43 414.06 1080.96 388.76"/><polyline class="cls-4" points="926.13 337.29 935.33 313.27 947.11 311.3"/><polyline class="cls-4" points="945.75 309.46 935.65 311.41 940.28 301.59"/><line class="cls-4" x1="937.91" y1="300.94" x2="923.26" y2="337.15"/><polyline class="cls-4" points="953.4 307.84 957.97 306.71 963.4 294.86"/><polyline class="cls-4" points="964.73 296.41 959.43 308.15 954.14 309.4"/><polyline class="cls-4" points="675.28 175.16 689.95 183.95 698.54 187.39 701.09 190.51 701.4 197.53 705.44 198.64 710.52 189.91 718.42 187.7 721.65 183.01 720.47 178.24 718.7 177.63 719.88 169.44 726.06 157.94"/><polyline class="cls-4" points="728.08 159.43 721.53 171.19 720.95 176.6 722.75 178.01 723.55 183.37 721.87 187.41 726.22 189.91 727.39 202.94 728 203.83 741.42 203.63 747.44 201.56"/><polyline class="cls-4" points="747.38 203.72 742.41 205.71 727.35 205.78 725.39 204.45 706.72 201.28 703.75 202.13 699.71 200.9 697.03 201.22 696.74 202.42 699.54 206.72 698.99 211.27 695.64 212.27 691.06 223.8 691.34 229.54 689.72 231.64 684.94 231.61 683.1 233.12 688.84 232.99 693.1 234.81 697.28 234.77 704.99 237.76 711.4 237.62 713.26 237.01 720.78 235.96 726.97 228.97 730.35 231.25 733.18 231.22 734.85 234.11 735.82 234.18 753.04 208.75"/><polyline class="cls-4" points="754.87 210.17 737.4 235.21 734.16 236.68 732.57 233.83 730.75 233.85 727.21 231.67 722.32 237.71 713.54 238.79 711.73 239.64 703.78 239.8 697.06 236.92 693.05 236.83 688.83 235.04 681.44 235.18 677.13 235.03 668.71 236.05 657.36 234.38 650.7 234.35 649.51 237.27 644.87 241.34 642.56 245.11 634.16 248.47 628.04 264.27 625.78 263.27 620.17 264.07 610.79 272.78 606.21 274.04"/><polyline class="cls-4" points="605.68 271.98 609.5 271.18 618.93 262.34 625.58 260.87 626.97 261.41 632.75 246.83 641.07 243.72 643.03 240.66 646.97 236.6 648.47 231.81 658.12 232.36 668.48 234.1 677.22 232.87 680.85 233.19 684 229.67 688.43 229.68 689.1 222.23 693.41 211.59 696.93 210.01 697.13 207.36 694.42 201.93 696.38 198.71"/><polygon points="1083.07 330.25 1082.02 318.23 1091.89 317.36 1114.84 312.57 1138.16 314.81 1145.41 311.43 1150.53 305.71 1148.23 304.46 1143.28 309.67 1137.12 312.78 1114.63 310.43 1091.77 314.77 1082.38 315.38 1079.26 316.96 1079.74 331.03 1083.07 330.25"/><polygon points="1082.29 316.81 1079.53 310.26 1038.62 259.63 1032.87 256.49 1014.5 254.82 1004.22 248.13 1002.35 243.54 1002.83 237 1000.82 229.41 1002.61 214.71 999.52 216.24 998.78 230.05 1000.2 237.18 1000.09 244.32 1002.31 249.27 1014.13 256.48 1031.59 258.21 1036.77 260.96 1077.31 311.55 1080.03 318.35 1082.29 316.81"/><polyline class="cls-4" points="858.15 225.3 864.35 230.46 864.12 237.22 862.91 239.27"/><polygon class="cls-4" points="504.5 318.86 491.21 315.13 496.33 327.95 496.97 321.04 504.5 318.86"/><polygon class="cls-4" points="484.15 507.19 473.28 498.67 473.13 512.47 476.36 506.33 484.15 507.19"/><polygon class="cls-4" points="498.41 699.95 499.7 713.7 509.82 704.31 503.15 706.2 498.41 699.95"/><polygon class="cls-4" points="475.99 461.35 466.06 470.94 479.71 472.99 474.07 468.95 475.99 461.35"/><polygon class="cls-4" points="604.37 266.68 594.63 276.45 608.32 278.24 602.6 274.31 604.37 266.68"/><polygon class="cls-4" points="819.45 141.8 809.86 131.87 807.81 145.52 811.85 139.88 819.45 141.8"/><polygon class="cls-4" points="790.38 797.82 799.18 808.45 802.27 794.99 797.81 800.31 790.38 797.82"/><polygon class="cls-4" points="1089.65 663.86 1098.45 674.49 1101.53 661.04 1097.08 666.36 1089.65 663.86"/><polygon class="cls-4" points="1172.59 388.19 1183.42 379.64 1170.04 376.24 1175.25 380.82 1172.59 388.19"/><polygon class="cls-4" points="1156.5 303.79 1150.94 291.16 1144.29 303.25 1150.03 299.36 1156.5 303.79"/><polygon points="770.25 304.21 779.3 312.78 785.11 316.33 790.63 323.9 796.04 327.29 807.93 330.39 817.84 335.5 830.02 334.34 833.87 334.87 841.62 339.68 846.95 343.4 855.47 346.2 869.66 345.26 878.29 342.78 884.14 341.84 909.16 342.24 915.55 340.57 953.12 344.38 961.83 341.33 963.97 338.58 965.65 329.9 963.57 329.02 962.57 337.79 961.22 340.01 953.39 342.76 915.07 339.2 909.08 340.6 883.66 340.39 877.67 341.41 868.82 343.89 855.21 344.33 847.98 342.33 846.69 341.63 834.5 333.1 830.2 332.67 818.3 333.77 808.26 329.07 796.8 326.02 791.89 322.85 786.54 315.32 780.64 311.75 773.2 303.78 773.08 300.41 770.25 304.21"/><polyline points="993.99 362.73 1007.32 358.91 1018.02 346.72 1038.64 334.56 1043.98 333.74 1067.27 334.15 1080.89 333.77 1080.86 331.22 1066.24 332.63 1044.24 332.39 1038.01 333.36 1016.8 345.68 1008.56 355.46 991.81 360.97 993.99 362.73"/><polyline class="cls-4" points="881.4 402.93 890.62 403.5 902.67 402.07 916.25 399.52 929.87 400.49 942.2 404.54 953.63 406.84 968.53 404.72 979.9 400.44 986.88 395.99 994.09 392.62 1005.47 389.44 1003.03 387.05 993.89 390.59 985.92 394.46 978.53 398.9 967.64 402.94 953.52 404.1 943.16 402.74 931.6 398.19 916.44 396.88 901.31 399.94 889.23 401.22 882.67 400.56"/></g><g id="Calque_3"><polyline class="cls-4" points="889.02 195.56 879.34 205.2 871.84 213.78 865.77 223.55 851 222.25 839.28 215.3 838.08 215.3 830.92 238.1 827.55 242.44 817.89 248.19 808.66 253.84 788.79 275.34 785.43 279.9 784.4 272.23 781.88 266.11 781.96 260.93 784.24 255.2 785.02 238.56 782.83 232.83 776.63 225.61 770.9 224.59 766.27 220.35 761.01 208.11 761.4 203.4 764.77 199.39 790.83 178.83 798.21 178.99 802.92 179.77 806.22 180.08 810.38 176.55 811.24 174.04 811.71 166.66 817.28 158.03 816.74 149.94 814.54 143.74"/><polygon points="902.57 179.47 894.23 194.01 883.32 236.25 894.66 249.62 905.14 267.58 914.01 275.18 917.75 279.99 922.46 283.41 930.69 285.66 941.5 295.17 945.88 300.2 960.74 322.23 964.59 326.61 967.16 326.51 968.12 328.86 989.3 350.57 1003.95 384.15 1017.73 399.56 1028.53 417.97 1042.24 429.15 1046.05 435.11 1058.5 488.2 1063.07 500.39 1063.71 524.01 1066.5 537.86 1065.99 553.35 1067.9 559.83 1073.87 567.19 1087.04 600.26 1087.73 610.44 1098.16 629.81 1097.72 662.22 1095.29 662.62 1095.18 631 1084.89 613.04 1079.92 588.68 1070.98 568.78 1065.37 561.61 1063.22 555.29 1063.7 537.87 1060.71 527.95 1059.97 501.15 1053.13 483.07 1043.38 437.42 1040.19 431.11 1025.71 419.61 1014.79 401.81 1000.33 384.46 986.29 352.08 967.16 332.36 954.19 319.41 943.36 303.22 928.77 288.59 921.53 286.49 914.98 281.74 910.59 276.16 901.69 269.11 891.89 251.06 879.16 237.78 880.39 232.47 890.92 192.8 899.04 176.91 902.57 179.47"/><polyline class="cls-4" points="634.85 392.88 623.96 401.54 611.02 410.81 591.47 420.69 578.84 423.13 569.26 426.39 543.7 439.84 530.16 449.71 478.11 467.03 530.16 449.71 543.7 439.84 569.26 426.39 578.84 423.13 591.47 420.69 611.02 410.81 634.85 392.88"/><polyline points="666.58 374.11 634.85 392.88 611.02 410.81 591.47 420.69 578.84 423.13 569.26 426.39 543.7 439.84 530.16 449.71 478.11 467.03 478.11 471.1 531.38 452.67 531.28 461.22 534.23 476.09 533.82 502.88 538.81 526.91 537.9 557.06 536.78 573.76 525.27 615.21 516.41 668.58 504.59 697.3 507.48 699.94 519.34 671.09 540.68 572.04 542.71 524.95 537.28 501.46 537.76 474.95 534.9 460.86 535.55 450.94 543.9 443.43 573.68 428.12 592.78 422.93 601.78 419.76 613.52 413.56 625.98 404.43 637.58 395.87 642.14 392.92 668.89 376.67 674.39 374.49 717.01 359.75 727.95 353.54 736.76 343.97 743.95 331.72 749.85 323.87 777.36 298.59 786.11 284.15 810.39 256.5 821.5 249.89 829.14 246.1 833.16 241.45 839.38 220.29 850.16 225.15 858 226.61 867.73 229.1 880.39 232.47 879.59 237.59 891.89 251.06 901.69 269.11 910.59 276.16 914.98 281.74 921.53 286.49 928.43 288.52 943.32 302.96 954.49 319.78 967.16 332.36 986.43 352.5 999.81 384.79 1014.33 402.11 1025.5 420.02 1039.52 431 1040.28 432.18 1042.24 429.15 1028.53 417.97 1017.73 399.56 1003.95 384.15 989.3 350.57 968.12 328.86 967.16 326.51 964.59 326.61 945.88 300.2 941.5 295.17 930.69 285.66 922.46 283.41 917.75 279.99 914.01 275.18 905.14 267.58 894.66 249.62 883.32 236.25 885.02 229.7 881.82 228.66 868.88 225.98 865.77 223.55 851 222.25 839.28 215.3 838.08 215.3 830.92 238.1 827.55 242.44 808.66 253.84 795.08 269.17 782.72 283.54 774.19 296.49 770.66 298.92 769.17 302.06 748.92 320.19 741.85 328.59 732.83 342.8 726.71 349.55 715.95 356.14 674.79 370.19 666.58 374.11"/><polygon points="813.36 147.92 816.03 147.38 816.74 149.94 817.28 158.03 811.71 166.66 811.24 174.04 810.38 176.55 806.22 180.08 802.92 179.77 798.21 178.99 790.83 178.83 764.77 199.39 761.4 203.4 761.01 208.11 766.27 220.35 770.9 224.59 776.63 225.61 782.83 232.83 785.02 238.56 784.24 255.2 781.96 260.93 781.88 266.11 784.4 272.23 785.43 279.9 783.06 282.2 782.36 272.86 779.77 266.97 780.24 260.07 782.12 255.2 782.59 238.95 781.34 235.34 775.53 227.18 769.88 225.92 764.85 221.45 758.89 208.42 759.12 203.16 760.61 199.86 790.2 176.63 798.13 176.71 805.82 178.12 808.81 174.9 810.06 165.25 814.14 158.42 814.38 153.55 813.99 148.77 813.36 147.92"/><polyline class="cls-4" points="782.36 272.86 779.77 266.97 780.24 260.07 782.12 255.2 782.59 238.95 781.34 235.34 775.53 227.18 769.88 225.92 764.85 221.45 758.89 208.42 759.12 203.16 760.61 199.86 790.2 176.63 798.13 176.71 805.82 178.12 808.81 174.9 810.06 165.25 814.14 158.42 814.38 153.55 813.99 148.77 812.26 144.61"/><text class="cls-21" transform="translate(895.86 138.12)"><tspan class="cls-19" x="0" y="0">P</tspan><tspan x="6.23" y="0">AR</tspan><tspan class="cls-16" x="21.61" y="0">I</tspan><tspan x="24.7" y="0">S</tspan></text><polygon points="889.96 195.26 871.7 213.59 865.07 224.39 864.5 236.77 862.87 238.85 863.64 261.26 843.46 337.25 841.46 343.74 828.43 375.64 826.96 380.47 818.4 391.14 819.4 409.43 796.99 453.66 788.9 498.31 789.97 509.58 765.77 567.45 767.95 579.67 764.56 585.07 767 583.09 769.75 581.03 768.11 567.56 793.27 509.82 791.24 498.56 799.48 454.74 821.76 411.33 820.61 392.63 829.58 380.85 844.34 342.33 866.25 260.83 865.36 239.93 867.8 236.6 868.52 226 874.88 214.66 891.5 197.99 889.96 195.26"/><polygon points="899.9 175.83 905.93 164.13 908.97 155.27 909.04 140.29 912.27 140.15 912.21 155.67 908.74 164.54 902.18 177.64 899.9 175.83"/><g><rect x="763.13" y="581.04" width="17.55" height="17.55"/><rect class="cls-3" x="765.72" y="584.04" width="11.54" height="11.54"/></g><g><rect x="625.38" y="466.17" width="17.55" height="17.55"/><rect class="cls-3" x="627.98" y="469.17" width="11.54" height="11.54"/></g><rect class="cls-3" x="741.49" y="558.54" width="57.23" height="16.72"/><text class="cls-21" transform="translate(745.49 571.45)"><tspan x="0" y="0">E</tspan><tspan class="cls-12" x="6.36" y="0">T</tspan><tspan x="12.23" y="0">AMPES</tspan></text><g><rect x="831.72" y="385.24" width="17.55" height="17.55"/><rect class="cls-3" x="834.32" y="388.23" width="11.54" height="11.54"/></g><rect class="cls-3" x="810.08" y="362.74" width="57.23" height="16.72"/><text class="cls-21" transform="translate(812.29 375.64)"><tspan x="0" y="0">AR</tspan><tspan class="cls-19" x="15.38" y="0">P</tspan><tspan x="21.61" y="0">AJON</tspan></text><g><rect x="991.98" y="318.12" width="17.55" height="17.55"/><rect class="cls-3" x="994.58" y="321.12" width="11.54" height="11.54"/></g><rect class="cls-3" x="970.34" y="295.62" width="57.23" height="16.72"/><text class="cls-21" transform="translate(985.22 308.52)"><tspan x="0" y="0">EV</tspan><tspan class="cls-5" x="14.12" y="0">R</tspan><tspan x="21.25" y="0">Y</tspan></text><g><rect x="830.31" y="204.79" width="17.55" height="17.55"/><rect class="cls-3" x="832.91" y="207.79" width="11.54" height="11.54"/></g><rect class="cls-3" x="808.67" y="182.3" width="57.23" height="16.72"/><text class="cls-21" transform="translate(818.69 195.2)"><tspan x="0" y="0">M</tspan><tspan class="cls-14" x="9.78" y="0">A</tspan><tspan class="cls-7" x="17.6" y="0">S</tspan><tspan class="cls-18" x="24.35" y="0">S</tspan><tspan x="30.97" y="0">Y</tspan></text><rect class="cls-3" x="601.45" y="446.02" width="62.58" height="19.56"/><text class="cls-21" transform="translate(603.53 460.16)"><tspan x="0" y="0">D</tspan><tspan class="cls-20" x="8.56" y="0">O</tspan><tspan x="18" y="0">UR</tspan><tspan class="cls-13" x="33.2" y="0">D</tspan><tspan x="41.46" y="0">AN</tspan></text><text class="cls-21" transform="translate(449.84 310.76)"><tspan x="0" y="0">RAMB</tspan><tspan class="cls-20" x="32.42" y="0">O</tspan><tspan x="41.87" y="0">UILLET</tspan></text><text class="cls-21" transform="translate(461.25 489.77)"><tspan x="0" y="0">ABL</tspan><tspan class="cls-16" x="21.07" y="0">I</tspan><tspan x="24.16" y="0">S</tspan></text><text class="cls-21" transform="translate(410.48 465.58)"><tspan x="0" y="0">NANTES/</tspan><tspan x="3.52" y="14.4">RENNES</tspan></text><text class="cls-21" transform="translate(448.71 725.01)"><tspan x="0" y="0">BORD</tspan><tspan class="cls-9" x="32.69" y="0">E</tspan><tspan class="cls-5" x="39.18" y="0">A</tspan><tspan class="cls-16" x="46.96" y="0">U</tspan><tspan x="54.66" y="0">X/</tspan><tspan class="cls-6" x="4.56" y="14.4">T</tspan><tspan class="cls-8" x="10.56" y="14.4">O</tspan><tspan x="20" y="14.4">U</tspan><tspan class="cls-10" x="27.84" y="14.4">L</tspan><tspan class="cls-20" x="33.12" y="14.4">O</tspan><tspan x="42.56" y="14.4">U</tspan><tspan class="cls-8" x="50.4" y="14.4">S</tspan><tspan x="57.33" y="14.4">E</tspan></text><text class="cls-21" transform="translate(1085.36 687.63)"><tspan class="cls-1" x="0" y="0">L</tspan><tspan class="cls-12" x="4.7" y="0">Y</tspan><tspan x="11.54" y="0">ON</tspan></text><text class="cls-21" transform="translate(1192.14 385.39)"><tspan x="0" y="0">T</tspan><tspan class="cls-15" x="6.48" y="0">R</tspan><tspan class="cls-12" x="13.75" y="0">O</tspan><tspan x="22.64" y="0">YES</tspan></text><text class="cls-21" transform="translate(1147.14 272.94)"><tspan x="0" y="0">MARNE -</tspan><tspan class="cls-11" x="48.66" y="0">L</tspan><tspan x="54.7" y="0">A </tspan><tspan class="cls-6" x="-4.47" y="14.4">V</tspan><tspan x="2.81" y="14.4">ALLÉE METZ</tspan></text><text class="cls-21" transform="translate(779.4 820.92)"><tspan x="0" y="0">ORL</tspan><tspan class="cls-9" x="22.67" y="0">E</tspan><tspan x="29.16" y="0">A</tspan><tspan class="cls-16" x="37.18" y="0">N</tspan><tspan x="45.12" y="0">S</tspan></text><text class="cls-21" transform="translate(511.17 281.01)"><tspan x="0" y="0">RAMB</tspan><tspan class="cls-20" x="32.42" y="0">O</tspan><tspan x="41.87" y="0">UILLET</tspan></text><text class="cls-21" transform="translate(761.31 129.71)"><tspan x="0" y="0">VE</tspan><tspan class="cls-16" x="14.12" y="0">RS</tspan><tspan x="28.22" y="0">AILLES</tspan></text><g><rect x="936.02" y="636.05" width="17.55" height="17.55"/><rect class="cls-3" x="938.62" y="639.05" width="11.54" height="11.54"/></g><rect class="cls-3" x="916.57" y="616.06" width="57.23" height="16.72"/><text class="cls-21" transform="translate(925.34 628.96)"><tspan x="0" y="0">MA</tspan><tspan class="cls-16" x="17.8" y="0">I</tspan><tspan class="cls-7" x="20.88" y="0">S</tspan><tspan class="cls-20" x="27.62" y="0">S</tspan><tspan x="34.56" y="0">E</tspan></text><rect class="cls-3" x="991.05" y="575.31" width="57.23" height="30.93"/><text class="cls-21" transform="translate(993.32 588.69)"><tspan x="0" y="0">MIL</tspan><tspan class="cls-1" x="18.79" y="0">L</tspan><tspan class="cls-12" x="23.5" y="0">Y</tspan><tspan x="30.34" y="0">- </tspan><tspan class="cls-11" x="39.4" y="0">L</tspan><tspan x="45.43" y="0">A </tspan><tspan x="8.75" y="14.4">FORET</tspan></text><g><rect x="1014.44" y="609.33" width="17.55" height="17.55"/><rect class="cls-3" x="1017.04" y="612.33" width="11.54" height="11.54"/></g><rect class="cls-3" x="892.11" y="471.97" width="57.23" height="30.93"/><text class="cls-21" transform="translate(896.28 485.34)"><tspan class="cls-11" x="0" y="0">L</tspan><tspan x="6.04" y="0">A FE</tspan><tspan class="cls-17" x="29.64" y="0">R</tspan><tspan x="36.83" y="0">TÉ </tspan><tspan x="8.76" y="14.4">A</tspan><tspan class="cls-11" x="16.78" y="14.4">L</tspan><tspan x="22.81" y="14.4">A</tspan><tspan class="cls-16" x="30.83" y="14.4">I</tspan><tspan x="33.91" y="14.4">S</tspan></text><g><rect x="915.5" y="505.99" width="17.55" height="17.55"/><rect class="cls-3" x="918.1" y="508.98" width="11.54" height="11.54"/></g></g></svg>