<svg width="2798" height="1749" viewBox="0 0 2798 1749" fill="none" xmlns="http://www.w3.org/2000/svg">
<path d="M2121 1234.21C2121 1234.21 2087.29 1201.83 2068.15 1165.96C2068.15 1165.96 2052.82 1164.66 2048.19 1162.27L2052.68 1158.44L2050.56 1148.41L2054.63 1141.3L2045.03 1132.46L2053.34 1120.29L2046.81 1114.91L2053.34 1109.92L2036.69 1092.48L2040.4 1087.35L2051.67 1081.97L2042.83 1067.88L2055.25 1064.03L2044.62 1053.27L2048.97 1047.13L2042.31 1040.21L2049.61 1034.82L2043.59 1021.24L2058.57 1013.43L2057.29 1003.83L2064.2 990.633L2058.82 987.68C2058.82 987.68 2073.8 974.99 2061.14 959.501L2055.36 960.648L2054.59 941.04L2037.55 940.146L2036.01 932.197L2040.87 921.179L2036.26 914.261L2042.54 911.831L2044.33 904.272L2050.74 900.307L2046.25 895.954L2051.63 894.283L2060.22 874.811L2040.62 874.422L2040.11 865.075L2044.97 866.221L2050.86 859.556L2050.6 853.143L2064.83 834.7L2065.33 828.424L2074.81 824.07L2075.96 815.364L2072.64 806.522L2080.33 801.528L2093.91 802.033L2093.66 794.862L2078.8 794.726L2078.29 786.914L2072.79 779.86L2071.9 766.412L2081.13 762.564L2087.27 762.428L2099.69 754.11L2102.11 745.521L2106.21 738.097L2111.34 733.492L2114.67 722.084L2115.44 715.671L2111.6 706.713L2110.06 698.648L2088.8 696.082L2084.7 693.517L2086.24 674.434L2067.28 654.573L2077.15 646.372L2096.11 645.342L2108.27 643.807L2112.88 637.53L2109.56 628.299L2111.48 621.128L2112.37 610.887L2123.53 599.363L2118.4 596.934H2111.23L2097.26 582.456L2104.04 576.684L2100.72 568.231L2108.91 563.741L2119.68 545.552L2124.93 552.334L2130.56 544.775L2129.78 539.392L2137.21 534.533L2144.51 547.223L2147.83 555.424L2155.39 557.348L2162.45 553.889L2159.76 539.022L2166.93 532.609L2172.82 530.297L2182.3 529.908L2185.63 526.449L2176.14 510.689L2177.17 499.534L2170.51 493.762L2152.46 493.626L2145.54 499.514L2135.42 502.837L2123.25 500.914L2126.71 496.949L2122.22 491.177L2118.26 490.789L2117.11 487.466L2112.63 481.83L2115.44 475.689L2112.37 472.871L2108.91 473.007L2101.61 478.779L2102 471.083L2101.1 470.053L2093.93 473.901L2086.38 461.736L2091.62 459.423L2090.09 453.282L2084.96 447.647L2079.19 447.005L2077.4 443.546L2069.7 431.77L2070.73 422.034L2068.69 415.504L2068.19 399.88L2059.99 386.937L2054.99 387.326L2052.82 382.331H2045.4L2024.78 394.38L2019.01 395.157L2008.25 401.298L1998.65 401.94L1987.24 404.505L1984.17 403.358L1986.09 399.258L1983.67 396.051L1979.06 404.369L1975.1 406.934L1972.78 412.181L1966.26 411.034L1965.11 419.993L1963.57 419.488L1963.83 413.716L1960.62 411.151L1956.38 416.651L1953.96 417.039L1953.57 427.164L1958.56 432.022L1956.38 436.123L1947.43 425.609L1943.46 416.379L1946.53 411.637L1939.62 406.506L1931.55 411.248L1917.72 413.677L1907.98 418.419L1898.38 426.231L1894.67 421.995L1896.99 417L1891.6 415.076L1890.46 404.952L1876.12 404.174L1869.59 411.093L1869.34 418.4L1857.17 415.076L1851.03 419.818L1847.44 422.772L1840.02 421.353L1824 422.5L1822.08 420.071L1820.41 353.706L1811.06 354.347L1809.53 360.877L1804.28 363.053L1798.9 373.82L1785.2 367.407H1779.82L1776.5 369.719L1766.51 364.861L1765.62 358.836L1744.48 339.228L1744.98 344.359L1741.91 349.1L1737.81 348.07L1735.63 355.125L1729.49 359.73L1729.88 369.33L1726.42 376.754L1728.46 379.067L1733.96 375.996L1736.14 378.425L1730.64 385.48L1727.57 394.322L1724.89 396.246L1719.51 398.033L1709.13 397.14L1706.31 381.904L1707.09 369.739L1704.78 369.486L1694.15 378.192L1678.64 384.333L1670.83 388.433L1659.82 370.38L1665.2 364.88L1679.42 356.174L1678.78 348.478L1661.62 332.329L1662.26 327.335L1651.5 324.906L1651.64 321.447L1655.6 317.988L1648.55 312.857L1643.16 317.716L1635.86 318.221L1628.44 316.044L1617.67 317.579L1610.25 311.691L1599.39 307.319L1594.34 297.641L1583.82 293.229L1570.16 293.443L1550.4 298.71L1535.48 301.022L1527.9 307.96L1520.75 313.634L1522.23 319.717L1518.44 326.888L1519.51 330.872L1515.91 333.884L1511.44 333.495L1502.04 322.341L1498.15 323.409L1491.74 326.907L1482.34 328.656L1468.95 344.864L1453.72 334.389L1438.39 347.39L1436.64 354.853L1430.13 353.881L1427.7 358.739L1434.77 365.152L1424.01 376.307L1410.62 376.016L1407.61 368.747L1398.4 364.764L1392.18 368.942L1388.1 370.982L1380.74 371.468L1372.89 375.258L1362.9 383.789L1371.43 389.813L1369.78 393.797L1377.43 400.016L1384.21 408.547L1386.25 416.689L1375.29 423.005L1383.82 434.646L1366.75 464.729L1359.38 466.186L1358.62 473.046L1363.01 476.583L1360.1 478.526L1360.47 486.552L1355.36 486.805L1348.17 476.816L1340.86 482.782V488.748L1340.13 499.942L1333.31 510.533L1315.41 497.746L1306.16 503.11L1306.41 509.192L1290.34 507.968L1282.92 503.945L1274.76 504.8L1267.94 517.101L1268.19 523.184L1253.21 523.553L1253.58 543.278L1245.56 564.577L1245.07 581.989L1234.97 577.85L1232.4 581.873L1226.07 577.734L1217.91 576.762L1217.17 596.72L1213.4 602.802L1221.07 606.339L1228.98 614.618L1223.39 623.382L1235.2 619.982L1248.96 619.729L1262.6 623.499L1256.26 634.207L1258.46 645.4L1260.89 648.937L1266 649.19L1265.75 658.44L1275.6 666.952L1277.05 674.259L1287.64 675.23L1287.76 681.799L1299.81 684.967L1299.2 688.251L1295.18 692.876L1287.16 696.413L1287.53 699.095L1294.23 698.725L1293.74 701.038L1289.49 705.061L1280.73 707.373L1270.39 711.765L1262.23 713.825L1253.47 713.456L1254.44 724.902L1248.72 742.684L1253.47 744.394L1258.09 743.908L1258.46 754.499L1252.26 758.755L1247.75 763.497L1246.53 772.514L1233.88 780.307L1234.85 790.295L1225 807.708L1225.97 814.043L1224.14 817.696L1225.37 836.313L1219.77 837.888L1207.61 842.027L1194.34 842.396L1188.26 837.169L1181.32 841.191L1173.78 836.313L1167.08 835.089L1166.82 843.484L1159.52 846.399L1149.41 832.641L1134.94 828.015L1114.73 831.902L1106.22 826.791L1102.57 827.879L1092.35 822.768L1089.43 826.791L1089.8 845.058L1086.03 858.079L1090.77 866.357L1099.54 870.011V875.608L1103.42 873.897L1107.19 872.926L1113.9 863.073L1116.58 864.783L1110.5 875.977L1113.41 882.059L1128.74 892.534L1135.56 894.963L1142.26 901.046L1145.8 897.762L1142.03 889.483L1149.34 886.568L1155.19 890.591L1159.81 897.043L1158.1 905.205L1160.41 911.773L1160.3 917.856L1154.1 915.057L1143.76 915.543L1140.96 911.52L1134.14 910.665L1125.13 919.313L1124.76 926.251L1116.97 921.995L1117.7 929.671L1109.43 934.063L1105.29 940.398L1108.94 945.626L1108.82 948.424L1105.77 949.163L1101.75 950.62L1107.23 956.217L1099.56 962.785L1084.94 996.386L1083.97 1007.58L1087.37 1011.6L1083.49 1018.79V1033.41L1075.33 1031.7L1067.65 1035.95L1064 1042.77L1056.94 1047.28L1052.92 1059.58L1057.66 1063.97L1053.52 1076.63L1065.46 1086.13V1091.36L1077.27 1092.44L1078.24 1095.73L1076.3 1098.04L1081.04 1101.58L1075.07 1108.28L1083.47 1111.68L1081.76 1123.62L1085.78 1126.41L1083.58 1130.81L1088.09 1133.72L1093.09 1131.66L1102.22 1133.12L1096.62 1138.23L1095.53 1143.94L1087.86 1149.31L1095.28 1154.18L1090.05 1165.38L1097.36 1175.6L1095.65 1186.44L1089.57 1187.67L1081.54 1185.36L1083 1194.97L1076.92 1195.83L1071.56 1202.28L1073.5 1206.54L1081.78 1208.85L1083.35 1211.42L1075.93 1222.26L1080.81 1226.03L1086.89 1228.34L1101.36 1222.38L1116.95 1221.29L1148.35 1232.85L1158.68 1233.22L1161.36 1232.48L1159.42 1236.87L1154.8 1242.72L1153.34 1248.57L1153.46 1255.51L1154.31 1264.02L1149.32 1269.02L1148.71 1274.38L1141.53 1283.03L1141.41 1287.17L1159.3 1288.74L1162.7 1293L1164.05 1296.28L1161.99 1302.25L1165.87 1306.99L1161.85 1316.49L1171.22 1317.46L1170.36 1324.4L1176.56 1330.11L1176.31 1333.28L1155.73 1345.45L1150.62 1350.67L1155.24 1374.29L1151.1 1380.37L1144.05 1385.36L1145.63 1389.87L1165.09 1416.05L1165.21 1420.79L1153.16 1433.44L1164.49 1444.29L1160.84 1448.31L1161.44 1455.5L1154.74 1459.38L1150.48 1452.08L1127.24 1470.35V1476.68L1132.12 1480.08L1136.86 1499.81L1139.78 1501.87L1150.25 1500.29L1157.19 1502.24L1164.98 1502.72L1168.03 1505.89L1166.94 1509.66L1158.92 1511.37L1152.58 1507.6L1152.33 1514.79L1156.31 1522.02H1168.55L1177.88 1525.34L1194.26 1525.13H1205.67L1209.4 1526.59L1205.45 1531.15L1231.78 1527.63L1240.91 1520.17L1256.26 1522.87L1264.56 1530.34L1283.43 1516.85L1285.51 1503.58L1314.75 1507.72L1347.72 1505.01L1348.56 1495.47L1365.77 1482.41L1367.43 1475.79L1387.75 1473.71L1383.81 1501.09L1427.35 1494.03L1450.35 1494.66L1473.57 1497.14L1471.71 1486.14L1467.14 1480.76L1459.47 1480.55L1452.01 1452.35L1480.82 1458.57L1486.63 1451.94L1501.77 1461.48L1509.64 1439.1L1504.04 1431.23L1513.99 1422.09L1514.2 1409.03L1539.72 1394.3L1543.23 1385.38L1535.99 1379.38L1545.31 1376.68L1548.83 1384.76L1555.45 1389.74L1559.81 1404.04L1564.57 1405.9L1569.54 1400.31L1577 1402.58L1584.25 1417.1L1591.93 1422.07L1594.63 1418.56L1591.73 1414.2L1599.81 1408.82L1606.25 1413.58L1607.9 1409.85L1614.12 1415.23L1610.17 1429.96L1598.36 1449.45L1624.06 1449.67L1612.44 1467.29L1613.28 1480.16L1609.55 1487.62L1609.76 1494.68L1625.52 1491.35L1633.6 1473.94H1639.41L1643.36 1470.42L1639.41 1465.04L1649.17 1454.88L1657.47 1461.5L1673.44 1458.8L1691.47 1470.21L1698.09 1470.42L1703.9 1463.8L1702.45 1456.96L1724.42 1415.06L1731.05 1411.95L1733.54 1415.27L1742.45 1410.08L1745.16 1417.33L1751.99 1409.25L1750.75 1425.63L1762.37 1423.36L1775.23 1449.49H1785.18L1789.53 1454.68L1795.97 1456.76L1803.21 1472.11L1816.7 1461.33L1820.43 1470.87L1830.81 1468.38L1839.51 1464.03L1854.86 1461.76L1859.83 1456.37L1866.27 1457.83L1874.78 1438.75L1867.53 1432.74L1860.28 1419.06L1862.55 1411.6L1860.07 1400.6L1867.12 1405.57L1878.74 1407.23L1887.87 1400.79L1900.93 1398.09L1914.82 1397.88L1922.28 1397.66L1926.42 1402.43L1928.29 1399.72L1926.83 1388.53L1921.02 1376.91L1922.89 1369.66L1930.56 1356.8L1941.75 1359.28L1946.51 1347.25L1939.05 1344.15L1934.7 1338.33L1927.65 1342.47L1921.64 1334.8L1944.86 1316.34L1951.29 1319.66L1952.54 1323.8L1957.73 1320.48L1953.78 1310.93L1955.43 1303.88L1970.78 1298.5L1988.62 1297.87L2015.57 1281.28L2010.81 1273.41L1997.95 1264.49L1998.35 1261.38L2013.28 1250.38L2013.49 1244.57L2030.28 1249.14L2037.95 1245.19L2043.34 1249.76L2041.88 1254.32L2048.72 1256.19L2068.62 1237.94L2073.8 1237.73L2079.4 1224.86L2096.4 1227.76L2121.04 1234.19L2121 1234.21Z" stroke="#94B1AF" stroke-width="3" stroke-miterlimit="10"/>
<path d="M1872.27 639.396L1854.63 621.439L1832.92 588.752L1803.99 560.691L1790.39 556.338L1778.25 547.962L1769.27 536.671L1751.92 522.485L1732.53 486.902L1709.09 461.717L1710.84 451.883L1686.05 445.218L1685.12 460.143L1681.56 467.586L1682.32 507.851L1643.36 656.011L1647.46 657.605L1645.17 663.901L1647.67 665.261L1661.72 669.148L1688.17 668.293L1705.36 663.474L1717 661.491L1766.39 661.899L1778.03 659.179L1852.49 666.097L1867.7 660.753L1870.33 656.439L1872.27 639.396Z" stroke="#94B1AF" stroke-miterlimit="10"/>
<path d="M1636.66 657.099L1620.53 647.13L1613.12 646.489L1590 648.626L1570.49 639.493L1548.23 633.565L1538.69 627.405L1528.29 612.772L1516.83 605.834L1502.37 590.346V587.547L1510.92 579.133L1528.02 550.663L1539.52 537.254L1574.63 498.465L1594.1 486.513L1611.07 478.254L1619.17 468.363L1630.96 428.097L1651.91 437.541L1670.19 442.108L1679.48 447.86L1679.03 460.997L1676.68 464.981L1678 507.151L1638.77 655.389L1636.66 657.099Z" stroke="#94B1AF" stroke-miterlimit="10"/>
<path d="M1636.21 664.854L1635.31 669.537L1610.77 728.886L1596.36 727.215L1590.02 724.514L1547.53 716.06L1481.23 694.334L1470.47 691.458L1462.77 677.621H1448.16L1427.8 672.238" stroke="#94B1AF" stroke-miterlimit="10"/>
<path d="M1426.4 675.562L1446.64 681.275L1460.63 681.411L1467.71 694.606L1547.92 720.336L1590.16 728.867L1589.89 733.667L1578.69 738.331L1562.04 738.72L1545.12 747.659L1534.47 754.986L1520.87 759.105L1515.41 762.448L1496.48 768.569L1492.09 770.28L1489.43 785.088L1476.45 797.428L1474.64 803.375L1473.55 807.106L1467.92 813.052L1464.68 813.674L1461.61 817.483L1453.72 828.716L1441.3 837.538L1425.62 836.003L1417.94 843.077L1415.07 844.126L1406.77 844.768L1399.62 846.886L1380.13 866.203L1373.14 867.388L1363.21 871.683L1362.37 873.276L1333.17 879.903L1310.92 893.254L1276.78 902.174L1267.92 902.251" stroke="#94B1AF" stroke-miterlimit="10"/>
<path d="M1268.35 907.557L1273.85 907.518L1313.37 896.596L1334.51 883.984L1365.77 876.871L1366.49 875.103L1375.41 871.177L1381.28 870.653L1400.67 850.695L1408.31 848.382L1419.85 847.527L1427.16 840.278L1441.15 841.833L1455.8 832.641L1466.27 816.686L1470.1 815.889L1477.46 807.339L1479.35 799.293L1492.83 786.584L1495.32 772.378L1516.79 765.829L1522.35 762.234L1535.83 758.367L1547.04 750.807L1561.98 742.82L1578.01 742.859L1593.54 736.465L1594.02 730.577L1608.23 733.414L1607.63 738.001L1589.75 760.368L1591.96 795.698L1588.7 796.65L1577.37 811.498L1556.87 811.692" stroke="#94B1AF" stroke-miterlimit="10"/>
<path d="M1557.69 815.831L1578.77 815.637L1585.42 807.883L1586.47 808.893L1549.02 882.099L1532.78 969.082L1534.31 989.468L1522.93 1019.9L1499.01 1077.15L1488.28 1103.11L1491.49 1126.22L1481.41 1144.31L1473.87 1141.18L1468.1 1136.81L1459.72 1134.03L1454.44 1129.08L1440.99 1133.14L1378.37 1117.77L1349.84 1089.9L1280.77 1036.9L1270.25 1033.91L1270.76 1024.95L1277.4 1021.2L1277.35 1016.19L1271.59 1013.02L1265.88 1013.33L1262.99 1009.66L1252.8 979.946L1242.23 972.172L1237.28 965.545L1237.38 962.436L1230.21 937.464L1230.03 931.498" stroke="#94B1AF" stroke-miterlimit="10"/>
<path d="M1226.09 931.188L1226.15 937.27L1233.2 962.728L1233.24 966.42L1228.07 974.096L1216.59 983.036L1216.74 986.728L1178.85 1015.35L1143.08 1062.81L1121.38 1112.03L1098 1112.13L1052.28 1094.82" stroke="#94B1AF" stroke-miterlimit="10"/>
<path d="M1052.2 1099.23L1097.2 1115.73L1119.74 1115.75L1189.69 1446.02L1184.49 1453.89" stroke="#94B1AF" stroke-miterlimit="10"/>
<path d="M1181.38 1476.43L1181.47 1487.6L1161.48 1524L1156.56 1542.85" stroke="#94B1AF" stroke-miterlimit="10"/>
<path d="M1161.27 1543.2L1166.18 1524.35L1185.42 1489.31L1185.5 1476.78" stroke="#94B1AF" stroke-miterlimit="10"/>
<path d="M1188.78 1452.87L1193.64 1447.92L1216.45 1438.71L1252.18 1408.78L1258.17 1400.7L1269.96 1365.54L1288.87 1355.77L1296.23 1348.65L1309.19 1333.24L1332.66 1310.89L1355.88 1282.48L1380.97 1264.02L1398.79 1245.05L1424.65 1186.27L1436.33 1178.32L1458.75 1169.48L1474.93 1163.45L1483.45 1151.81" stroke="#94B1AF" stroke-miterlimit="10"/>
<path d="M1369.72 1114.19L1334.7 1102.59L1295.51 1091.96L1231.08 1098.43L1172.98 1112.85L1136.14 1109.26L1125.18 1112.07L1147.8 1064.07L1181.71 1018.38L1220.78 988.399L1220.49 985.426L1230.32 978.274L1235.55 971.298L1242 977.206L1248.69 981.753L1258.89 1010.44L1264.09 1016.77L1271.03 1017.26L1272.8 1017.78L1272.95 1019.4L1267.14 1022.17L1266.44 1035.08L1268.78 1037.78L1278.59 1040.27L1369.72 1114.19Z" stroke="#94B1AF" stroke-miterlimit="10"/>
<path d="M1439.65 1136.81L1376.56 1122.16L1295.4 1096.1L1233.49 1102.3L1172.6 1116.41L1134.92 1112.91L1124.91 1117.07L1192.57 1443.74L1214.29 1435.23L1248.98 1406.51L1254.13 1399.12L1265.18 1365.79L1270.54 1360.14L1286.3 1352.46L1295.86 1342.71L1306.55 1329.28L1329.11 1307.05L1349.72 1281.16L1356.43 1276.07L1380.97 1258.08L1393.38 1243.85L1421.58 1183.72L1435.18 1174.12L1456.53 1165.22L1468.66 1161.63" stroke="#94B1AF" stroke-miterlimit="10"/>
<path d="M1507.81 1158.25L1496.29 1183.26L1497.26 1211.8L1470.91 1312.02L1469.94 1336.78L1519.53 1404.8L1531.24 1436.16L1532.59 1502.04L1544.07 1528.06L1547.37 1547.57" stroke="#94B1AF" stroke-miterlimit="10"/>
<path d="M1551.34 1546.89L1548.03 1527.63L1537.11 1501.48L1535.42 1433.99L1523.08 1402.06L1473.94 1335.77L1475.34 1311.26L1501.07 1211.9L1499.92 1184.33L1511.85 1159.57" stroke="#94B1AF" stroke-miterlimit="10"/>
<path d="M1516.98 1152.84L1537.71 1149.99L1547.86 1154.92L1562.68 1169.77L1566.74 1175.08L1572.86 1178.87L1581.32 1178.63L1596.53 1173.31L1605.88 1173.21L1641.07 1160.25L1643.75 1161.71L1654.12 1161.16L1674.74 1175.81L1701.69 1216.2L1741.21 1222.65L1766.61 1241.09L1793.27 1251.53" stroke="#94B1AF" stroke-miterlimit="10"/>
<path d="M1793.23 1247.95L1770.3 1239.13L1742.8 1218.33L1703.89 1212.62L1677.38 1172.96L1655.58 1157.45L1645.05 1157.84L1641.92 1155.95L1605.12 1169.81L1595.46 1169.75L1580.97 1174.49L1574.3 1175L1569.23 1171.79L1549.74 1151.79L1540.96 1147.29L1546.98 1142.17L1549.74 1135.63L1570.01 1130.09L1586.19 1115.38L1589.73 1112.83L1628.96 1103.99L1639.38 1092.76L1647.63 1087.49L1653.77 1077.35L1672.5 1067.22L1676.27 1058.44L1706.8 1053.68L1762.29 1024.51L1767.64 1024.47L1776.32 1017.39L1788.14 1010.22" stroke="#94B1AF" stroke-miterlimit="10"/>
<path d="M1786.08 1007.46L1774.32 1014.19L1767.25 1020.35L1761.52 1020.58L1706.29 1050L1673.73 1055.27L1669.3 1065.14L1651.38 1074.45L1644.95 1084.26L1637.86 1088.5L1627.27 1100.18L1587.79 1109.35L1568.05 1126.76L1547.39 1132.19L1544.17 1140.31L1536.57 1146.64L1517.2 1149" stroke="#94B1AF" stroke-miterlimit="10"/>
<path d="M1871.43 1254.97L1879.95 1251.23L1901.92 1250.11L1911.97 1247.76L1927.06 1247.25L1957.88 1237.85L1966.14 1224.81L1966.51 1220.04L1978.9 1213.69" stroke="#94B1AF" stroke-miterlimit="10"/>
<path d="M1977.51 1209.38L1962.45 1218.43L1962.04 1225.02L1955.78 1234.17L1926.4 1243.38L1912.08 1243.6L1901.24 1245.99L1879.28 1247.31L1873.67 1249.89" stroke="#94B1AF" stroke-miterlimit="10"/>
<path d="M1989.59 1228.34L1991.42 1232.05L1990.5 1239.36L1981.45 1257.75L1998.28 1289.34L1989.2 1322.17L1980.26 1336.99L1975.93 1340.12L1963.57 1352.23L1963.46 1373.94L1970.61 1376.31L1951.12 1421.47" stroke="#94B1AF" stroke-miterlimit="10"/>
<path d="M1956.44 1421.53L1974.75 1380.04L1974.53 1372.28L1967.46 1371.24L1967.42 1352.95L1978.4 1342.57L1981.43 1340.47L1992.1 1324.28L2002.82 1287.98L1985.47 1256.97L1994.33 1241.21L1995.77 1231.49" stroke="#94B1AF" stroke-miterlimit="10"/>
<path d="M2001.23 1229.39L2002.84 1232.85L2016.02 1237.3L2030.4 1237.17L2043.65 1234.19L2050.23 1228.75L2069.96 1225.25L2087.85 1229.49L2100.5 1229.37L2130.77 1237.79L2144.22 1223.27L2153.39 1206.58L2170.41 1203.25L2182.6 1204.25L2224.1 1196.88L2263.48 1199.5L2305.16 1210.95L2319.23 1210.66L2329.53 1212.93" stroke="#94B1AF" stroke-miterlimit="10"/>
<path d="M2330.85 1208.42L2320.01 1206.4L2306 1207.39L2267.24 1196.94L2225.13 1193.09L2182.09 1200.3L2169.56 1199.58L2151.74 1203.35L2141.29 1220.88L2128.87 1232.48L2097.35 1224.28L2082.49 1224.63L2069.72 1221.58L2049.36 1225.17L2041.98 1230.13L2030.53 1233.63L2015.45 1232.71L2007.14 1230.67" stroke="#94B1AF" stroke-miterlimit="10"/>
<path d="M1984.05 1176.16L1983.72 1167.63L1976.3 1163.57L1973.72 1163.84L1971.58 1156.25L1970.69 1143.19L1981.63 1125.62L2002.88 1075.23L1997.54 1059.23L1997.73 1038.81L1993.98 1024.99L2013.65 986.514L2019.13 951.165L2025.52 930.274L2029.11 926.232L2031.06 901.241L2026.18 890.941L2025.23 871.547L2020.21 862.413L2018.89 845.351L2016.72 834.118" stroke="#94B1AF" stroke-miterlimit="10"/>
<path d="M2013.43 822.904L2012 814.956L2031.87 828.987L2038.65 839.092L2027.7 834.972L2021.98 831.047" stroke="#94B1AF" stroke-miterlimit="10"/>
<path d="M1984.89 709.725L2004.88 745.618L2002.34 789.537L2010.93 809.282L2036.48 826.81L2076.15 882.526L2139.91 918.419" stroke="#94B1AF" stroke-miterlimit="10"/>
<path d="M1980.65 711.124L2000.74 747.115L1998.02 788.644L1990.54 795.756" stroke="#94B1AF" stroke-miterlimit="10"/>
<path d="M1993.03 798.865L1999.33 792.53L2008.91 819.309" stroke="#94B1AF" stroke-miterlimit="10"/>
<path d="M1980.67 800.731L1955.92 808.524L1953.78 811.012L1949.93 811.206L1921.66 822.438L1896.44 844.884L1895.57 850.753L1885.17 860.1L1859.15 879.32L1851.05 903.301L1854.67 909.131L1859.33 918.187L1858.69 927.437L1857.81 930.566L1854.28 933.578L1848.91 934.821L1839.45 940.127L1820.02 979.635L1819.07 989.332L1814.08 995.337L1807.22 995.24" stroke="#94B1AF" stroke-miterlimit="10"/>
<path d="M1809.49 999.787H1814.99L1822.68 990.77L1824.12 979.44L1843.8 941.818L1851.13 938.358L1855.64 937.328L1861.23 932.334L1864.19 916.768L1858.49 907.246L1855.52 902.348L1863.02 880.991L1888.59 862.393L1898.52 853.202L1899.71 847.624L1924.15 825.179L1951.2 814.587L1955.67 815.326L1957.65 812.217L1983.01 804.424" stroke="#94B1AF" stroke-miterlimit="10"/>
<path d="M1491.2 1137.04L1495.55 1128.65L1492.44 1103.09L1540.73 992.655L1537.62 968.675L1553.24 883.634L1596.05 799.915L1605.16 800.576L1634.91 796.69L1646.66 791.443L1660.55 793.619L1679.77 789.324L1702.33 786.273L1712.26 776.421L1731.07 730.014L1744.79 714.739L1750.17 713.651L1769.81 700.611L1789.26 693.499L1794.84 685.22L1796.7 666.467" stroke="#94B1AF" stroke-miterlimit="10"/>
<path d="M1792.33 664.97L1791.24 685.258L1787.16 689.67L1768.76 697.287L1750.13 710.055L1744.49 710.619L1726.95 729.547L1708.65 775.176L1701.53 782.697L1680.74 784.699L1661.53 788.993L1645.34 786.836L1635.37 792.316L1604.32 795.193L1596.08 792.452L1594.26 763.438L1611.75 738.097L1639.55 666.952" stroke="#94B1AF" stroke-miterlimit="10"/>
<path d="M2098.93 650.783L2104.74 664.484L2119.64 679.953L2209.86 728.517L2238.23 748.611L2268.98 745.715L2266.28 738.35L2255.13 740.662L2238.5 740.818L2210.79 720.821L2171.91 701.854L2119 670.294L2110.2 661.685L2105.44 645.167L2098.97 645.789L2098.93 650.783Z" fill="black"/>
<path d="M1948.38 352.657L1949.16 397.626L1944.84 404.875L1940.69 447.064L1943.44 460.92L1943.23 474.796L1947.54 484.415L1970.51 498.427L2004.44 501.789L2014.5 507.133L2093.27 605.446L2097.06 615.959L2098.19 641.942L2096.13 645.401L2068.01 646.101L2029.02 645.945L2016.91 647.83L1975.7 671.772L1956.42 693.907L1933.11 699.931" stroke="#94B1AF" stroke-miterlimit="10"/>
<path d="M2138.82 921.782L2072.48 886.063L2043.53 844.651L2029 840.317" stroke="#94B1AF" stroke-miterlimit="10"/>
<path d="M2011.96 832.952L2014.46 845.778L2015.96 863.773L2021.07 871.935L2021.92 891.777L2027.19 901.649L2025.15 923.259L2022.14 927.262L2015.1 953.147L2009.47 985.64L1990.23 1023.28L1993.96 1039.14L1993.21 1057.02L1999.07 1074.7L1978.5 1123.5L1967.54 1139.22L1967.01 1154.98L1971.25 1167.65L1975.87 1166.95L1980.13 1169.95L1979.88 1184.77" stroke="#94B1AF" stroke-miterlimit="10"/>
<path d="M1989.77 1180.58L1989.81 1170.53L1998.12 1154.42L2007.04 1145.07L2013.37 1130.57L2029.15 1118.12L2044.09 1117.69L2071.45 1098.76" stroke="#94B1AF" stroke-miterlimit="10"/>
<path d="M2081.58 1091.92L2090.26 1087.06L2108.76 1069.14" stroke="#94B1AF" stroke-miterlimit="10"/>
<path d="M2105.13 1067.86L2090.46 1081.97L2079.54 1089.26" stroke="#94B1AF" stroke-miterlimit="10"/>
<path d="M2070.05 1094.21L2043.39 1113.94L2027.52 1113.67L2010.32 1129.06L2002.86 1143.94L1994.49 1152.49L1987.05 1170.76L1986.91 1177.95" stroke="#94B1AF" stroke-miterlimit="10"/>
<path d="M1223.85 895.391L1234.71 858.895L1240.43 852.463L1251.23 810.817L1270.82 797.894L1272.49 783.319L1278.84 780.54L1304.65 753.897L1312.01 731.082" stroke="#94B1AF" stroke-miterlimit="10"/>
<path d="M1306.57 731.743L1300.39 752.129L1277.58 775.701L1269.13 779.724L1267.14 794.591L1248.49 808.427L1237.96 847.954L1231.66 855.281L1221.39 890.552" stroke="#94B1AF" stroke-miterlimit="10"/>
<path d="M1202.27 888.628L1188.47 872.382L1163.48 859.575L1169.88 831.921L1178.31 825.178L1176.79 793.657L1167.27 781.609L1166.81 764.935L1188.12 743.208L1211.28 723.27L1228.13 709.161L1235.59 698.162L1252.49 689.203L1257.29 684.014L1261.67 667.282L1280.92 651.327L1290.62 649.734L1292.37 643.943L1300.78 635.684L1321.34 692.798L1312.48 715.613" stroke="#94B1AF" stroke-miterlimit="10"/>
<path d="M1317.61 713.457L1325.9 692.741L1313.1 654.962L1356.16 654.846L1362.86 659.937L1371.66 659.859L1392.02 666.039L1393.09 682.402L1395.41 686.503" stroke="#94B1AF" stroke-miterlimit="10"/>
<path d="M1398.79 684.403L1396.69 681.469L1396.07 663.765L1371.97 656.633L1365.62 656.399L1356.43 651.463H1312.05L1303.6 632.069L1316.19 607.913L1320.75 606.981L1324.76 594.407L1336.43 580.571L1395.33 555.074L1401.39 557.678L1405.49 554.394L1429.14 545.163L1437.76 551.712L1448.8 550.274L1455.25 544.91L1469.2 540.499L1483.95 539.761L1490.75 541.179L1518.6 537.798" stroke="#94B1AF" stroke-miterlimit="10"/>
<path d="M1516.79 533.542L1489.97 537.059L1480.67 535.233L1468.87 535.932L1453.58 541.082L1446.86 546.912L1438.91 547.864L1429.39 540.149L1404.27 550.119L1400.46 552.82L1394.98 550.954L1332.72 577.656L1320.48 593.863L1318.07 603.308L1313.95 604.979L1300.18 629.892L1288.21 642.544L1287.95 646.236L1280.88 646.897L1258.65 665.98L1253.5 681.974L1250.14 686.716L1232.99 695.733L1224.24 707.315L1187.52 738.058L1166.07 760.543L1124.43 739.846L1119.14 726.476L1094.33 709.317L1059.92 702.573L1042.99 691.671L1037.98 677.407L1021.95 666.796L1021.31 660.617L1017.44 656.672L971.275 625.85" stroke="#94B1AF" stroke-miterlimit="10"/>
<path d="M970.284 629.835L1015.69 659.937L1017.79 662.716L1017.54 667.438L1034.46 678.632L1039.92 695.092L1059.51 706.111L1093.78 713.01L1116.34 728.867L1121.65 742.101L1162.26 763.225L1161.91 772.242L1141.95 783.203L1089 798.458L1085.37 803.802L1083.06 808.991L1074.24 812.022L1067.73 809.127L1054.55 818.844L1049.04 829.668L1039.48 831.087L958.101 914.397L945.588 918.731" stroke="#94B1AF" stroke-miterlimit="10"/>
<path d="M1172.52 802.519L1171.1 792.491L1163.04 782.25L1162.67 775.623L1143.45 785.981L1091.1 801.392L1085 811.614L1073.54 815.267L1068.06 813.712L1057.66 821.33L1052.16 832.446L1040.68 834.623L962.395 916.767L947.201 921.295" stroke="#94B1AF" stroke-miterlimit="10"/>
<path d="M1038.95 1089.02L990.181 1070.29L972.033 1056.96L951.786 1044.83L944.344 1035.19L943.023 1022.17L929.48 989.39" stroke="#94B1AF" stroke-miterlimit="10"/>
<path d="M926.799 990.848L939.487 1023.61L940.303 1035.47L949.202 1047.48L971.12 1059.82L986.179 1072.47L1041.13 1094.47" stroke="#94B1AF" stroke-miterlimit="10"/>
<path d="M1961.2 683.82L1939.79 655.156" stroke="#94B1AF" stroke-miterlimit="10"/>
<path d="M1963.48 679.661L1943.66 654.34" stroke="#94B1AF" stroke-miterlimit="10"/>
<path d="M1924.38 632.886L1911.38 621.401L1909.29 617.048L1907.3 625.579L1899.67 636.209L1887.1 640.97" stroke="#94B1AF" stroke-miterlimit="10"/>
<path d="M1884.47 636.869L1896.31 634.188L1904.68 620.701L1906.16 613.977L1847.17 536.71L1836.46 548.156L1836.56 558.223L1831.5 569.611" stroke="#94B1AF" stroke-miterlimit="10"/>
<path d="M1827.87 565.511L1830.38 559.311L1830.53 548.74L1844.56 532.882L1819.75 499.865L1823.89 474.582L1821.94 459.132L1800.55 459.852L1791.03 459.949L1787.9 456.373L1788.56 444.499L1786.45 439.369L1772.28 439.757L1753.69 436.59L1736.7 438.047L1730.54 441.72L1723.59 442.556" stroke="#94B1AF" stroke-miterlimit="10"/>
<path d="M1724.07 438.571L1730.41 438.047L1735.77 433.985L1755.24 433.169L1772.75 436.706L1788.82 436.239L1793.36 443.935L1792.08 455.07L1793.5 457.227L1821.15 456.334L1820.68 423.88" stroke="#94B1AF" stroke-miterlimit="10"/>
<path d="M1824.98 425.688L1826.18 455.693L1855.91 440.263L1860.94 439.31L1867.76 433.675L1870.89 424.58L1882.02 411.288L1879.01 381.166L1885.15 373.587" stroke="#94B1AF" stroke-miterlimit="10"/>
<path d="M1888.65 375.763L1883.48 382.525L1886.61 412.569L1875.57 425.434L1870.89 436.881L1865.14 441.953L1859.91 442.458L1827.15 459.851L1824.8 499.631L1886.98 581.173L1893.97 574.274L1902.66 563.702L1895.84 553.966L1890.11 539.45L1883.68 510.008L1899.16 473.182L1921.84 463.388L1926.73 462.202L1939.64 453.749" stroke="#94B1AF" stroke-miterlimit="10"/>
<path d="M1940.59 459.094L1930.39 464.671L1921.66 468.169L1902.93 475.651L1888.13 510.417L1894.3 537.915L1899.71 553.132L1906.51 561.838L1916.36 567.901L1949.68 597.42L1961.38 605.738L1962.23 612.909L1996.37 655.409" stroke="#94B1AF" stroke-miterlimit="10"/>
<path d="M1993.09 658.518L1968.98 626.958L1951.02 606.417L1948.34 601.306L1915.72 571.884L1905.52 565.724L1904.64 569.144L1897.43 577.073L1889.87 584.671L1915.44 618.291L1927.06 630.106" stroke="#94B1AF" stroke-miterlimit="10"/>
<path d="M2000.55 675.6L2014.13 694.8L2025.42 707.295L2032.11 728.031L2042.4 744.569L2057.56 759.416L2097.96 758.23L2187.49 808.854L2192.74 819.484L2210.79 841.463L2215.01 844.125L2225.56 844.3L2235.04 833.942L2241.26 833.748" stroke="#94B1AF" stroke-miterlimit="10"/>
<path d="M2240.48 829.123L2233.52 829.201L2224.55 839.112L2215.78 839.345L2196.68 818.668L2190.66 804.657L2100.37 755.49" stroke="#94B1AF" stroke-miterlimit="10"/>
<path d="M1799.52 655.467L1817.4 608.788L1840.29 604.96" stroke="#94B1AF" stroke-miterlimit="10"/>
<path d="M1837.64 601.384L1818.02 605.173L1827.02 586.09" stroke="#94B1AF" stroke-miterlimit="10"/>
<path d="M1822.41 584.827L1793.95 655.195" stroke="#94B1AF" stroke-miterlimit="10"/>
<path d="M1852.51 598.236L1861.39 596.04L1871.94 573.012" stroke="#94B1AF" stroke-miterlimit="10"/>
<path d="M1874.52 576.023L1864.23 598.838L1853.95 601.267" stroke="#94B1AF" stroke-miterlimit="10"/>
<path d="M1312.11 340.395L1340.61 357.477L1357.3 364.162L1362.26 370.225L1362.86 383.867L1370.71 386.024L1380.58 369.059L1395.93 364.764L1402.21 355.65L1399.91 346.38L1396.47 345.195L1398.77 329.279L1410.78 306.931" stroke="#94B1AF" stroke-miterlimit="10"/>
<path d="M1414.7 309.826L1401.97 332.68L1400.85 343.193L1404.34 345.933L1405.9 356.35L1402.63 364.201L1411.09 369.059L1413.36 394.381L1414.54 396.11L1440.62 395.722L1452.32 391.699" stroke="#94B1AF" stroke-miterlimit="10"/>
<path d="M1452.2 395.896L1442.54 399.763L1413.28 399.899L1409.47 397.315L1373.2 391.154L1367.43 392.806L1359.58 390.416L1354.37 391.038L1353.8 393.37L1359.25 401.726L1358.18 410.568L1351.67 412.512L1342.77 434.918L1343.31 446.073L1340.16 450.154L1330.88 450.096L1327.3 453.03L1338.45 452.778L1346.73 456.314L1354.85 456.237L1369.83 462.047L1382.29 461.775L1385.9 460.59L1400.52 458.549L1412.54 444.965L1419.11 449.396L1424.61 449.338L1427.85 454.954L1429.74 455.09L1463.2 405.671" stroke="#94B1AF" stroke-miterlimit="10"/>
<path d="M1466.75 408.431L1432.81 457.092L1426.51 459.948L1423.42 454.41L1419.89 454.449L1413.01 450.212L1403.51 461.95L1386.45 464.049L1382.93 465.701L1367.48 466.012L1354.43 460.415L1346.63 460.24L1338.44 456.761L1324.08 457.033L1315.7 456.742L1299.34 458.724L1277.29 455.479L1264.35 455.42L1262.03 461.095L1253.02 469.004L1248.53 476.331L1232.21 482.86L1220.32 513.565L1215.93 511.622L1205.02 513.176L1186.8 530.103L1177.9 532.551" stroke="#94B1AF" stroke-miterlimit="10"/>
<path d="M1176.87 528.548L1184.29 526.993L1202.62 509.814L1215.54 506.958L1218.24 508.007L1229.47 479.673L1245.63 473.63L1249.44 467.683L1257.1 459.793L1260.01 450.484L1278.76 451.553L1298.89 454.935L1315.88 452.544L1322.93 453.166L1329.05 446.326L1337.66 446.345L1338.96 431.867L1347.33 411.19L1354.17 408.12L1354.56 402.97L1349.3 392.418L1353.11 386.16" stroke="#94B1AF" stroke-miterlimit="10"/>
<path d="M2104.47 641.786L2102.43 618.427L2121.6 616.736L2166.2 607.427L2211.51 611.781L2225.6 605.212L2235.54 594.096L2231.07 591.667L2221.46 601.792L2209.49 607.836L2165.79 603.269L2121.37 611.703L2103.12 612.888L2097.06 615.959L2098 643.301L2104.47 641.786Z" fill="black"/>
<path d="M2102.95 615.667L2097.59 602.938L2018.1 504.547L2006.92 498.445L1971.23 495.2L1951.26 482.199L1947.62 473.279L1948.55 460.57L1944.65 445.82L1948.13 417.253L1942.12 420.226L1940.69 447.064L1943.44 460.92L1943.23 474.795L1947.54 484.415L1970.51 498.426L2004.44 501.788L2014.5 507.132L2093.27 605.445L2098.56 618.66L2102.95 615.667Z" fill="black"/>
<path d="M1667.43 437.833L1679.48 447.861L1679.03 460.998L1676.68 464.981" stroke="#94B1AF" stroke-miterlimit="10"/>
<path d="M980.271 619.652L954.448 612.403L964.397 637.317L965.64 623.888L980.271 619.652Z" stroke="#94B1AF" stroke-miterlimit="10"/>
<path d="M940.73 985.639L919.609 969.082L919.318 995.9L925.594 983.968L940.73 985.639Z" stroke="#94B1AF" stroke-miterlimit="10"/>
<path d="M968.438 1360.24L970.945 1386.96L990.609 1368.71L977.649 1372.38L968.438 1360.24Z" stroke="#94B1AF" stroke-miterlimit="10"/>
<path d="M924.875 896.557L905.581 915.193L932.103 919.177L921.144 911.326L924.875 896.557Z" stroke="#94B1AF" stroke-miterlimit="10"/>
<path d="M1174.32 518.248L1155.4 537.234L1182 540.713L1170.89 533.076L1174.32 518.248Z" stroke="#94B1AF" stroke-miterlimit="10"/>
<path d="M1592.24 275.565L1573.6 256.268L1569.62 282.794L1577.47 271.834L1592.24 275.565Z" stroke="#94B1AF" stroke-miterlimit="10"/>
<path d="M1535.75 1550.43L1552.85 1571.09L1558.86 1544.93L1550.19 1555.27L1535.75 1550.43Z" stroke="#94B1AF" stroke-miterlimit="10"/>
<path d="M2117.25 1290.1L2134.35 1310.76L2140.33 1284.62L2131.69 1294.96L2117.25 1290.1Z" stroke="#94B1AF" stroke-miterlimit="10"/>
<path d="M2278.41 754.383L2299.45 737.768L2273.45 731.16L2283.58 740.061L2278.41 754.383Z" stroke="#94B1AF" stroke-miterlimit="10"/>
<path d="M2247.14 590.366L2236.34 565.821L2223.42 589.316L2234.57 581.757L2247.14 590.366Z" stroke="#94B1AF" stroke-miterlimit="10"/>
<path d="M1496.64 591.182L1514.22 607.836L1525.51 614.735L1536.24 629.446L1546.75 636.034L1569.85 642.058L1589.11 651.988L1612.78 649.734L1620.26 650.764L1635.31 660.112L1645.67 667.341L1662.23 672.782L1689.8 670.955L1706.57 666.136L1717.93 664.309L1766.55 665.086L1778.96 661.841L1851.97 669.245L1868.89 663.318L1873.05 657.974L1876.31 641.106L1872.27 639.396L1870.33 656.439L1867.7 660.753L1852.49 666.097L1778.03 659.179L1766.39 661.899L1717 661.491L1705.36 663.474L1688.17 668.293L1661.72 669.148L1647.67 665.261L1645.17 663.901L1621.48 647.324L1613.12 646.489L1590 648.626L1570.49 639.493L1548.23 633.566L1538.69 627.405L1528.29 612.772L1516.83 605.834L1502.37 590.346L1502.14 583.797L1496.64 591.182Z" fill="black"/>
<path d="M1931.38 704.905L1957.28 697.482L1978.07 673.793L2018.14 650.162L2028.51 648.568L2073.77 649.365L2100.23 648.626L2100.17 643.671L2071.76 646.411L2029.02 645.945L2016.91 647.83L1975.7 671.771L1959.69 690.777L1927.14 701.485L1931.38 704.905Z" fill="black"/>
<path d="M1712.61 783.027L1730.52 784.135L1753.94 781.356L1780.32 776.4L1806.79 778.285L1830.75 786.156L1852.96 790.626L1881.91 786.506L1904 778.188L1917.56 769.54L1931.57 762.991L1953.68 756.812L1948.94 752.167L1931.18 759.046L1915.7 766.567L1901.34 775.196L1880.18 783.047L1852.74 785.301L1832.61 782.658L1810.15 773.816L1780.69 771.27L1751.3 777.217L1727.82 779.704L1715.08 778.421" stroke="#94B1AF" stroke-miterlimit="10"/>
<path d="M1727.42 380.038L1708.61 398.772L1694.03 415.446L1682.24 434.432L1653.54 431.906L1630.77 418.4H1628.44L1614.52 462.708L1607.98 471.142L1589.21 482.316L1571.27 493.296L1532.66 535.078L1526.13 543.939L1524.13 529.034L1519.24 517.141L1519.39 507.074L1523.82 495.939L1525.34 463.602L1521.08 452.467L1509.04 438.436L1497.9 436.453L1488.91 428.214L1478.68 404.427L1479.44 395.274L1485.99 387.481L1536.63 347.527L1550.97 347.837L1560.12 349.353L1566.53 349.956L1574.61 343.096L1576.28 338.218L1577.2 323.876L1588.02 307.105L1586.97 291.384L1582.7 279.335" stroke="#94B1AF" stroke-miterlimit="10"/>
<path d="M1753.74 348.77L1737.54 377.026L1716.34 459.112L1738.37 485.095L1758.74 519.997L1775.97 534.766L1783.24 544.114L1792.39 550.76L1808.38 555.132L1829.39 573.614L1837.9 583.389L1866.77 626.2L1874.25 634.712L1879.25 634.518L1881.11 639.084L1922.27 681.274L1950.73 746.531L1977.51 776.478L1998.49 812.255L2025.13 833.981L2032.53 845.564L2056.72 948.735L2065.6 972.424L2066.85 1018.33L2072.27 1045.24L2071.28 1075.34L2074.99 1087.94L2086.59 1102.24L2112.18 1166.51L2113.52 1186.29L2133.79 1223.93L2132.93 1286.91L2128.21 1287.69L2128 1226.24L2108 1191.34L2098.34 1144L2080.97 1105.33L2070.07 1091.4L2065.9 1079.11L2066.83 1045.26L2061.02 1025.98L2059.58 973.901L2046.29 938.766L2027.35 850.053L2021.15 837.79L1993.01 815.442L1971.79 780.851L1943.7 747.134L1916.42 684.209L1879.25 645.886L1854.04 620.72L1833 589.257L1804.65 560.826L1790.58 556.745L1777.86 547.515L1769.33 536.671L1752.03 522.97L1732.99 487.893L1708.26 462.086L1710.65 451.767L1731.11 374.674L1746.88 343.795L1753.74 348.77Z" fill="black"/>
<path d="M1233.55 763.497L1212.39 780.326L1187.25 798.341L1149.26 817.541L1124.72 822.283L1106.1 828.618L1056.44 854.756L1030.13 873.937L928.994 907.595L1030.13 873.937L1056.44 854.756L1106.1 828.618L1124.72 822.283L1149.26 817.541L1187.25 798.341L1233.55 763.497Z" stroke="#94B1AF" stroke-miterlimit="10"/>
<path d="M1295.2 727.021L1233.55 763.498L1187.25 798.341L1149.26 817.542L1124.72 822.283L1106.1 828.619L1056.44 854.756L1030.13 873.937L928.994 907.596V915.505L1032.5 879.689L1032.31 896.305L1038.04 925.202L1037.24 977.264L1046.94 1023.96L1045.17 1082.55L1042.99 1115.01L1020.63 1195.56L1003.41 1299.27L980.446 1355.09L986.062 1360.22L1009.11 1304.15L1050.57 1111.67L1054.52 1020.15L1043.96 974.505L1044.9 922.987L1039.34 895.605L1040.6 876.327L1056.83 861.733L1114.69 831.981L1151.8 821.895L1169.29 815.734L1192.1 803.686L1216.31 785.943L1238.85 769.308L1247.71 763.575L1299.69 731.996L1310.38 727.76L1393.19 699.115L1414.45 687.047L1431.57 668.449L1445.54 644.643L1457 629.388L1510.45 580.261L1527.46 552.199L1574.63 498.466L1596.22 485.62L1611.07 478.255L1618.88 469.219L1630.96 428.098L1651.91 437.542L1667.14 440.379L1686.05 445.218L1710.65 451.767L1709.09 461.717L1732.99 487.894L1752.03 522.971L1769.33 536.672L1777.86 547.515L1790.58 556.746L1803.99 560.691L1832.92 588.753L1854.63 621.44L1879.25 645.887L1916.69 685.026L1942.69 747.776L1970.9 781.434L1992.6 816.24L2019.85 837.577L2021.32 839.87L2025.13 833.982L1998.49 812.256L1977.51 776.479L1950.73 746.532L1922.26 681.275L1881.11 639.085L1879.25 634.518L1874.25 634.713L1837.9 583.389L1829.39 573.614L1808.38 555.133L1792.39 550.761L1783.24 544.115L1775.97 534.767L1758.74 519.998L1738.37 485.096L1716.34 459.113L1719.64 446.384L1713.43 444.363L1688.28 439.155L1682.24 434.433L1653.54 431.907L1630.77 418.4H1628.44L1614.52 462.708L1607.98 471.142L1571.27 493.296L1544.88 523.088L1520.87 551.013L1504.29 576.18L1497.44 580.902L1494.54 587.004L1455.19 622.237L1441.46 638.561L1423.93 666.175L1412.04 679.293L1391.13 692.099L1311.15 719.403L1295.2 727.021Z" fill="black"/>
<path d="M1580.4 287.459L1585.59 286.409L1586.97 291.384L1588.02 307.106L1577.2 323.877L1576.28 338.218L1574.61 343.096L1566.53 349.956L1560.12 349.354L1550.97 347.838L1536.63 347.527L1485.99 387.482L1479.44 395.275L1478.68 404.428L1488.91 428.214L1497.9 436.454L1509.04 438.436L1521.08 452.467L1525.34 463.602L1523.82 495.939L1519.39 507.075L1519.24 517.141L1524.13 529.034L1526.13 543.94L1521.53 548.409L1520.17 530.259L1515.14 518.812L1516.05 505.403L1519.7 495.939L1520.62 464.36L1518.19 457.345L1506.9 441.487L1495.92 439.039L1486.15 430.352L1474.57 405.03L1475.01 394.808L1477.91 388.395L1535.4 343.252L1550.81 343.407L1565.75 346.147L1571.56 339.89L1573.99 321.137L1581.92 307.864L1582.39 298.4L1581.63 289.11L1580.4 287.459Z" fill="black"/>
<path d="M1520.17 530.258L1515.14 518.812L1516.05 505.403L1519.7 495.939L1520.62 464.359L1518.19 457.344L1506.9 441.486L1495.92 439.038L1486.15 430.351L1474.57 405.029L1475.01 394.808L1477.91 388.395L1535.4 343.251L1550.81 343.406L1565.75 346.146L1571.56 339.889L1573.99 321.136L1581.92 307.863L1582.39 298.399L1581.63 289.11L1578.27 281.025" stroke="#94B1AF" stroke-miterlimit="10"/>
<path d="M1744.62 248.694C1746.24 248.694 1747.49 249.942 1747.49 251.514C1747.49 253.086 1746.24 254.334 1744.62 254.334H1743.14V257.094H1741.49V248.694H1744.62ZM1744.62 252.786C1745.33 252.786 1745.84 252.234 1745.84 251.514C1745.84 250.782 1745.33 250.242 1744.62 250.242H1743.14V252.786H1744.62ZM1753.11 257.094L1752.6 255.582H1749.26L1748.75 257.094H1746.96L1749.9 248.694H1751.96L1754.91 257.094H1753.11ZM1749.78 254.034H1752.09L1750.94 250.602L1749.78 254.034ZM1760.33 257.094L1758.64 254.178H1757.38V257.094H1755.72V248.694H1759.08C1760.63 248.694 1761.88 249.942 1761.88 251.478C1761.88 252.534 1761.22 253.482 1760.26 253.926L1762.12 257.094H1760.33ZM1757.38 250.242V252.726H1759.08C1759.71 252.726 1760.22 252.174 1760.22 251.478C1760.22 250.782 1759.71 250.242 1759.08 250.242H1757.38ZM1763.09 248.694H1764.75V257.094H1763.09V248.694ZM1769.04 257.262C1767.33 257.262 1766.2 256.434 1765.74 255.186L1767.16 254.358C1767.46 255.138 1768.05 255.642 1769.09 255.642C1770.09 255.642 1770.44 255.222 1770.44 254.754C1770.44 254.13 1769.87 253.89 1768.62 253.53C1767.34 253.158 1766.09 252.618 1766.09 251.022C1766.09 249.438 1767.41 248.526 1768.85 248.526C1770.23 248.526 1771.29 249.234 1771.85 250.41L1770.46 251.214C1770.16 250.578 1769.7 250.134 1768.85 250.134C1768.16 250.134 1767.75 250.494 1767.75 250.974C1767.75 251.49 1768.07 251.766 1769.34 252.15C1770.68 252.57 1772.09 253.014 1772.09 254.73C1772.09 256.302 1770.83 257.262 1769.04 257.262Z" fill="black"/>
<path d="M1729.24 379.455L1693.76 415.076L1680.88 436.064L1679.77 460.123L1676.6 464.165L1678.1 507.715L1638.89 655.389L1635 668.001L1609.69 729.994L1606.83 739.38L1590.2 760.115L1592.14 795.659L1548.6 881.612L1532.88 968.382L1534.96 990.284L1487.93 1102.74L1492.17 1126.49L1485.58 1136.99L1490.32 1133.14L1495.67 1129.13L1492.48 1102.96L1541.37 990.75L1537.42 968.868L1553.43 883.711L1596.73 799.351L1594.49 763.011L1611.92 740.118L1640.6 665.261L1683.17 506.879L1681.44 466.264L1686.18 459.793L1687.58 439.193L1699.94 417.156L1732.23 384.76L1729.24 379.455Z" fill="black"/>
<path d="M1748.56 341.697L1760.27 318.96L1766.18 301.742L1766.32 272.63L1772.59 272.358L1772.47 302.519L1765.73 319.756L1752.99 345.214L1748.56 341.697Z" fill="black"/>
<path d="M1516.9 1129.15H1482.8V1163.26H1516.9V1129.15Z" fill="black"/>
<path d="M1510.26 1134.98H1487.84V1157.41H1510.26V1134.98Z" fill="white" stroke="#94B1AF" stroke-miterlimit="10"/>
<path d="M1249.25 905.924H1215.15V940.029H1249.25V905.924Z" fill="black"/>
<path d="M1242.62 911.754H1220.2V934.18H1242.62V911.754Z" fill="white" stroke="#94B1AF" stroke-miterlimit="10"/>
<path d="M1551.96 1085.43H1440.76V1117.92H1551.96V1085.43Z" fill="white" stroke="#94B1AF" stroke-miterlimit="10"/>
<path d="M1450.96 1097.61H1454.5V1099.2H1449.31V1090.8H1454.44V1092.38H1450.96V1094.17H1454.14V1095.73H1450.96V1097.61ZM1461.23 1090.8V1092.38H1458.96V1099.2H1457.3V1092.38H1455.05V1090.8H1461.23ZM1466.94 1099.2L1466.44 1097.69H1463.09L1462.59 1099.2H1460.8L1463.74 1090.8H1465.79L1468.74 1099.2H1466.94ZM1463.62 1096.14H1465.92L1464.77 1092.71L1463.62 1096.14ZM1477.78 1090.8V1099.2H1476.13V1093.75L1473.77 1097.65H1473.58L1471.21 1093.76V1099.2H1469.56V1090.8H1471.26L1473.67 1094.77L1476.07 1090.8H1477.78ZM1482.48 1090.8C1484.1 1090.8 1485.34 1092.05 1485.34 1093.62C1485.34 1095.19 1484.1 1096.44 1482.48 1096.44H1481V1099.2H1479.34V1090.8H1482.48ZM1482.48 1094.89C1483.18 1094.89 1483.7 1094.34 1483.7 1093.62C1483.7 1092.89 1483.18 1092.35 1482.48 1092.35H1481V1094.89H1482.48ZM1488.08 1097.61H1491.62V1099.2H1486.42V1090.8H1491.56V1092.38H1488.08V1094.17H1491.26V1095.73H1488.08V1097.61ZM1495.65 1099.37C1493.94 1099.37 1492.81 1098.54 1492.35 1097.29L1493.77 1096.46C1494.07 1097.24 1494.66 1097.75 1495.7 1097.75C1496.7 1097.75 1497.04 1097.33 1497.04 1096.86C1497.04 1096.23 1496.48 1095.99 1495.23 1095.63C1493.95 1095.26 1492.7 1094.72 1492.7 1093.13C1492.7 1091.54 1494.02 1090.63 1495.46 1090.63C1496.84 1090.63 1497.9 1091.34 1498.46 1092.51L1497.07 1093.32C1496.77 1092.68 1496.31 1092.24 1495.46 1092.24C1494.76 1092.24 1494.36 1092.6 1494.36 1093.08C1494.36 1093.59 1494.68 1093.87 1495.95 1094.25C1497.28 1094.67 1498.7 1095.12 1498.7 1096.83C1498.7 1098.41 1497.44 1099.37 1495.65 1099.37Z" fill="black"/>
<path d="M1650.18 748.65H1616.08V782.756H1650.18V748.65Z" fill="black"/>
<path d="M1643.55 754.461H1621.13V776.887H1643.55V754.461Z" fill="white" stroke="#94B1AF" stroke-miterlimit="10"/>
<path d="M1685.23 704.925H1574.03V737.417H1685.23V704.925Z" fill="white" stroke="#94B1AF" stroke-miterlimit="10"/>
<path d="M1584.5 718.674L1584 717.162H1580.65L1580.15 718.674H1578.36L1581.3 710.274H1583.35L1586.3 718.674H1584.5ZM1581.18 715.614H1583.48L1582.33 712.182L1581.18 715.614ZM1591.73 718.674L1590.04 715.758H1588.78V718.674H1587.12V710.274H1590.48C1592.03 710.274 1593.28 711.522 1593.28 713.058C1593.28 714.114 1592.62 715.062 1591.66 715.506L1593.52 718.674H1591.73ZM1588.78 711.822V714.306H1590.48C1591.1 714.306 1591.62 713.754 1591.62 713.058C1591.62 712.362 1591.1 711.822 1590.48 711.822H1588.78ZM1597.62 710.274C1599.24 710.274 1600.49 711.522 1600.49 713.094C1600.49 714.666 1599.24 715.914 1597.62 715.914H1596.15V718.674H1594.49V710.274H1597.62ZM1597.62 714.366C1598.33 714.366 1598.85 713.814 1598.85 713.094C1598.85 712.362 1598.33 711.822 1597.62 711.822H1596.15V714.366H1597.62ZM1606.11 718.674L1605.61 717.162H1602.26L1601.76 718.674H1599.97L1602.91 710.274H1604.96L1607.91 718.674H1606.11ZM1602.79 715.614H1605.09L1603.94 712.182L1602.79 715.614ZM1611.12 718.842C1609.83 718.842 1608.86 718.29 1608.35 717.246L1609.77 716.43C1610.04 716.958 1610.42 717.222 1611.12 717.222C1612.03 717.222 1612.43 716.742 1612.43 716.058V710.274H1614.07V716.058C1614.07 717.87 1612.77 718.842 1611.12 718.842ZM1619.53 718.842C1617.11 718.842 1615.18 716.922 1615.18 714.474C1615.18 712.014 1617.11 710.106 1619.53 710.106C1621.96 710.106 1623.9 712.014 1623.9 714.474C1623.9 716.922 1621.96 718.842 1619.53 718.842ZM1619.53 717.222C1621.06 717.222 1622.25 716.082 1622.25 714.474C1622.25 712.854 1621.06 711.714 1619.53 711.714C1618.01 711.714 1616.82 712.854 1616.82 714.474C1616.82 716.082 1618.01 717.222 1619.53 717.222ZM1629.93 710.274H1631.58V718.674H1630.32L1626.72 713.538V718.674H1625.07V710.274H1626.33L1629.93 715.398V710.274Z" fill="black"/>
<path d="M1961.57 618.214H1927.47V652.319H1961.57V618.214Z" fill="black"/>
<path d="M1954.95 624.044H1932.52V646.47H1954.95V624.044Z" fill="white" stroke="#94B1AF" stroke-miterlimit="10"/>
<path d="M1996.63 574.488H1885.42V606.981H1996.63V574.488Z" fill="white" stroke="#94B1AF" stroke-miterlimit="10"/>
<path d="M1916.77 586.653H1920.31V588.237H1915.12V579.837H1920.25V581.421H1916.77V583.209H1919.95V584.769H1916.77V586.653ZM1923.56 588.237L1920.74 579.837H1922.54L1924.59 586.293L1926.63 579.837H1928.44L1925.61 588.237H1923.56ZM1933.86 588.237L1932.17 585.321H1930.91V588.237H1929.25V579.837H1932.61C1934.16 579.837 1935.41 581.085 1935.41 582.621C1935.41 583.677 1934.75 584.625 1933.79 585.069L1935.65 588.237H1933.86ZM1930.91 581.385V583.869H1932.61C1933.23 583.869 1933.75 583.317 1933.75 582.621C1933.75 581.925 1933.23 581.385 1932.61 581.385H1930.91ZM1943.03 579.837L1940.15 584.961V588.237H1938.51V584.961L1935.64 579.837H1937.51L1939.34 583.341L1941.16 579.837H1943.03Z" fill="black"/>
<path d="M1647.44 397.976H1613.34V432.081H1647.44V397.976Z" fill="black"/>
<path d="M1640.81 403.806H1618.39V426.232H1640.81V403.806Z" fill="white" stroke="#94B1AF" stroke-miterlimit="10"/>
<path d="M1682.49 354.27H1571.29V386.762H1682.49V354.27Z" fill="white" stroke="#94B1AF" stroke-miterlimit="10"/>
<path d="M1599.76 359.619V368.019H1598.12V362.571L1595.75 366.471H1595.56L1593.2 362.583V368.019H1591.54V359.619H1593.24L1595.66 363.591L1598.06 359.619H1599.76ZM1606.73 368.019L1606.22 366.507H1602.87L1602.37 368.019H1600.58L1603.52 359.619H1605.57L1608.53 368.019H1606.73ZM1603.4 364.959H1605.71L1604.55 361.527L1603.4 364.959ZM1612.02 368.187C1610.31 368.187 1609.18 367.359 1608.72 366.111L1610.14 365.283C1610.44 366.063 1611.03 366.567 1612.07 366.567C1613.07 366.567 1613.41 366.147 1613.41 365.679C1613.41 365.055 1612.85 364.815 1611.6 364.455C1610.32 364.083 1609.07 363.543 1609.07 361.947C1609.07 360.363 1610.39 359.451 1611.83 359.451C1613.21 359.451 1614.27 360.159 1614.83 361.335L1613.44 362.139C1613.14 361.503 1612.68 361.059 1611.83 361.059C1611.13 361.059 1610.73 361.419 1610.73 361.899C1610.73 362.415 1611.05 362.691 1612.32 363.075C1613.65 363.495 1615.07 363.939 1615.07 365.655C1615.07 367.227 1613.81 368.187 1612.02 368.187ZM1618.76 368.187C1617.04 368.187 1615.92 367.359 1615.46 366.111L1616.88 365.283C1617.18 366.063 1617.76 366.567 1618.81 366.567C1619.8 366.567 1620.15 366.147 1620.15 365.679C1620.15 365.055 1619.59 364.815 1618.34 364.455C1617.06 364.083 1615.81 363.543 1615.81 361.947C1615.81 360.363 1617.13 359.451 1618.57 359.451C1619.95 359.451 1621 360.159 1621.57 361.335L1620.18 362.139C1619.88 361.503 1619.42 361.059 1618.57 361.059C1617.87 361.059 1617.46 361.419 1617.46 361.899C1617.46 362.415 1617.79 362.691 1619.06 363.075C1620.39 363.495 1621.81 363.939 1621.81 365.655C1621.81 367.227 1620.55 368.187 1618.76 368.187ZM1629.16 359.619L1626.28 364.743V368.019H1624.64V364.743L1621.77 359.619H1623.64L1625.46 363.123L1627.29 359.619H1629.16Z" fill="black"/>
<path d="M1290.25 866.766H1168.65V904.777H1290.25V866.766Z" fill="white" stroke="#94B1AF" stroke-miterlimit="10"/>
<path d="M1176.81 874.525C1179.12 874.525 1180.85 876.361 1180.85 878.725C1180.85 881.089 1179.12 882.925 1176.81 882.925H1173.47V874.525H1176.81ZM1176.81 881.341C1178.26 881.341 1179.27 880.273 1179.27 878.725C1179.27 877.177 1178.26 876.109 1176.81 876.109H1175.13V881.341H1176.81ZM1186 883.093C1183.58 883.093 1181.64 881.173 1181.64 878.725C1181.64 876.265 1183.58 874.357 1186 874.357C1188.42 874.357 1190.37 876.265 1190.37 878.725C1190.37 881.173 1188.42 883.093 1186 883.093ZM1186 881.473C1187.52 881.473 1188.71 880.333 1188.71 878.725C1188.71 877.105 1187.52 875.965 1186 875.965C1184.48 875.965 1183.29 877.105 1183.29 878.725C1183.29 880.333 1184.48 881.473 1186 881.473ZM1194.6 883.093C1192.77 883.093 1191.4 881.989 1191.4 880.177V874.525H1193.04V880.045C1193.04 880.861 1193.48 881.473 1194.6 881.473C1195.73 881.473 1196.16 880.861 1196.16 880.045V874.525H1197.82V880.177C1197.82 881.989 1196.45 883.093 1194.6 883.093ZM1203.92 882.925L1202.23 880.009H1200.97V882.925H1199.31V874.525H1202.67C1204.22 874.525 1205.47 875.773 1205.47 877.309C1205.47 878.365 1204.81 879.313 1203.85 879.757L1205.71 882.925H1203.92ZM1200.97 876.073V878.557H1202.67C1203.3 878.557 1203.81 878.005 1203.81 877.309C1203.81 876.613 1203.3 876.073 1202.67 876.073H1200.97ZM1210.02 874.525C1212.34 874.525 1214.06 876.361 1214.06 878.725C1214.06 881.089 1212.34 882.925 1210.02 882.925H1206.68V874.525H1210.02ZM1210.02 881.341C1211.47 881.341 1212.48 880.273 1212.48 878.725C1212.48 877.177 1211.47 876.109 1210.02 876.109H1208.34V881.341H1210.02ZM1220.33 882.925L1219.83 881.413H1216.48L1215.98 882.925H1214.19L1217.13 874.525H1219.18L1222.13 882.925H1220.33ZM1217.01 879.865H1219.31L1218.16 876.433L1217.01 879.865ZM1227.81 874.525H1229.46V882.925H1228.2L1224.6 877.789V882.925H1222.95V874.525H1224.21L1227.81 879.649V874.525Z" fill="black"/>
<path d="M879.452 592.591L877.76 589.675H876.5V592.591H874.844V584.191H878.204C879.752 584.191 881 585.439 881 586.975C881 588.031 880.34 588.979 879.38 589.423L881.24 592.591H879.452ZM876.5 585.739V588.223H878.204C878.828 588.223 879.344 587.671 879.344 586.975C879.344 586.279 878.828 585.739 878.204 585.739H876.5ZM887.615 592.591L887.111 591.079H883.763L883.259 592.591H881.471L884.411 584.191H886.463L889.415 592.591H887.615ZM884.291 589.531H886.595L885.443 586.099L884.291 589.531ZM898.451 584.191V592.591H896.807V587.143L894.443 591.043H894.251L891.887 587.155V592.591H890.231V584.191H891.935L894.347 588.163L896.747 584.191H898.451ZM905.092 588.235C905.764 588.619 906.196 589.279 906.196 590.155C906.196 591.595 905.032 592.591 903.58 592.591H900.016V584.191H903.328C904.744 584.191 905.884 585.151 905.884 586.555C905.884 587.275 905.584 587.839 905.092 588.235ZM903.328 585.739H901.672V587.587H903.328C903.844 587.587 904.228 587.191 904.228 586.663C904.228 586.135 903.856 585.739 903.328 585.739ZM903.58 591.043C904.144 591.043 904.552 590.623 904.552 590.047C904.552 589.483 904.144 589.063 903.58 589.063H901.672V591.043H903.58ZM911.253 592.759C908.829 592.759 906.897 590.839 906.897 588.391C906.897 585.931 908.829 584.023 911.253 584.023C913.677 584.023 915.621 585.931 915.621 588.391C915.621 590.839 913.677 592.759 911.253 592.759ZM911.253 591.139C912.777 591.139 913.965 589.999 913.965 588.391C913.965 586.771 912.777 585.631 911.253 585.631C909.729 585.631 908.541 586.771 908.541 588.391C908.541 589.999 909.729 591.139 911.253 591.139ZM919.859 592.759C918.023 592.759 916.655 591.655 916.655 589.843V584.191H918.299V589.711C918.299 590.527 918.731 591.139 919.859 591.139C920.987 591.139 921.419 590.527 921.419 589.711V584.191H923.075V589.843C923.075 591.655 921.707 592.759 919.859 592.759ZM924.567 584.191H926.223V592.591H924.567V584.191ZM929.434 591.007H932.638V592.591H927.778V584.191H929.434V591.007ZM935.234 591.007H938.438V592.591H933.578V584.191H935.234V591.007ZM941.035 591.007H944.575V592.591H939.379V584.191H944.515V585.775H941.035V587.563H944.215V589.123H941.035V591.007ZM951.298 584.191V585.775H949.03V592.591H947.374V585.775H945.118V584.191H951.298Z" fill="black"/>
<path d="M902.414 940.467L901.91 938.955H898.562L898.058 940.467H896.27L899.21 932.067H901.262L904.214 940.467H902.414ZM899.09 937.407H901.394L900.242 933.975L899.09 937.407ZM910.106 936.111C910.778 936.495 911.21 937.155 911.21 938.031C911.21 939.471 910.046 940.467 908.594 940.467H905.03V932.067H908.342C909.758 932.067 910.898 933.027 910.898 934.431C910.898 935.151 910.598 935.715 910.106 936.111ZM908.342 933.615H906.686V935.463H908.342C908.858 935.463 909.242 935.067 909.242 934.539C909.242 934.011 908.87 933.615 908.342 933.615ZM908.594 938.919C909.158 938.919 909.566 938.499 909.566 937.923C909.566 937.359 909.158 936.939 908.594 936.939H906.686V938.919H908.594ZM913.952 938.883H917.156V940.467H912.296V932.067H913.952V938.883ZM918.096 932.067H919.752V940.467H918.096V932.067ZM924.046 940.635C922.33 940.635 921.202 939.807 920.746 938.559L922.162 937.731C922.462 938.511 923.05 939.015 924.094 939.015C925.09 939.015 925.438 938.595 925.438 938.127C925.438 937.503 924.874 937.263 923.626 936.903C922.342 936.531 921.094 935.991 921.094 934.395C921.094 932.811 922.414 931.899 923.854 931.899C925.234 931.899 926.29 932.607 926.854 933.783L925.462 934.587C925.162 933.951 924.706 933.507 923.854 933.507C923.158 933.507 922.75 933.867 922.75 934.347C922.75 934.863 923.074 935.139 924.346 935.523C925.678 935.943 927.094 936.387 927.094 938.103C927.094 939.675 925.834 940.635 924.046 940.635Z" fill="black"/>
<path d="M803.225 885.057H804.881V893.457H803.621L800.021 888.321V893.457H798.365V885.057H799.625L803.225 890.181V885.057ZM811.84 893.457L811.336 891.945H807.988L807.484 893.457H805.696L808.636 885.057H810.688L813.64 893.457H811.84ZM808.516 890.397H810.82L809.668 886.965L808.516 890.397ZM819.315 885.057H820.971V893.457H819.711L816.111 888.321V893.457H814.455V885.057H815.715L819.315 890.181V885.057ZM828.086 885.057V886.641H825.818V893.457H824.162V886.641H821.906V885.057H828.086ZM830.666 891.873H834.206V893.457H829.01V885.057H834.146V886.641H830.666V888.429H833.846V889.989H830.666V891.873ZM838.241 893.625C836.525 893.625 835.397 892.797 834.941 891.549L836.357 890.721C836.657 891.501 837.245 892.005 838.289 892.005C839.285 892.005 839.633 891.585 839.633 891.117C839.633 890.493 839.069 890.253 837.821 889.893C836.537 889.521 835.289 888.981 835.289 887.385C835.289 885.801 836.609 884.889 838.049 884.889C839.429 884.889 840.485 885.597 841.049 886.773L839.657 887.577C839.357 886.941 838.901 886.497 838.049 886.497C837.353 886.497 836.945 886.857 836.945 887.337C836.945 887.853 837.269 888.129 838.541 888.513C839.873 888.933 841.289 889.377 841.289 891.093C841.289 892.665 840.029 893.625 838.241 893.625ZM842.669 894.657H841.985L846.785 883.857H847.469L842.669 894.657Z" fill="black"/>
<path d="M809.813 921.441L808.121 918.525H806.861V921.441H805.205V913.041H808.565C810.113 913.041 811.361 914.289 811.361 915.825C811.361 916.881 810.701 917.829 809.741 918.273L811.601 921.441H809.813ZM806.861 914.589V917.073H808.565C809.189 917.073 809.705 916.521 809.705 915.825C809.705 915.129 809.189 914.589 808.565 914.589H806.861ZM814.232 919.857H817.772V921.441H812.576V913.041H817.712V914.625H814.232V916.413H817.412V917.973H814.232V919.857ZM823.799 913.041H825.455V921.441H824.195L820.595 916.305V921.441H818.939V913.041H820.199L823.799 918.165V913.041ZM831.873 913.041H833.529V921.441H832.269L828.669 916.305V921.441H827.013V913.041H828.273L831.873 918.165V913.041ZM836.744 919.857H840.284V921.441H835.088V913.041H840.224V914.625H836.744V916.413H839.924V917.973H836.744V919.857ZM844.319 921.609C842.603 921.609 841.475 920.781 841.019 919.533L842.435 918.705C842.735 919.485 843.323 919.989 844.367 919.989C845.363 919.989 845.711 919.569 845.711 919.101C845.711 918.477 845.147 918.237 843.899 917.877C842.615 917.505 841.367 916.965 841.367 915.369C841.367 913.785 842.687 912.873 844.127 912.873C845.507 912.873 846.563 913.581 847.127 914.757L845.735 915.561C845.435 914.925 844.979 914.481 844.127 914.481C843.431 914.481 843.023 914.841 843.023 915.321C843.023 915.837 843.347 916.113 844.619 916.497C845.951 916.917 847.367 917.361 847.367 919.077C847.367 920.649 846.107 921.609 844.319 921.609Z" fill="black"/>
<path d="M877.725 1393.26C878.397 1393.64 878.829 1394.3 878.829 1395.18C878.829 1396.62 877.665 1397.62 876.213 1397.62H872.649V1389.22H875.961C877.377 1389.22 878.517 1390.18 878.517 1391.58C878.517 1392.3 878.217 1392.86 877.725 1393.26ZM875.961 1390.76H874.305V1392.61H875.961C876.477 1392.61 876.861 1392.22 876.861 1391.69C876.861 1391.16 876.489 1390.76 875.961 1390.76ZM876.213 1396.07C876.777 1396.07 877.185 1395.65 877.185 1395.07C877.185 1394.51 876.777 1394.09 876.213 1394.09H874.305V1396.07H876.213ZM883.886 1397.78C881.462 1397.78 879.53 1395.86 879.53 1393.42C879.53 1390.96 881.462 1389.05 883.886 1389.05C886.31 1389.05 888.254 1390.96 888.254 1393.42C888.254 1395.86 886.31 1397.78 883.886 1397.78ZM883.886 1396.16C885.41 1396.16 886.598 1395.02 886.598 1393.42C886.598 1391.8 885.41 1390.66 883.886 1390.66C882.362 1390.66 881.174 1391.8 881.174 1393.42C881.174 1395.02 882.362 1396.16 883.886 1396.16ZM894.026 1397.62L892.334 1394.7H891.074V1397.62H889.418V1389.22H892.778C894.326 1389.22 895.574 1390.46 895.574 1392C895.574 1393.06 894.914 1394 893.954 1394.45L895.814 1397.62H894.026ZM891.074 1390.76V1393.25H892.778C893.402 1393.25 893.918 1392.7 893.918 1392C893.918 1391.3 893.402 1390.76 892.778 1390.76H891.074ZM900.125 1389.22C902.441 1389.22 904.169 1391.05 904.169 1393.42C904.169 1395.78 902.441 1397.62 900.125 1397.62H896.789V1389.22H900.125ZM900.125 1396.03C901.577 1396.03 902.585 1394.96 902.585 1393.42C902.585 1391.87 901.577 1390.8 900.125 1390.8H898.445V1396.03H900.125ZM907 1396.03H910.54V1397.62H905.344V1389.22H910.48V1390.8H907V1392.59H910.18V1394.15H907V1396.03ZM917.236 1397.62L916.732 1396.1H913.384L912.88 1397.62H911.092L914.032 1389.22H916.084L919.036 1397.62H917.236ZM913.912 1394.56H916.216L915.064 1391.12L913.912 1394.56ZM922.749 1397.78C920.913 1397.78 919.545 1396.68 919.545 1394.87V1389.22H921.189V1394.74C921.189 1395.55 921.621 1396.16 922.749 1396.16C923.877 1396.16 924.309 1395.55 924.309 1394.74V1389.22H925.965V1394.87C925.965 1396.68 924.597 1397.78 922.749 1397.78ZM933.724 1397.62H931.84L930.208 1394.88L928.576 1397.62H926.704L929.272 1393.31L926.836 1389.22H928.708L930.208 1391.74L931.708 1389.22H933.58L931.144 1393.3L933.724 1397.62ZM934.953 1398.82H934.269L939.069 1388.02H939.753L934.953 1398.82Z" fill="black"/>
<path d="M887.065 1417.2V1418.78H884.797V1425.6H883.141V1418.78H880.885V1417.2H887.065ZM891.481 1425.77C889.057 1425.77 887.125 1423.85 887.125 1421.4C887.125 1418.94 889.057 1417.03 891.481 1417.03C893.905 1417.03 895.849 1418.94 895.849 1421.4C895.849 1423.85 893.905 1425.77 891.481 1425.77ZM891.481 1424.15C893.005 1424.15 894.193 1423.01 894.193 1421.4C894.193 1419.78 893.005 1418.64 891.481 1418.64C889.957 1418.64 888.769 1419.78 888.769 1421.4C888.769 1423.01 889.957 1424.15 891.481 1424.15ZM900.086 1425.77C898.25 1425.77 896.882 1424.66 896.882 1422.85V1417.2H898.526V1422.72C898.526 1423.54 898.958 1424.15 900.086 1424.15C901.214 1424.15 901.646 1423.54 901.646 1422.72V1417.2H903.302V1422.85C903.302 1424.66 901.934 1425.77 900.086 1425.77ZM906.45 1424.02H909.654V1425.6H904.794V1417.2H906.45V1424.02ZM914.051 1425.77C911.627 1425.77 909.695 1423.85 909.695 1421.4C909.695 1418.94 911.627 1417.03 914.051 1417.03C916.475 1417.03 918.419 1418.94 918.419 1421.4C918.419 1423.85 916.475 1425.77 914.051 1425.77ZM914.051 1424.15C915.575 1424.15 916.763 1423.01 916.763 1421.4C916.763 1419.78 915.575 1418.64 914.051 1418.64C912.527 1418.64 911.339 1419.78 911.339 1421.4C911.339 1423.01 912.527 1424.15 914.051 1424.15ZM922.657 1425.77C920.821 1425.77 919.453 1424.66 919.453 1422.85V1417.2H921.097V1422.72C921.097 1423.54 921.529 1424.15 922.657 1424.15C923.785 1424.15 924.217 1423.54 924.217 1422.72V1417.2H925.873V1422.85C925.873 1424.66 924.505 1425.77 922.657 1425.77ZM930.232 1425.77C928.516 1425.77 927.388 1424.94 926.932 1423.69L928.348 1422.86C928.648 1423.64 929.236 1424.15 930.28 1424.15C931.276 1424.15 931.624 1423.73 931.624 1423.26C931.624 1422.64 931.06 1422.4 929.812 1422.04C928.528 1421.66 927.28 1421.12 927.28 1419.53C927.28 1417.94 928.6 1417.03 930.04 1417.03C931.42 1417.03 932.476 1417.74 933.04 1418.92L931.648 1419.72C931.348 1419.08 930.892 1418.64 930.04 1418.64C929.344 1418.64 928.936 1419 928.936 1419.48C928.936 1420 929.26 1420.27 930.532 1420.66C931.864 1421.08 933.28 1421.52 933.28 1423.24C933.28 1424.81 932.02 1425.77 930.232 1425.77ZM935.958 1424.02H939.498V1425.6H934.302V1417.2H939.438V1418.78H935.958V1420.57H939.138V1422.13H935.958V1424.02Z" fill="black"/>
<path d="M2111.35 1323.39H2114.56V1324.97H2109.7V1316.57H2111.35V1323.39ZM2121.05 1316.57L2118.17 1321.7V1324.97H2116.53V1321.7L2113.66 1316.57H2115.53L2117.36 1320.08L2119.18 1316.57H2121.05ZM2125.22 1325.14C2122.8 1325.14 2120.87 1323.22 2120.87 1320.77C2120.87 1318.31 2122.8 1316.41 2125.22 1316.41C2127.65 1316.41 2129.59 1318.31 2129.59 1320.77C2129.59 1323.22 2127.65 1325.14 2125.22 1325.14ZM2125.22 1323.52C2126.75 1323.52 2127.93 1322.38 2127.93 1320.77C2127.93 1319.15 2126.75 1318.01 2125.22 1318.01C2123.7 1318.01 2122.51 1319.15 2122.51 1320.77C2122.51 1322.38 2123.7 1323.52 2125.22 1323.52ZM2135.61 1316.57H2137.27V1324.97H2136.01L2132.41 1319.84V1324.97H2130.75V1316.57H2132.01L2135.61 1321.7V1316.57Z" fill="black"/>
<path d="M2322.73 729.221V730.805H2320.46V737.621H2318.81V730.805H2316.55V729.221H2322.73ZM2328.26 737.621L2326.57 734.705H2325.31V737.621H2323.66V729.221H2327.02C2328.56 729.221 2329.81 730.469 2329.81 732.005C2329.81 733.061 2329.15 734.009 2328.19 734.453L2330.05 737.621H2328.26ZM2325.31 730.769V733.253H2327.02C2327.64 733.253 2328.16 732.701 2328.16 732.005C2328.16 731.309 2327.64 730.769 2327.02 730.769H2325.31ZM2334.9 737.789C2332.48 737.789 2330.55 735.869 2330.55 733.421C2330.55 730.961 2332.48 729.053 2334.9 729.053C2337.33 729.053 2339.27 730.961 2339.27 733.421C2339.27 735.869 2337.33 737.789 2334.9 737.789ZM2334.9 736.169C2336.43 736.169 2337.62 735.029 2337.62 733.421C2337.62 731.801 2336.43 730.661 2334.9 730.661C2333.38 730.661 2332.19 731.801 2332.19 733.421C2332.19 735.029 2333.38 736.169 2334.9 736.169ZM2346.47 729.221L2343.59 734.345V737.621H2341.95V734.345L2339.08 729.221H2340.95L2342.78 732.725L2344.6 729.221H2346.47ZM2348.94 736.037H2352.48V737.621H2347.28V729.221H2352.42V730.805H2348.94V732.593H2352.12V734.153H2348.94V736.037ZM2356.51 737.789C2354.8 737.789 2353.67 736.961 2353.21 735.713L2354.63 734.885C2354.93 735.665 2355.52 736.169 2356.56 736.169C2357.56 736.169 2357.9 735.749 2357.9 735.281C2357.9 734.657 2357.34 734.417 2356.09 734.057C2354.81 733.685 2353.56 733.145 2353.56 731.549C2353.56 729.965 2354.88 729.053 2356.32 729.053C2357.7 729.053 2358.76 729.761 2359.32 730.937L2357.93 731.741C2357.63 731.105 2357.17 730.661 2356.32 730.661C2355.62 730.661 2355.22 731.021 2355.22 731.501C2355.22 732.017 2355.54 732.293 2356.81 732.677C2358.14 733.097 2359.56 733.541 2359.56 735.257C2359.56 736.829 2358.3 737.789 2356.51 737.789Z" fill="black"/>
<path d="M2237.96 510.694V519.094H2236.31V513.646L2233.95 517.546H2233.76L2231.39 513.658V519.094H2229.74V510.694H2231.44L2233.85 514.666L2236.25 510.694H2237.96ZM2244.92 519.094L2244.42 517.582H2241.07L2240.57 519.094H2238.78L2241.72 510.694H2243.77L2246.72 519.094H2244.92ZM2241.6 516.034H2243.9L2242.75 512.602L2241.6 516.034ZM2252.15 519.094L2250.45 516.178H2249.19V519.094H2247.54V510.694H2250.9C2252.45 510.694 2253.69 511.942 2253.69 513.478C2253.69 514.534 2253.03 515.482 2252.07 515.926L2253.93 519.094H2252.15ZM2249.19 512.242V514.726H2250.9C2251.52 514.726 2252.04 514.174 2252.04 513.478C2252.04 512.782 2251.52 512.242 2250.9 512.242H2249.19ZM2259.77 510.694H2261.42V519.094H2260.16L2256.56 513.958V519.094H2254.91V510.694H2256.17L2259.77 515.818V510.694ZM2264.64 517.51H2268.18V519.094H2262.98V510.694H2268.12V512.278H2264.64V514.066H2267.82V515.626H2264.64V517.51ZM2272.35 516.214V514.726H2276.85V516.214H2272.35ZM2280.06 517.51H2283.27V519.094H2278.41V510.694H2280.06V517.51ZM2289.84 519.094L2289.34 517.582H2285.99L2285.48 519.094H2283.7L2286.64 510.694H2288.69L2291.64 519.094H2289.84ZM2286.52 516.034H2288.82L2287.67 512.602L2286.52 516.034Z" fill="black"/>
<path d="M2223.13 547.078L2220.31 538.678H2222.11L2224.16 545.134L2226.2 538.678H2228.01L2225.18 547.078H2223.13ZM2233.74 547.078L2233.24 545.566H2229.89L2229.38 547.078H2227.6L2230.54 538.678H2232.59L2235.54 547.078H2233.74ZM2230.42 544.018H2232.72L2231.57 540.586L2230.42 544.018ZM2238.01 545.494H2241.22V547.078H2236.36V538.678H2238.01V545.494ZM2243.81 545.494H2247.02V547.078H2242.16V538.678H2243.81V545.494ZM2252.39 536.278L2251.05 537.922H2249.57L2250.53 536.278H2252.39ZM2249.61 545.494H2253.15V547.078H2247.96V538.678H2253.09V540.262H2249.61V542.05H2252.79V543.61H2249.61V545.494ZM2255.98 545.494H2259.52V547.078H2254.32V538.678H2259.46V540.262H2255.98V542.05H2259.16V543.61H2255.98V545.494ZM2271.9 538.678V547.078H2270.26V541.63L2267.9 545.53H2267.7L2265.34 541.642V547.078H2263.68V538.678H2265.39L2267.8 542.65L2270.2 538.678H2271.9ZM2275.13 545.494H2278.67V547.078H2273.47V538.678H2278.61V540.262H2275.13V542.05H2278.31V543.61H2275.13V545.494ZM2285.39 538.678V540.262H2283.12V547.078H2281.46V540.262H2279.21V538.678H2285.39ZM2288.08 545.494H2291.64V547.078H2285.97V545.758L2289.46 540.262H2286.05V538.678H2291.57V539.986L2288.08 545.494Z" fill="black"/>
<path d="M1519.17 1584.17C1516.75 1584.17 1514.81 1582.25 1514.81 1579.8C1514.81 1577.34 1516.75 1575.43 1519.17 1575.43C1521.59 1575.43 1523.54 1577.34 1523.54 1579.8C1523.54 1582.25 1521.59 1584.17 1519.17 1584.17ZM1519.17 1582.55C1520.69 1582.55 1521.88 1581.41 1521.88 1579.8C1521.88 1578.18 1520.69 1577.04 1519.17 1577.04C1517.65 1577.04 1516.46 1578.18 1516.46 1579.8C1516.46 1581.41 1517.65 1582.55 1519.17 1582.55ZM1529.31 1584L1527.62 1581.08H1526.36V1584H1524.7V1575.6H1528.06C1529.61 1575.6 1530.86 1576.85 1530.86 1578.38C1530.86 1579.44 1530.2 1580.39 1529.24 1580.83L1531.1 1584H1529.31ZM1526.36 1577.15V1579.63H1528.06C1528.69 1579.63 1529.2 1579.08 1529.2 1578.38C1529.2 1577.69 1528.69 1577.15 1528.06 1577.15H1526.36ZM1533.73 1582.42H1536.93V1584H1532.07V1575.6H1533.73V1582.42ZM1539.53 1582.42H1543.07V1584H1537.87V1575.6H1543.01V1577.18H1539.53V1578.97H1542.71V1580.53H1539.53V1582.42ZM1549.77 1584L1549.26 1582.49H1545.91L1545.41 1584H1543.62L1546.56 1575.6H1548.61L1551.57 1584H1549.77ZM1546.44 1580.94H1548.75L1547.59 1577.51L1546.44 1580.94ZM1557.24 1575.6H1558.9V1584H1557.64L1554.04 1578.86V1584H1552.38V1575.6H1553.64L1557.24 1580.72V1575.6ZM1563.19 1584.17C1561.48 1584.17 1560.35 1583.34 1559.89 1582.09L1561.31 1581.26C1561.61 1582.04 1562.2 1582.55 1563.24 1582.55C1564.24 1582.55 1564.59 1582.13 1564.59 1581.66C1564.59 1581.04 1564.02 1580.8 1562.77 1580.44C1561.49 1580.06 1560.24 1579.52 1560.24 1577.93C1560.24 1576.34 1561.56 1575.43 1563 1575.43C1564.38 1575.43 1565.44 1576.14 1566 1577.32L1564.61 1578.12C1564.31 1577.48 1563.85 1577.04 1563 1577.04C1562.31 1577.04 1561.9 1577.4 1561.9 1577.88C1561.9 1578.4 1562.22 1578.67 1563.49 1579.06C1564.83 1579.48 1566.24 1579.92 1566.24 1581.64C1566.24 1583.21 1564.98 1584.17 1563.19 1584.17Z" fill="black"/>
<path d="M998.62 534.776L996.928 531.86H995.668V534.776H994.012V526.376H997.372C998.92 526.376 1000.17 527.624 1000.17 529.16C1000.17 530.216 999.508 531.164 998.548 531.608L1000.41 534.776H998.62ZM995.668 527.924V530.408H997.372C997.996 530.408 998.512 529.856 998.512 529.16C998.512 528.464 997.996 527.924 997.372 527.924H995.668ZM1006.78 534.776L1006.28 533.264H1002.93L1002.43 534.776H1000.64L1003.58 526.376H1005.63L1008.58 534.776H1006.78ZM1003.46 531.716H1005.76L1004.61 528.284L1003.46 531.716ZM1017.62 526.376V534.776H1015.97V529.328L1013.61 533.228H1013.42L1011.05 529.34V534.776H1009.4V526.376H1011.1L1013.51 530.348L1015.91 526.376H1017.62ZM1024.26 530.42C1024.93 530.804 1025.36 531.464 1025.36 532.34C1025.36 533.78 1024.2 534.776 1022.75 534.776H1019.18V526.376H1022.5C1023.91 526.376 1025.05 527.336 1025.05 528.74C1025.05 529.46 1024.75 530.024 1024.26 530.42ZM1022.5 527.924H1020.84V529.772H1022.5C1023.01 529.772 1023.4 529.376 1023.4 528.848C1023.4 528.32 1023.02 527.924 1022.5 527.924ZM1022.75 533.228C1023.31 533.228 1023.72 532.808 1023.72 532.232C1023.72 531.668 1023.31 531.248 1022.75 531.248H1020.84V533.228H1022.75ZM1030.42 534.944C1028 534.944 1026.07 533.024 1026.07 530.576C1026.07 528.116 1028 526.208 1030.42 526.208C1032.85 526.208 1034.79 528.116 1034.79 530.576C1034.79 533.024 1032.85 534.944 1030.42 534.944ZM1030.42 533.324C1031.95 533.324 1033.13 532.184 1033.13 530.576C1033.13 528.956 1031.95 527.816 1030.42 527.816C1028.9 527.816 1027.71 528.956 1027.71 530.576C1027.71 532.184 1028.9 533.324 1030.42 533.324ZM1039.03 534.944C1037.19 534.944 1035.82 533.84 1035.82 532.028V526.376H1037.47V531.896C1037.47 532.712 1037.9 533.324 1039.03 533.324C1040.15 533.324 1040.59 532.712 1040.59 531.896V526.376H1042.24V532.028C1042.24 533.84 1040.87 534.944 1039.03 534.944ZM1043.73 526.376H1045.39V534.776H1043.73V526.376ZM1048.6 533.192H1051.81V534.776H1046.95V526.376H1048.6V533.192ZM1054.4 533.192H1057.61V534.776H1052.75V526.376H1054.4V533.192ZM1060.2 533.192H1063.74V534.776H1058.55V526.376H1063.68V527.96H1060.2V529.748H1063.38V531.308H1060.2V533.192ZM1070.47 526.376V527.96H1068.2V534.776H1066.54V527.96H1064.29V526.376H1070.47Z" fill="black"/>
<path d="M1482.12 240.75L1479.3 232.35H1481.1L1483.16 238.806L1485.2 232.35H1487.01L1484.18 240.75H1482.12ZM1489.47 239.166H1493.01V240.75H1487.82V232.35H1492.95V233.934H1489.47V235.722H1492.65V237.282H1489.47V239.166ZM1498.79 240.75L1497.1 237.834H1495.84V240.75H1494.18V232.35H1497.54C1499.09 232.35 1500.34 233.598 1500.34 235.134C1500.34 236.19 1499.68 237.138 1498.72 237.582L1500.58 240.75H1498.79ZM1495.84 233.898V236.382H1497.54C1498.16 236.382 1498.68 235.83 1498.68 235.134C1498.68 234.438 1498.16 233.898 1497.54 233.898H1495.84ZM1504.29 240.918C1502.57 240.918 1501.45 240.09 1500.99 238.842L1502.41 238.014C1502.71 238.794 1503.29 239.298 1504.34 239.298C1505.33 239.298 1505.68 238.878 1505.68 238.41C1505.68 237.786 1505.12 237.546 1503.87 237.186C1502.59 236.814 1501.34 236.274 1501.34 234.678C1501.34 233.094 1502.66 232.182 1504.1 232.182C1505.48 232.182 1506.53 232.89 1507.1 234.066L1505.71 234.87C1505.41 234.234 1504.95 233.79 1504.1 233.79C1503.4 233.79 1502.99 234.15 1502.99 234.63C1502.99 235.146 1503.32 235.422 1504.59 235.806C1505.92 236.226 1507.34 236.67 1507.34 238.386C1507.34 239.958 1506.08 240.918 1504.29 240.918ZM1513.69 240.75L1513.19 239.238H1509.84L1509.33 240.75H1507.55L1510.49 232.35H1512.54L1515.49 240.75H1513.69ZM1510.37 237.69H1512.67L1511.52 234.258L1510.37 237.69ZM1516.31 232.35H1517.96V240.75H1516.31V232.35ZM1521.17 239.166H1524.38V240.75H1519.52V232.35H1521.17V239.166ZM1526.97 239.166H1530.18V240.75H1525.32V232.35H1526.97V239.166ZM1532.77 239.166H1536.31V240.75H1531.12V232.35H1536.25V233.934H1532.77V235.722H1535.95V237.282H1532.77V239.166ZM1540.35 240.918C1538.63 240.918 1537.51 240.09 1537.05 238.842L1538.47 238.014C1538.77 238.794 1539.35 239.298 1540.4 239.298C1541.39 239.298 1541.74 238.878 1541.74 238.41C1541.74 237.786 1541.18 237.546 1539.93 237.186C1538.65 236.814 1537.4 236.274 1537.4 234.678C1537.4 233.094 1538.72 232.182 1540.16 232.182C1541.54 232.182 1542.59 232.89 1543.16 234.066L1541.77 234.87C1541.47 234.234 1541.01 233.79 1540.16 233.79C1539.46 233.79 1539.05 234.15 1539.05 234.63C1539.05 235.146 1539.38 235.422 1540.65 235.806C1541.98 236.226 1543.4 236.67 1543.4 238.386C1543.4 239.958 1542.14 240.918 1540.35 240.918Z" fill="black"/>
<path d="M1852.84 1236.06H1818.74V1270.16H1852.84V1236.06Z" fill="black"/>
<path d="M1846.21 1241.89H1823.79V1264.31H1846.21V1241.89Z" fill="white" stroke="#94B1AF" stroke-miterlimit="10"/>
<path d="M1892.15 1197.21H1780.95V1229.7H1892.15V1197.21Z" fill="white" stroke="#94B1AF" stroke-miterlimit="10"/>
<path d="M1806.99 1202.56V1210.96H1805.34V1205.51L1802.98 1209.41H1802.79L1800.42 1205.52V1210.96H1798.77V1202.56H1800.47L1802.88 1206.53L1805.28 1202.56H1806.99ZM1813.95 1210.96L1813.45 1209.45H1810.1L1809.6 1210.96H1807.81L1810.75 1202.56H1812.8L1815.75 1210.96H1813.95ZM1810.63 1207.9H1812.93L1811.78 1204.47L1810.63 1207.9ZM1816.57 1202.56H1818.22V1210.96H1816.57V1202.56ZM1822.52 1211.13C1820.8 1211.13 1819.67 1210.3 1819.22 1209.05L1820.63 1208.22C1820.93 1209 1821.52 1209.51 1822.57 1209.51C1823.56 1209.51 1823.91 1209.09 1823.91 1208.62C1823.91 1207.99 1823.35 1207.75 1822.1 1207.39C1820.81 1207.02 1819.57 1206.48 1819.57 1204.89C1819.57 1203.3 1820.89 1202.39 1822.33 1202.39C1823.71 1202.39 1824.76 1203.1 1825.33 1204.27L1823.93 1205.08C1823.63 1204.44 1823.18 1204 1822.33 1204C1821.63 1204 1821.22 1204.36 1821.22 1204.84C1821.22 1205.35 1821.55 1205.63 1822.82 1206.01C1824.15 1206.43 1825.57 1206.88 1825.57 1208.59C1825.57 1210.17 1824.31 1211.13 1822.52 1211.13ZM1829.26 1211.13C1827.54 1211.13 1826.41 1210.3 1825.96 1209.05L1827.37 1208.22C1827.67 1209 1828.26 1209.51 1829.3 1209.51C1830.3 1209.51 1830.65 1209.09 1830.65 1208.62C1830.65 1207.99 1830.08 1207.75 1828.84 1207.39C1827.55 1207.02 1826.3 1206.48 1826.3 1204.89C1826.3 1203.3 1827.62 1202.39 1829.06 1202.39C1830.44 1202.39 1831.5 1203.1 1832.06 1204.27L1830.67 1205.08C1830.37 1204.44 1829.92 1204 1829.06 1204C1828.37 1204 1827.96 1204.36 1827.96 1204.84C1827.96 1205.35 1828.28 1205.63 1829.56 1206.01C1830.89 1206.43 1832.3 1206.88 1832.3 1208.59C1832.3 1210.17 1831.04 1211.13 1829.26 1211.13ZM1834.98 1209.37H1838.52V1210.96H1833.33V1202.56H1838.46V1204.14H1834.98V1205.93H1838.16V1207.49H1834.98V1209.37Z" fill="black"/>
<path d="M2036.87 1118.02H1925.67V1178.13H2036.87V1118.02Z" fill="white" stroke="#94B1AF" stroke-miterlimit="10"/>
<path d="M1939.08 1124.3V1132.7H1937.43V1127.25L1935.07 1131.15H1934.88L1932.51 1127.27V1132.7H1930.86V1124.3H1932.56L1934.97 1128.27L1937.37 1124.3H1939.08ZM1940.64 1124.3H1942.3V1132.7H1940.64V1124.3ZM1945.51 1131.12H1948.71V1132.7H1943.85V1124.3H1945.51V1131.12ZM1951.31 1131.12H1954.51V1132.7H1949.65V1124.3H1951.31V1131.12ZM1961.01 1124.3L1958.13 1129.43V1132.7H1956.49V1129.43L1953.62 1124.3H1955.49L1957.32 1127.81L1959.14 1124.3H1961.01ZM1961.21 1129.82V1128.33H1965.71V1129.82H1961.21ZM1971.92 1131.12H1975.13V1132.7H1970.27V1124.3H1971.92V1131.12ZM1981.7 1132.7L1981.2 1131.19H1977.85L1977.35 1132.7H1975.56L1978.5 1124.3H1980.55L1983.5 1132.7H1981.7ZM1978.38 1129.64H1980.68L1979.53 1126.21L1978.38 1129.64Z" fill="black"/>
<path d="M1952.87 1153.87H1949.51V1155.86H1952.78V1157.45H1949.51V1160.69H1947.86V1152.29H1952.87V1153.87ZM1958.05 1160.85C1955.63 1160.85 1953.7 1158.93 1953.7 1156.49C1953.7 1154.03 1955.63 1152.12 1958.05 1152.12C1960.48 1152.12 1962.42 1154.03 1962.42 1156.49C1962.42 1158.93 1960.48 1160.85 1958.05 1160.85ZM1958.05 1159.23C1959.58 1159.23 1960.76 1158.09 1960.76 1156.49C1960.76 1154.87 1959.58 1153.73 1958.05 1153.73C1956.53 1153.73 1955.34 1154.87 1955.34 1156.49C1955.34 1158.09 1956.53 1159.23 1958.05 1159.23ZM1968.19 1160.69L1966.5 1157.77H1965.24V1160.69H1963.58V1152.29H1966.94C1968.49 1152.29 1969.74 1153.53 1969.74 1155.07C1969.74 1156.13 1969.08 1157.07 1968.12 1157.52L1969.98 1160.69H1968.19ZM1965.24 1153.83V1156.32H1966.94C1967.57 1156.32 1968.08 1155.77 1968.08 1155.07C1968.08 1154.37 1967.57 1153.83 1966.94 1153.83H1965.24ZM1972.61 1159.1H1976.15V1160.69H1970.96V1152.29H1976.09V1153.87H1972.61V1155.66H1975.79V1157.22H1972.61V1159.1ZM1982.87 1152.29V1153.87H1980.61V1160.69H1978.95V1153.87H1976.69V1152.29H1982.87Z" fill="black"/>
<path d="M2005.21 1184.13H1971.11V1218.24H2005.21V1184.13Z" fill="black"/>
<path d="M1998.59 1189.96H1976.17V1212.39H1998.59V1189.96Z" fill="white" stroke="#94B1AF" stroke-miterlimit="10"/>
<path d="M1844.62 917.195H1733.42V977.303H1844.62V917.195Z" fill="white" stroke="#94B1AF" stroke-miterlimit="10"/>
<path d="M1743.96 930.273H1747.16V931.857H1742.3V923.457H1743.96V930.273ZM1753.74 931.857L1753.23 930.345H1749.89L1749.38 931.857H1747.59L1750.53 923.457H1752.59L1755.54 931.857H1753.74ZM1750.41 928.797H1752.72L1751.57 925.365L1750.41 928.797ZM1764.37 925.041H1761.01V927.033H1764.27V928.617H1761.01V931.857H1759.35V923.457H1764.37V925.041ZM1767.23 930.273H1770.77V931.857H1765.58V923.457H1770.71V925.041H1767.23V926.829H1770.41V928.389H1767.23V930.273ZM1776.55 931.857L1774.85 928.941H1773.59V931.857H1771.94V923.457H1775.3C1776.85 923.457 1778.09 924.705 1778.09 926.241C1778.09 927.297 1777.43 928.245 1776.47 928.689L1778.33 931.857H1776.55ZM1773.59 925.005V927.489H1775.3C1775.92 927.489 1776.44 926.937 1776.44 926.241C1776.44 925.545 1775.92 925.005 1775.3 925.005H1773.59ZM1784.69 923.457V925.041H1782.42V931.857H1780.77V925.041H1778.51V923.457H1784.69ZM1790.04 921.057L1788.71 922.701H1787.22L1788.18 921.057H1790.04ZM1787.27 930.273H1790.81V931.857H1785.61V923.457H1790.75V925.041H1787.27V926.829H1790.45V928.389H1787.27V930.273Z" fill="black"/>
<path d="M1764.72 959.842L1764.22 958.33H1760.87L1760.37 959.842H1758.58L1761.52 951.442H1763.57L1766.52 959.842H1764.72ZM1761.4 956.782H1763.7L1762.55 953.35L1761.4 956.782ZM1768.99 958.258H1772.2V959.842H1767.34V951.442H1768.99V958.258ZM1778.77 959.842L1778.27 958.33H1774.92L1774.42 959.842H1772.63L1775.57 951.442H1777.62L1780.57 959.842H1778.77ZM1775.45 956.782H1777.75L1776.6 953.35L1775.45 956.782ZM1781.39 951.442H1783.05V959.842H1781.39V951.442ZM1787.34 960.01C1785.62 960.01 1784.5 959.182 1784.04 957.934L1785.46 957.106C1785.76 957.886 1786.34 958.39 1787.39 958.39C1788.38 958.39 1788.73 957.97 1788.73 957.502C1788.73 956.878 1788.17 956.638 1786.92 956.278C1785.64 955.906 1784.39 955.366 1784.39 953.77C1784.39 952.186 1785.71 951.274 1787.15 951.274C1788.53 951.274 1789.58 951.982 1790.15 953.158L1788.76 953.962C1788.46 953.326 1788 952.882 1787.15 952.882C1786.45 952.882 1786.04 953.242 1786.04 953.722C1786.04 954.238 1786.37 954.514 1787.64 954.898C1788.97 955.318 1790.39 955.762 1790.39 957.478C1790.39 959.05 1789.13 960.01 1787.34 960.01Z" fill="black"/>
<path d="M1812.97 983.308H1778.87V1017.41H1812.97V983.308Z" fill="black"/>
<path d="M1806.34 989.118H1783.92V1011.54H1806.34V989.118Z" fill="white" stroke="#94B1AF" stroke-miterlimit="10"/>
</svg>
