<svg width="5553" height="3471" viewBox="0 0 5553 3471" fill="none" xmlns="http://www.w3.org/2000/svg">
<path d="M4209.41 2449.37C4209.41 2449.37 4142.5 2385.12 4104.52 2313.92C4104.52 2313.92 4074.09 2311.34 4064.91 2306.6L4073.82 2299L4069.62 2279.1L4077.68 2264.98L4058.63 2247.43L4075.13 2223.29L4062.17 2212.61L4075.13 2202.7L4042.08 2168.1L4049.45 2157.92L4071.82 2147.24L4054.27 2119.28L4078.91 2111.64L4057.82 2090.27L4066.45 2078.09L4053.23 2064.36L4067.73 2053.67L4055.77 2026.72L4085.5 2011.21L4082.96 1992.16L4096.69 1965.97L4086.01 1960.11C4086.01 1960.11 4115.74 1934.93 4090.6 1904.19L4079.14 1906.47L4077.6 1867.55L4043.78 1865.78L4040.73 1850L4050.37 1828.14L4041.23 1814.41L4053.69 1809.59L4057.24 1794.58L4069.96 1786.72L4061.06 1778.08L4071.74 1774.76L4088.78 1736.12L4049.87 1735.35L4048.87 1716.8L4058.51 1719.07L4070.2 1705.84L4069.69 1693.12L4097.92 1656.52L4098.92 1644.06L4117.74 1635.42L4120.02 1618.14L4113.42 1600.59L4128.69 1590.68L4155.65 1591.69L4155.15 1577.45L4125.65 1577.18L4124.65 1561.68L4113.73 1547.68L4111.96 1520.99L4130.28 1513.36L4142.46 1513.09L4167.1 1496.58L4171.92 1479.53L4180.06 1464.8L4190.24 1455.66L4196.83 1433.02L4198.38 1420.29L4190.74 1402.52L4187.7 1386.51L4145.51 1381.42L4137.37 1376.33L4140.42 1338.46L4102.78 1299.04L4122.37 1282.77L4160.01 1280.72L4184.15 1277.68L4193.29 1265.22L4186.69 1246.9L4190.51 1232.67L4192.28 1212.34L4214.42 1189.47L4204.24 1184.65H4190.01L4162.28 1155.92L4175.74 1144.47L4169.15 1127.69L4185.42 1118.78L4206.78 1082.68L4217.2 1096.14L4228.38 1081.14L4226.84 1070.46L4241.57 1060.81L4256.07 1086L4262.66 1102.27L4277.66 1106.09L4291.66 1099.23L4286.34 1069.72L4300.57 1057L4312.25 1052.41L4331.07 1051.64L4337.66 1044.77L4318.85 1013.49L4320.89 991.356L4307.66 979.902L4271.84 979.632L4258.11 991.318L4238.02 997.913L4213.88 994.095L4220.74 986.227L4211.84 974.773L4203.97 974.001L4201.69 967.406L4192.79 956.222L4198.38 944.035L4192.28 938.443L4185.42 938.713L4170.92 950.167L4171.69 934.895L4169.92 932.851L4155.69 940.487L4140.69 916.344L4151.1 911.755L4148.05 899.568L4137.87 888.383L4126.42 887.111L4122.87 880.246L4107.6 856.874L4109.64 837.552L4105.6 824.594L4104.59 793.586L4088.32 767.901L4078.41 768.672L4074.09 758.761H4059.36L4018.44 782.672L4006.99 784.215L3985.63 796.402L3966.58 797.675L3943.94 802.765L3937.85 800.49L3941.67 792.352L3936.85 785.989L3927.71 802.495L3919.84 807.586L3915.25 817.999L3902.29 815.724L3900.02 833.503L3896.97 832.5L3897.47 821.046L3891.11 815.955L3882.7 826.869L3877.88 827.641L3877.11 847.734L3887.02 857.376L3882.7 865.513L3864.93 844.649L3857.06 826.33L3863.15 816.919L3849.43 806.738L3833.42 816.148L3805.97 820.969L3786.65 830.379L3767.6 845.883L3760.23 837.475L3764.82 827.564L3754.14 823.746L3751.86 803.652L3723.4 802.11L3710.45 815.839L3709.94 830.341L3685.8 823.746L3673.62 833.156L3666.48 839.018L3651.75 836.203L3619.98 838.478L3616.16 833.657L3612.84 701.952L3594.3 703.225L3591.25 716.183L3580.84 720.503L3570.16 741.869L3542.97 729.142H3532.29L3525.69 733.731L3505.87 724.089L3504.1 712.134L3462.14 673.22L3463.14 683.401L3457.05 692.812L3448.92 690.768L3444.6 704.767L3432.41 713.908L3433.18 732.96L3426.32 747.692L3430.37 752.282L3441.28 746.188L3445.6 751.009L3434.69 765.009L3428.59 782.556L3423.27 786.374L3412.59 789.923L3392 788.149L3386.41 757.912L3387.95 733.77L3383.36 733.268L3362.27 750.546L3331.49 762.733L3315.99 770.871L3294.13 735.042L3304.81 724.128L3333.03 706.85L3331.76 691.578L3297.71 659.529L3298.98 649.617L3277.62 644.796L3277.89 637.931L3285.76 631.067L3271.76 620.885L3261.08 630.527L3246.58 631.529L3231.85 627.21L3210.48 630.257L3195.75 618.571L3174.2 609.893L3164.17 590.687L3143.31 581.933L3116.2 582.357L3076.98 592.808L3047.36 597.398L3032.32 611.166L3018.13 622.428L3021.06 634.499L3013.54 648.73L3015.67 656.636L3008.53 662.614L2999.66 661.843L2981 639.705L2973.29 641.827L2960.56 648.769L2941.9 652.24L2915.33 684.404L2885.09 663.617L2854.67 689.418L2851.2 704.228L2838.28 702.299L2833.46 711.941L2847.49 724.668L2826.13 746.805L2799.56 746.227L2793.58 731.803L2775.31 723.896L2762.97 732.188L2754.87 736.238L2740.25 737.202L2724.67 744.723L2704.85 761.653L2721.78 773.609L2718.5 781.515L2733.7 793.856L2747.15 810.787L2751.2 826.947L2729.45 839.481L2746.38 862.582L2712.49 922.283L2697.87 925.176L2696.37 938.79L2705.08 945.809L2699.3 949.666L2700.03 965.594L2689.89 966.095L2675.62 946.272L2661.12 958.112V969.952L2659.66 992.166L2646.12 1013.19L2610.6 987.808L2592.25 998.453L2592.75 1010.52L2560.86 1008.09L2546.13 1000.11L2529.93 1001.81L2516.4 1026.22L2516.9 1038.29L2487.17 1039.02L2487.9 1078.17L2471.97 1120.44L2471.01 1154.99L2450.96 1146.78L2445.87 1154.76L2433.29 1146.55L2417.1 1144.62L2415.63 1184.23L2408.15 1196.3L2423.38 1203.32L2439.08 1219.75L2427.97 1237.14L2451.42 1230.39L2478.72 1229.89L2505.79 1237.37L2493.22 1258.62L2497.58 1280.84L2502.4 1287.86L2512.54 1288.36L2512.04 1306.72L2531.59 1323.61L2534.48 1338.11L2555.5 1340.04L2555.73 1353.07L2579.64 1359.36L2578.44 1365.88L2570.46 1375.06L2554.53 1382.08L2555.27 1387.4L2568.57 1386.66L2567.61 1391.25L2559.16 1399.24L2541.77 1403.83L2521.26 1412.54L2505.06 1416.63L2487.67 1415.9L2489.6 1438.61L2478.26 1473.9L2487.67 1477.3L2496.85 1476.33L2497.58 1497.35L2485.28 1505.8L2476.33 1515.21L2473.9 1533.1L2448.8 1548.57L2450.72 1568.39L2431.17 1602.95L2433.1 1615.52L2429.48 1622.77L2431.91 1659.72L2420.8 1662.84L2396.66 1671.06L2370.32 1671.79L2358.25 1661.41L2344.48 1669.4L2329.52 1659.72L2316.22 1657.29L2315.72 1673.95L2301.22 1679.73L2281.17 1652.43L2252.44 1643.25L2212.33 1650.96L2195.44 1640.82L2188.19 1642.98L2167.91 1632.84L2162.12 1640.82L2162.86 1677.07L2155.37 1702.91L2164.78 1719.34L2182.18 1726.59V1737.7L2189.89 1734.3L2197.37 1732.38L2210.67 1712.82L2215.99 1716.22L2203.92 1738.43L2209.71 1750.5L2240.13 1771.29L2253.67 1776.11L2266.97 1788.18L2273.99 1781.66L2266.51 1765.24L2281.01 1759.45L2292.62 1767.43L2301.8 1780.24L2298.4 1796.44L2302.99 1809.47L2302.76 1821.54L2290.46 1815.99L2269.94 1816.95L2264.39 1808.97L2250.86 1807.27L2232.96 1824.43L2232.23 1838.2L2216.77 1829.76L2218.23 1844.99L2201.8 1853.71L2193.59 1866.28L2200.84 1876.65L2200.61 1882.21L2194.55 1883.67L2186.57 1886.57L2197.45 1897.67L2182.21 1910.71L2153.21 1977.39L2151.29 1999.6L2158.04 2007.59L2150.32 2021.86V2050.86L2134.13 2047.47L2118.89 2055.91L2111.64 2069.45L2097.65 2078.4L2089.66 2102.81L2099.07 2111.52L2090.86 2136.63L2114.54 2155.49V2165.87L2137.98 2168.03L2139.91 2174.54L2136.05 2179.13L2145.46 2186.15L2133.63 2199.46L2150.28 2206.21L2146.89 2229.89L2154.87 2235.44L2150.52 2244.16L2159.46 2249.94L2169.37 2245.85L2187.5 2248.75L2176.39 2258.89L2174.23 2270.23L2159 2280.87L2173.73 2290.55L2163.36 2312.77L2177.86 2333.05L2174.46 2354.57L2162.39 2357L2146.47 2352.41L2149.36 2371.5L2137.29 2373.2L2126.65 2386L2130.5 2394.45L2146.93 2399.04L2150.05 2404.13L2135.32 2425.65L2145 2433.13L2157.07 2437.72L2185.8 2425.88L2216.73 2423.72L2279.04 2446.67L2299.56 2447.4L2304.88 2445.94L2301.03 2454.65L2291.85 2466.26L2288.96 2477.87L2289.19 2491.64L2290.88 2508.53L2280.97 2518.44L2279.78 2529.09L2265.51 2546.25L2265.28 2554.46L2300.79 2557.59L2307.54 2566.03L2310.2 2572.55L2306.12 2584.39L2313.83 2593.8L2305.85 2612.66L2324.43 2614.59L2322.74 2628.36L2335.04 2639.7L2334.54 2645.98L2293.7 2670.12L2283.56 2680.5L2292.73 2727.36L2284.52 2739.43L2270.52 2749.34L2273.65 2758.29L2312.29 2810.24L2312.52 2819.65L2288.61 2844.75L2311.09 2866.27L2303.84 2874.26L2305.04 2888.53L2291.73 2896.24L2283.29 2881.74L2237.17 2917.99V2930.57L2246.84 2937.31L2256.25 2976.46L2262.04 2980.55L2282.82 2977.42L2296.59 2981.28L2312.05 2982.24L2318.11 2988.53L2315.95 2996.01L2300.02 2999.41L2287.45 2991.92L2286.95 3006.19L2294.85 3020.54H2319.15L2337.66 3027.14L2370.17 3026.71H2392.8L2400.21 3029.6L2392.38 3038.67L2444.63 3031.69L2462.76 3016.88L2493.22 3022.24L2509.69 3037.05L2547.13 3010.28L2551.26 2983.94L2609.29 2992.16L2674.73 2986.8L2676.39 2967.86L2710.56 2941.94L2713.84 2928.79L2754.17 2924.66L2746.34 2979L2832.76 2965.01L2878.42 2966.24L2924.5 2971.18L2920.8 2949.35L2911.74 2938.66L2896.51 2938.24L2881.7 2882.28L2938.89 2894.62L2950.42 2881.47L2980.46 2900.41L2996.08 2855.98L2984.97 2840.36L3004.71 2822.23L3005.14 2796.31L3055.77 2767.08L3062.75 2749.38L3048.37 2737.46L3066.88 2732.1L3073.86 2748.14L3087.01 2758.02L3095.64 2786.4L3105.09 2790.11L3114.96 2779L3129.77 2783.51L3144.16 2812.32L3159.39 2822.19L3164.75 2815.21L3159 2806.57L3175.04 2795.89L3187.81 2805.34L3191.09 2797.93L3203.43 2808.62L3195.6 2837.85L3172.15 2876.53L3223.17 2876.96L3200.11 2911.94L3201.77 2937.47L3194.36 2952.28L3194.79 2966.28L3226.06 2959.68L3242.1 2925.13H3253.63L3261.46 2918.15L3253.63 2907.46L3272.99 2887.29L3289.46 2900.44L3321.16 2895.08L3356.94 2917.72L3370.09 2918.15L3381.62 2905L3378.73 2891.42L3422.35 2808.27L3435.5 2802.1L3440.43 2808.69L3458.13 2798.4L3463.49 2812.78L3477.07 2796.74L3474.6 2829.25L3497.66 2824.74L3523.19 2876.61H3542.93L3551.57 2886.91L3564.33 2891.03L3578.72 2921.5L3605.48 2900.1L3612.88 2919.03L3633.48 2914.1L3650.75 2905.46L3681.22 2900.95L3691.09 2890.26L3703.85 2893.16L3720.74 2855.28L3706.36 2843.37L3691.97 2816.21L3696.49 2801.41L3691.55 2779.58L3705.55 2789.45L3728.61 2792.73L3746.73 2779.96L3772.65 2774.6L3800.22 2774.18L3815.03 2773.75L3823.24 2783.2L3826.94 2777.84L3824.05 2755.63L3812.52 2732.56L3816.22 2718.18L3831.46 2692.65L3853.67 2697.58L3863.11 2673.71L3848.31 2667.54L3839.67 2656.01L3825.67 2664.22L3813.75 2648.99L3859.84 2612.35L3872.6 2618.95L3875.07 2627.16L3885.37 2620.57L3877.54 2601.63L3880.82 2587.63L3911.28 2576.95L3946.68 2575.71L4000.17 2542.78L3990.72 2527.16L3965.19 2509.46L3966 2503.29L3995.62 2481.46L3996.04 2469.92L4029.36 2478.99L4044.59 2471.16L4055.27 2480.22L4052.38 2489.29L4065.95 2492.99L4105.44 2456.77L4115.74 2456.35L4126.84 2430.82L4160.59 2436.56L4209.48 2449.33L4209.41 2449.37Z" stroke="#94B1AF" stroke-width="3" stroke-miterlimit="10"/>
<path d="M3715.77 1268.92L3680.75 1233.28L3637.68 1168.42L3580.26 1112.73L3553.27 1104.09L3529.16 1087.46L3511.35 1065.06L3476.91 1036.9L3438.43 966.288L3391.92 916.306L3395.39 896.791L3346.18 883.562L3344.33 913.182L3337.28 927.953L3338.78 1007.86L3261.46 1301.9L3269.6 1305.06L3265.05 1317.55L3270.02 1320.25L3297.9 1327.97L3350.39 1326.27L3384.52 1316.7L3407.61 1312.77L3505.64 1313.58L3528.74 1308.18L3676.51 1321.91L3706.71 1311.31L3711.91 1302.74L3715.77 1268.92Z" stroke="#94B1AF" stroke-miterlimit="10"/>
<path d="M3248.16 1304.06L3216.15 1284.27L3201.46 1283L3155.57 1287.24L3116.85 1269.11L3072.66 1257.35L3053.73 1245.13L3033.09 1216.09L3010.34 1202.32L2981.65 1171.58V1166.03L2998.62 1149.33L3032.55 1092.83L3055.38 1066.21L3125.07 989.236L3163.71 965.517L3197.37 949.127L3213.45 929.496L3236.86 849.586L3278.43 868.329L3314.72 877.393L3333.15 888.808L3332.26 914.879L3327.6 922.786L3330.22 1006.48L3252.36 1300.66L3248.16 1304.06Z" stroke="#94B1AF" stroke-miterlimit="10"/>
<path d="M3247.27 1319.44L3245.5 1328.74L3196.79 1446.52L3168.18 1443.2L3155.61 1437.84L3071.27 1421.07L2939.7 1377.95L2918.33 1372.24L2903.06 1344.78H2874.06L2833.65 1334.1" stroke="#94B1AF" stroke-miterlimit="10"/>
<path d="M2830.87 1340.69L2871.06 1352.03L2898.82 1352.3L2912.86 1378.49L3072.04 1429.55L3155.88 1446.48L3155.34 1456.01L3133.13 1465.26L3100.08 1466.04L3066.49 1483.78L3045.36 1498.32L3018.36 1506.49L3007.53 1513.12L2969.97 1525.27L2961.25 1528.67L2955.97 1558.06L2930.21 1582.54L2926.62 1594.35L2924.46 1601.75L2913.28 1613.55L2906.84 1614.79L2900.75 1622.35L2885.09 1644.64L2860.45 1662.15L2829.33 1659.1L2814.1 1673.14L2808.39 1675.22L2791.93 1676.49L2777.73 1680.7L2739.06 1719.03L2725.17 1721.38L2705.47 1729.91L2703.81 1733.07L2645.85 1746.22L2601.7 1772.72L2533.94 1790.42L2516.36 1790.57" stroke="#94B1AF" stroke-miterlimit="10"/>
<path d="M2517.21 1801.1L2528.12 1801.03L2606.56 1779.35L2648.51 1754.32L2710.56 1740.21L2711.99 1736.7L2729.69 1728.91L2741.33 1727.86L2779.82 1688.26L2794.97 1683.67L2817.88 1681.97L2832.38 1667.58L2860.14 1670.67L2889.22 1652.43L2910 1620.76L2917.6 1619.18L2932.22 1602.21L2935.96 1586.25L2962.72 1561.03L2967.66 1532.83L3010.27 1519.84L3021.3 1512.7L3048.06 1505.03L3070.31 1490.02L3099.96 1474.17L3131.78 1474.25L3162.59 1461.56L3163.55 1449.88L3191.74 1455.51L3190.55 1464.61L3155.07 1509L3159.47 1579.11L3152.99 1581L3130.5 1610.47L3089.82 1610.85" stroke="#94B1AF" stroke-miterlimit="10"/>
<path d="M3091.44 1619.07L3133.28 1618.68L3146.47 1603.29L3148.55 1605.3L3074.24 1750.58L3042 1923.2L3045.05 1963.66L3022.45 2024.06L2974.98 2137.67L2953.69 2189.2L2960.06 2235.05L2940.04 2270.96L2925.08 2264.75L2913.63 2256.07L2897.01 2250.56L2886.52 2240.72L2859.83 2248.78L2735.55 2218.28L2678.94 2162.97L2541.85 2057.8L2520.98 2051.86L2521.99 2034.08L2535.18 2026.64L2535.06 2016.69L2523.65 2010.4L2512.31 2011.02L2506.56 2003.73L2486.36 1944.76L2465.38 1929.34L2455.54 1916.19L2455.74 1910.01L2441.51 1860.46L2441.16 1848.62" stroke="#94B1AF" stroke-miterlimit="10"/>
<path d="M2433.33 1848L2433.45 1860.07L2447.45 1910.59L2447.52 1917.92L2437.27 1933.15L2414.48 1950.89L2414.78 1958.22L2339.59 2015.03L2268.59 2109.21L2225.52 2206.9L2179.13 2207.09L2088.39 2172.73" stroke="#94B1AF" stroke-miterlimit="10"/>
<path d="M2088.24 2181.49L2177.55 2214.23L2222.28 2214.27L2361.1 2869.71L2350.77 2885.33" stroke="#94B1AF" stroke-miterlimit="10"/>
<path d="M2344.6 2930.06L2344.79 2952.24L2305.11 3024.48L2295.36 3061.89" stroke="#94B1AF" stroke-miterlimit="10"/>
<path d="M2304.69 3062.58L2314.44 3025.17L2352.62 2955.63L2352.77 2930.76" stroke="#94B1AF" stroke-miterlimit="10"/>
<path d="M2359.29 2883.32L2368.93 2873.49L2414.21 2855.21L2485.12 2795.81L2497 2779.77L2520.41 2710L2557.93 2690.6L2572.54 2676.49L2598.26 2645.91L2644.85 2601.55L2690.93 2545.17L2740.71 2508.53L2776.08 2470.89L2827.4 2354.23L2850.58 2338.45L2895.08 2320.9L2927.2 2308.95L2944.09 2285.85" stroke="#94B1AF" stroke-miterlimit="10"/>
<path d="M2718.39 2211.18L2648.9 2188.16L2571.12 2167.06L2443.24 2179.9L2327.94 2208.52L2254.83 2201.39L2233.08 2206.98L2277.96 2111.72L2345.26 2021.05L2422.81 1961.54L2422.23 1955.64L2441.74 1941.45L2452.11 1927.6L2464.92 1939.33L2478.18 1948.35L2498.43 2005.27L2508.76 2017.85L2522.53 2018.81L2526.04 2019.85L2526.35 2023.05L2514.82 2028.57L2513.43 2054.18L2518.05 2059.54L2537.53 2064.47L2718.39 2211.18Z" stroke="#94B1AF" stroke-miterlimit="10"/>
<path d="M2857.17 2256.07L2731.96 2226.99L2570.88 2175.28L2448.02 2187.58L2327.17 2215.58L2252.4 2208.64L2232.54 2216.89L2366.81 2865.2L2409.92 2848.3L2478.76 2791.3L2488.98 2776.65L2510.92 2710.5L2521.56 2699.28L2552.84 2684.05L2571.81 2664.69L2593.02 2638.04L2637.79 2593.92L2678.71 2542.55L2692.01 2532.44L2740.71 2496.73L2765.36 2468.5L2821.31 2349.17L2848.3 2330.12L2890.68 2312.46L2914.75 2305.32" stroke="#94B1AF" stroke-miterlimit="10"/>
<path d="M2992.45 2298.61L2969.58 2348.25L2971.51 2404.9L2919.22 2603.79L2917.29 2652.92L3015.7 2787.91L3038.96 2850.15L3041.62 2980.9L3064.41 3032.54L3070.96 3071.26" stroke="#94B1AF" stroke-miterlimit="10"/>
<path d="M3078.83 3069.91L3072.28 3031.69L3050.6 2979.78L3047.25 2845.84L3022.76 2782.47L2925.24 2650.92L2928.01 2602.29L2979.07 2405.1L2976.79 2350.37L3000.47 2301.24" stroke="#94B1AF" stroke-miterlimit="10"/>
<path d="M3010.65 2287.89L3051.8 2282.22L3071.93 2292.02L3101.35 2321.48L3109.41 2332.01L3121.56 2339.53L3138.33 2339.07L3168.53 2328.5L3187.08 2328.31L3256.91 2302.58L3262.23 2305.48L3282.83 2304.4L3323.74 2333.48L3377.23 2413.62L3455.66 2426.42L3506.06 2463.02L3558.97 2483.73" stroke="#94B1AF" stroke-miterlimit="10"/>
<path d="M3558.9 2476.64L3513.39 2459.13L3458.83 2417.86L3381.58 2406.52L3328.99 2327.81L3285.72 2297.03L3264.82 2297.8L3258.61 2294.06L3185.57 2321.56L3166.41 2321.44L3137.64 2330.85L3124.41 2331.86L3114.35 2325.49L3075.67 2285.81L3058.24 2276.86L3070.19 2266.72L3075.67 2253.72L3115.89 2242.73L3148.01 2213.53L3155.03 2208.48L3232.89 2190.93L3253.56 2168.64L3269.95 2158.19L3282.13 2138.06L3319.31 2117.97L3326.79 2100.53L3387.37 2091.08L3497.5 2033.2L3508.11 2033.12L3525.35 2019.08L3548.79 2004.85" stroke="#94B1AF" stroke-miterlimit="10"/>
<path d="M3544.7 1999.37L3521.37 2012.72L3507.34 2024.94L3495.96 2025.41L3386.37 2083.8L3321.74 2094.25L3312.94 2113.84L3277.39 2132.31L3264.62 2151.79L3250.55 2160.2L3229.53 2183.37L3151.17 2201.58L3111.99 2236.13L3071 2246.89L3064.6 2263.01L3049.52 2275.59L3011.08 2280.25" stroke="#94B1AF" stroke-miterlimit="10"/>
<path d="M3714.11 2490.56L3731 2483.15L3774.61 2480.92L3794.55 2476.25L3824.51 2475.25L3885.67 2456.58L3902.06 2430.7L3902.8 2421.25L3927.4 2408.64" stroke="#94B1AF" stroke-miterlimit="10"/>
<path d="M3924.62 2400.08L3894.74 2418.05L3893.93 2431.13L3881.51 2449.29L3823.2 2467.57L3794.78 2468L3773.26 2472.74L3729.69 2475.36L3718.54 2480.49" stroke="#94B1AF" stroke-miterlimit="10"/>
<path d="M3948.61 2437.72L3952.23 2445.09L3950.42 2459.59L3932.45 2496.07L3965.85 2558.78L3947.84 2623.92L3930.1 2653.35L3921.5 2659.56L3896.97 2683.59L3896.74 2726.66L3910.93 2731.37L3872.25 2821" stroke="#94B1AF" stroke-miterlimit="10"/>
<path d="M3882.82 2821.11L3919.15 2738.77L3918.72 2723.39L3904.69 2721.3L3904.61 2685.01L3926.4 2664.42L3932.41 2660.25L3953.58 2628.13L3974.87 2556.08L3940.43 2494.53L3958.02 2463.25L3960.87 2443.97" stroke="#94B1AF" stroke-miterlimit="10"/>
<path d="M3971.71 2439.81L3974.91 2446.67L4001.05 2455.5L4029.59 2455.23L4055.89 2449.33L4068.96 2438.53L4108.1 2431.59L4143.62 2440L4168.72 2439.77L4228.8 2456.47L4255.49 2427.66L4273.69 2394.53L4307.47 2387.93L4331.65 2389.9L4414.02 2375.28L4492.19 2380.49L4574.9 2403.21L4602.82 2402.63L4623.26 2407.14" stroke="#94B1AF" stroke-miterlimit="10"/>
<path d="M4625.88 2398.19L4604.36 2394.18L4576.56 2396.15L4499.63 2375.4L4416.06 2367.76L4330.65 2382.07L4305.77 2380.64L4270.41 2388.13L4249.67 2422.91L4225.02 2445.94L4162.48 2429.66L4132.98 2430.36L4107.64 2424.3L4067.23 2431.44L4052.57 2441.27L4029.86 2448.21L3999.93 2446.4L3983.43 2442.35" stroke="#94B1AF" stroke-miterlimit="10"/>
<path d="M3937.62 2334.17L3936.96 2317.24L3922.23 2309.18L3917.1 2309.72L3912.86 2294.64L3911.09 2268.72L3932.8 2233.86L3974.98 2133.86L3964.38 2102.12L3964.77 2061.58L3957.32 2034.16L3996.35 1957.8L4007.22 1887.65L4019.91 1846.19L4027.04 1838.17L4030.9 1788.57L4021.22 1768.13L4019.33 1729.64L4009.38 1711.51L4006.76 1677.65L4002.44 1655.36" stroke="#94B1AF" stroke-miterlimit="10"/>
<path d="M3995.92 1633.11L3993.07 1617.33L4032.52 1645.18L4045.98 1665.23L4024.23 1657.06L4012.89 1649.27" stroke="#94B1AF" stroke-miterlimit="10"/>
<path d="M3939.28 1408.49L3978.96 1479.73L3973.9 1566.89L3990.95 1606.07L4041.66 1640.86L4120.4 1751.43L4246.93 1822.66" stroke="#94B1AF" stroke-miterlimit="10"/>
<path d="M3930.87 1411.27L3970.74 1482.7L3965.34 1565.11L3950.5 1579.23" stroke="#94B1AF" stroke-miterlimit="10"/>
<path d="M3955.43 1585.4L3967.93 1572.83L3986.94 1625.97" stroke="#94B1AF" stroke-miterlimit="10"/>
<path d="M3930.91 1589.1L3881.78 1604.57L3877.54 1609.5L3869.9 1609.89L3813.79 1632.18L3763.74 1676.73L3762 1688.37L3741.37 1706.92L3689.74 1745.07L3673.66 1792.66L3680.83 1804.23L3690.08 1822.2L3688.81 1840.56L3687.08 1846.77L3680.06 1852.74L3669.42 1855.21L3650.64 1865.74L3612.07 1944.15L3610.18 1963.39L3600.27 1975.31L3586.66 1975.12" stroke="#94B1AF" stroke-miterlimit="10"/>
<path d="M3591.17 1984.14H3602.09L3617.36 1966.24L3620.21 1943.76L3659.27 1869.1L3673.81 1862.23L3682.76 1860.19L3693.86 1850.27L3699.73 1819.38L3688.43 1800.48L3682.53 1790.77L3697.41 1748.38L3748.16 1711.47L3767.87 1693.23L3770.22 1682.16L3818.73 1637.62L3872.41 1616.6L3881.28 1618.06L3885.21 1611.89L3935.53 1596.43" stroke="#94B1AF" stroke-miterlimit="10"/>
<path d="M2959.48 2256.54L2968.12 2239.88L2961.95 2189.16L3057.78 1969.99L3051.61 1922.39L3082.61 1753.63L3167.56 1587.48L3185.65 1588.79L3244.69 1581.08L3268.02 1570.67L3295.59 1574.99L3333.73 1566.46L3378.5 1560.41L3398.21 1540.85L3435.53 1448.76L3462.76 1418.44L3473.44 1416.28L3512.43 1390.41L3551.03 1376.29L3562.1 1359.86L3565.8 1322.64" stroke="#94B1AF" stroke-miterlimit="10"/>
<path d="M3557.12 1319.67L3554.96 1359.94L3546.86 1368.69L3510.35 1383.81L3473.36 1409.15L3462.18 1410.27L3427.36 1447.83L3391.03 1538.39L3376.92 1553.31L3335.66 1557.28L3297.52 1565.81L3265.4 1561.53L3245.61 1572.4L3183.99 1578.11L3167.64 1572.67L3164.02 1515.09L3198.72 1464.8L3253.9 1323.61" stroke="#94B1AF" stroke-miterlimit="10"/>
<path d="M4165.6 1291.52L4177.13 1318.71L4206.71 1349.41L4385.75 1445.79L4442.05 1485.67L4503.1 1479.92L4497.74 1465.3L4475.6 1469.89L4442.59 1470.2L4387.6 1430.52L4310.44 1392.87L4205.43 1330.24L4187.96 1313.16L4178.52 1280.38L4165.67 1281.61L4165.6 1291.52Z" fill="black"/>
<path d="M3866.82 699.87L3868.36 789.113L3859.8 803.499L3851.55 887.227L3857.02 914.725L3856.6 942.262L3865.16 961.352L3910.74 989.159L3978.07 995.831L3998.04 1006.44L4154.38 1201.55L4161.9 1222.41L4164.13 1273.97L4160.05 1280.84L4104.25 1282.23L4026.85 1281.92L4002.83 1285.66L3921.03 1333.17L3882.78 1377.1L3836.51 1389.06" stroke="#94B1AF" stroke-miterlimit="10"/>
<path d="M4244.77 1829.33L4113.12 1758.45L4055.66 1676.26L4026.81 1667.66" stroke="#94B1AF" stroke-miterlimit="10"/>
<path d="M3992.99 1653.04L3997.97 1678.5L4000.94 1714.21L4011.08 1730.41L4012.77 1769.79L4023.23 1789.38L4019.18 1832.26L4013.2 1840.21L3999.24 1891.58L3988.06 1956.06L3949.88 2030.77L3957.28 2062.24L3955.78 2097.72L3967.42 2132.81L3926.59 2229.66L3904.84 2260.86L3903.8 2292.13L3912.2 2317.28L3921.38 2315.89L3929.83 2321.83L3929.33 2351.26" stroke="#94B1AF" stroke-miterlimit="10"/>
<path d="M3948.96 2342.93L3949.03 2322.99L3965.54 2291.01L3983.24 2272.46L3995.81 2243.69L4027.12 2218.97L4056.78 2218.12L4111.07 2180.56" stroke="#94B1AF" stroke-miterlimit="10"/>
<path d="M4131.16 2166.98L4148.4 2157.34L4185.11 2121.78" stroke="#94B1AF" stroke-miterlimit="10"/>
<path d="M4177.9 2119.24L4148.79 2147.24L4127.11 2161.7" stroke="#94B1AF" stroke-miterlimit="10"/>
<path d="M4108.29 2171.54L4055.39 2210.68L4023.88 2210.14L3989.75 2240.69L3974.95 2270.23L3958.32 2287.2L3943.56 2323.45L3943.29 2337.72" stroke="#94B1AF" stroke-miterlimit="10"/>
<path d="M2428.9 1776.96L2450.45 1704.53L2461.79 1691.77L2483.23 1609.12L2522.1 1583.47L2525.42 1554.55L2538.03 1549.03L2589.24 1496.16L2603.86 1450.88" stroke="#94B1AF" stroke-miterlimit="10"/>
<path d="M2593.06 1452.19L2580.8 1492.65L2535.52 1539.43L2518.75 1547.41L2514.81 1576.91L2477.79 1604.37L2456.89 1682.82L2444.4 1697.36L2424 1767.36" stroke="#94B1AF" stroke-miterlimit="10"/>
<path d="M2386.05 1763.54L2358.68 1731.3L2309.08 1705.88L2321.77 1651L2338.51 1637.62L2335.5 1575.06L2316.6 1551.15L2315.68 1518.06L2357.98 1474.94L2403.95 1435.37L2437.38 1407.38L2452.19 1385.55L2485.74 1367.77L2495.26 1357.47L2503.94 1324.26L2542.16 1292.6L2561.4 1289.44L2564.87 1277.95L2581.57 1261.55L2622.37 1374.9L2604.78 1420.18" stroke="#94B1AF" stroke-miterlimit="10"/>
<path d="M2614.96 1415.9L2631.43 1374.79L2606.02 1299.81L2691.47 1299.58L2704.77 1309.69L2722.24 1309.53L2762.66 1321.8L2764.78 1354.27L2769.37 1362.41" stroke="#94B1AF" stroke-miterlimit="10"/>
<path d="M2776.08 1358.24L2771.91 1352.42L2770.68 1317.28L2722.86 1303.13L2710.25 1302.67L2692.01 1292.87H2603.93L2587.16 1254.38L2612.15 1206.44L2621.21 1204.59L2629.15 1179.64L2652.33 1152.18L2769.21 1101.58L2781.24 1106.75L2789.38 1100.23L2836.31 1081.91L2853.43 1094.91L2875.34 1092.05L2888.14 1081.41L2915.83 1072.65L2945.1 1071.19L2958.59 1074L3013.85 1067.29" stroke="#94B1AF" stroke-miterlimit="10"/>
<path d="M3010.27 1058.85L2957.05 1065.83L2938.58 1062.2L2915.17 1063.59L2884.82 1073.81L2871.48 1085.38L2855.71 1087.27L2836.81 1071.96L2786.95 1091.75L2779.39 1097.11L2768.52 1093.4L2644.96 1146.4L2620.67 1178.56L2615.89 1197.3L2607.71 1200.62L2580.37 1250.06L2556.62 1275.17L2556.12 1282.5L2542.08 1283.81L2497.96 1321.68L2487.75 1353.42L2481.07 1362.83L2447.02 1380.73L2429.67 1403.71L2356.79 1464.72L2314.21 1509.35L2231.57 1468.27L2221.09 1441.74L2171.84 1407.68L2103.55 1394.3L2069.96 1372.67L2060.01 1344.36L2028.2 1323.3L2026.92 1311.04L2019.25 1303.21L1927.62 1242.04" stroke="#94B1AF" stroke-miterlimit="10"/>
<path d="M1925.66 1249.95L2015.78 1309.69L2019.94 1315.2L2019.44 1324.57L2053.03 1346.79L2063.87 1379.45L2102.74 1401.32L2170.76 1415.01L2215.53 1446.48L2226.06 1472.75L2306.65 1514.67L2305.96 1532.56L2266.36 1554.31L2161.27 1584.59L2154.06 1595.2L2149.47 1605.49L2131.97 1611.51L2119.05 1605.76L2092.9 1625.05L2081.95 1646.53L2062.98 1649.34L1901.48 1814.68L1876.64 1823.28" stroke="#94B1AF" stroke-miterlimit="10"/>
<path d="M2327.02 1592.65L2324.2 1572.75L2308.2 1552.42L2307.47 1539.27L2269.33 1559.83L2165.44 1590.41L2153.33 1610.7L2130.58 1617.95L2119.7 1614.86L2099.07 1629.98L2088.16 1652.04L2065.37 1656.36L1910 1819.38L1879.85 1828.37" stroke="#94B1AF" stroke-miterlimit="10"/>
<path d="M2061.94 2161.24L1965.15 2124.06L1929.13 2097.6L1888.95 2073.54L1874.18 2054.41L1871.55 2028.57L1844.68 1963.51" stroke="#94B1AF" stroke-miterlimit="10"/>
<path d="M1839.36 1966.4L1864.54 2031.42L1866.16 2054.95L1883.82 2078.78L1927.32 2103.27L1957.2 2128.38L2066.26 2172.04" stroke="#94B1AF" stroke-miterlimit="10"/>
<path d="M3892.27 1357.08L3849.77 1300.2" stroke="#94B1AF" stroke-miterlimit="10"/>
<path d="M3896.78 1348.83L3857.45 1298.58" stroke="#94B1AF" stroke-miterlimit="10"/>
<path d="M3819.19 1256L3793.39 1233.21L3789.23 1224.57L3785.3 1241.5L3770.14 1262.6L3745.19 1272.04" stroke="#94B1AF" stroke-miterlimit="10"/>
<path d="M3739.98 1263.91L3763.47 1258.59L3780.09 1231.82L3783.02 1218.48L3665.94 1065.13L3644.7 1087.85L3644.89 1107.83L3634.86 1130.43" stroke="#94B1AF" stroke-miterlimit="10"/>
<path d="M3627.65 1122.29L3632.63 1109.99L3632.94 1089.01L3660.78 1057.54L3611.53 992.013L3619.75 941.837L3615.89 911.177L3573.43 912.604L3554.54 912.797L3548.33 905.7L3549.64 882.136L3545.44 871.954L3517.33 872.726L3480.42 866.439L3446.72 869.332L3434.49 876.621L3420.69 878.279" stroke="#94B1AF" stroke-miterlimit="10"/>
<path d="M3421.65 870.373L3434.22 869.332L3444.87 861.272L3483.5 859.652L3518.25 866.671L3550.14 865.745L3559.16 881.018L3556.62 903.116L3559.43 907.397L3614.31 905.623L3613.38 841.217" stroke="#94B1AF" stroke-miterlimit="10"/>
<path d="M3621.91 844.803L3624.3 904.35L3683.3 873.728L3693.29 871.839L3706.82 860.654L3713.03 842.605L3735.13 816.226L3729.15 756.447L3741.33 741.406" stroke="#94B1AF" stroke-miterlimit="10"/>
<path d="M3748.27 745.726L3738.02 759.147L3744.23 818.771L3722.32 844.302L3713.03 867.018L3701.61 877.084L3691.24 878.086L3626.22 912.604L3621.56 991.55L3744.96 1153.38L3758.84 1139.68L3776.08 1118.7L3762.54 1099.38L3751.17 1070.57L3738.4 1012.14L3769.14 939.06L3814.14 919.623L3823.86 917.27L3849.46 900.494" stroke="#94B1AF" stroke-miterlimit="10"/>
<path d="M3851.35 911.1L3831.11 922.168L3813.79 929.11L3776.62 943.958L3747.23 1012.95L3759.5 1067.53L3770.22 1097.72L3783.71 1115L3803.27 1127.03L3869.4 1185.62L3892.62 1202.12L3894.31 1216.35L3962.07 1300.7" stroke="#94B1AF" stroke-miterlimit="10"/>
<path d="M3955.55 1306.87L3907.69 1244.24L3872.06 1203.47L3866.74 1193.33L3801.99 1134.94L3781.75 1122.71L3780.01 1129.5L3765.71 1145.24L3750.71 1160.32L3801.45 1227.04L3824.51 1250.49" stroke="#94B1AF" stroke-miterlimit="10"/>
<path d="M3970.36 1340.77L3997.31 1378.87L4019.72 1403.67L4032.98 1444.82L4053.42 1477.64L4083.5 1507.11L4163.67 1504.76L4341.37 1605.22L4351.78 1626.32L4387.6 1669.94L4395.97 1675.22L4416.91 1675.57L4435.73 1655.01L4448.07 1654.63" stroke="#94B1AF" stroke-miterlimit="10"/>
<path d="M4446.53 1645.45L4432.72 1645.6L4414.91 1665.27L4397.51 1665.73L4359.61 1624.7L4347.65 1596.89L4168.45 1499.32" stroke="#94B1AF" stroke-miterlimit="10"/>
<path d="M3571.39 1300.82L3606.87 1208.18L3652.29 1200.58" stroke="#94B1AF" stroke-miterlimit="10"/>
<path d="M3647.05 1193.48L3608.1 1201.01L3625.96 1163.13" stroke="#94B1AF" stroke-miterlimit="10"/>
<path d="M3616.82 1160.63L3560.32 1300.28" stroke="#94B1AF" stroke-miterlimit="10"/>
<path d="M3676.55 1187.24L3694.17 1182.88L3715.11 1137.18" stroke="#94B1AF" stroke-miterlimit="10"/>
<path d="M3720.24 1143.16L3699.8 1188.43L3679.4 1193.25" stroke="#94B1AF" stroke-miterlimit="10"/>
<path d="M2604.05 675.534L2660.62 709.434L2693.75 722.701L2703.58 734.734L2704.77 761.807L2720.35 766.088L2739.94 732.42L2770.41 723.896L2782.86 705.809L2778.31 687.412L2771.49 685.06L2776.04 653.474L2799.87 609.122" stroke="#94B1AF" stroke-miterlimit="10"/>
<path d="M2807.66 614.869L2782.4 660.224L2780.16 681.088L2787.11 686.526L2790.19 707.198L2783.71 722.779L2800.49 732.42L2805 782.673L2807.35 786.105L2859.1 785.334L2882.32 777.351" stroke="#94B1AF" stroke-miterlimit="10"/>
<path d="M2882.08 785.681L2862.92 793.355L2804.84 793.625L2797.29 788.496L2725.29 776.27L2713.84 779.548L2698.26 774.805L2687.92 776.039L2686.8 780.667L2697.6 797.251L2695.48 814.798L2682.56 818.655L2664.9 863.122L2665.98 885.26L2659.73 893.359L2641.3 893.243L2634.21 899.066L2656.34 898.565L2672.77 905.584L2688.89 905.43L2718.62 916.961L2743.34 916.421L2750.51 914.069L2779.51 910.019L2803.38 883.061L2816.41 891.855L2827.33 891.739L2833.77 902.885L2837.51 903.155L2903.91 805.08" stroke="#94B1AF" stroke-miterlimit="10"/>
<path d="M2910.97 810.556L2843.6 907.127L2831.1 912.796L2824.97 901.804L2817.95 901.882L2804.3 893.474L2785.45 916.768L2751.59 920.933L2744.61 924.212L2713.95 924.829L2688.04 913.721L2672.57 913.374L2656.3 906.471L2627.8 907.011L2611.18 906.432L2578.71 910.366L2534.94 903.926L2509.26 903.81L2504.67 915.071L2486.78 930.768L2477.87 945.308L2445.48 958.266L2421.88 1019.2L2413.16 1015.34L2391.53 1018.43L2355.36 1052.02L2337.7 1056.88" stroke="#94B1AF" stroke-miterlimit="10"/>
<path d="M2335.65 1048.94L2350.39 1045.85L2386.75 1011.76L2412.39 1006.09L2417.75 1008.17L2440.04 951.941L2472.13 939.947L2479.69 928.146L2494.88 912.488L2500.66 894.014L2537.88 896.135L2577.83 902.846L2611.53 898.102L2625.53 899.336L2637.68 885.761L2654.76 885.799L2657.34 857.067L2673.96 816.032L2687.54 809.939L2688.31 799.719L2677.86 778.777L2685.42 766.358" stroke="#94B1AF" stroke-miterlimit="10"/>
<path d="M4176.59 1273.66L4172.54 1227.31L4210.6 1223.95L4299.1 1205.48L4389.03 1214.12L4416.99 1201.08L4436.73 1179.02L4427.86 1174.2L4408.77 1194.29L4385.02 1206.29L4298.29 1197.23L4210.14 1213.96L4173.93 1216.32L4161.9 1222.41L4163.75 1276.67L4176.59 1273.66Z" fill="black"/>
<path d="M4173.58 1221.83L4162.94 1196.57L4005.18 1001.31L3983.01 989.197L3912.17 982.756L3872.52 956.955L3865.31 939.253L3867.16 914.031L3859.41 884.758L3866.32 828.065L3854.4 833.966L3851.55 887.227L3857.02 914.725L3856.6 942.261L3865.16 961.352L3910.74 989.158L3978.07 995.83L3998.05 1006.44L4154.38 1201.54L4164.87 1227.77L4173.58 1221.83Z" fill="black"/>
<path d="M3309.24 868.907L3333.15 888.808L3332.26 914.879L3327.6 922.785" stroke="#94B1AF" stroke-miterlimit="10"/>
<path d="M1945.48 1229.74L1894.23 1215.35L1913.97 1264.79L1916.44 1238.14L1945.48 1229.74Z" stroke="#94B1AF" stroke-miterlimit="10"/>
<path d="M1867 1956.06L1825.09 1923.2L1824.51 1976.43L1836.96 1952.75L1867 1956.06Z" stroke="#94B1AF" stroke-miterlimit="10"/>
<path d="M1921.99 2699.47L1926.97 2752.5L1965.99 2716.29L1940.27 2723.58L1921.99 2699.47Z" stroke="#94B1AF" stroke-miterlimit="10"/>
<path d="M1835.54 1779.27L1797.24 1816.26L1849.88 1824.16L1828.13 1808.58L1835.54 1779.27Z" stroke="#94B1AF" stroke-miterlimit="10"/>
<path d="M2330.6 1028.5L2293.04 1066.18L2345.84 1073.08L2323.78 1057.92L2330.6 1028.5Z" stroke="#94B1AF" stroke-miterlimit="10"/>
<path d="M3160 546.876L3123.02 508.579L3115.12 561.223L3130.7 539.471L3160 546.876Z" stroke="#94B1AF" stroke-miterlimit="10"/>
<path d="M3047.9 3076.93L3081.84 3117.92L3093.75 3066.01L3076.55 3086.53L3047.9 3076.93Z" stroke="#94B1AF" stroke-miterlimit="10"/>
<path d="M4201.96 2560.29L4235.9 2601.28L4247.78 2549.41L4230.61 2569.93L4201.96 2560.29Z" stroke="#94B1AF" stroke-miterlimit="10"/>
<path d="M4521.8 1497.12L4563.56 1464.15L4511.97 1451.03L4532.06 1468.7L4521.8 1497.12Z" stroke="#94B1AF" stroke-miterlimit="10"/>
<path d="M4459.75 1171.62L4438.31 1122.91L4412.67 1169.53L4434.8 1154.53L4459.75 1171.62Z" stroke="#94B1AF" stroke-miterlimit="10"/>
<path d="M2970.28 1173.24L3005.18 1206.29L3027.58 1219.98L3048.87 1249.18L3069.73 1262.25L3115.58 1274.2L3153.8 1293.91L3200.77 1289.44L3215.61 1291.48L3245.5 1310.03L3266.05 1324.38L3298.91 1335.18L3353.63 1331.55L3386.91 1321.99L3409.47 1318.36L3505.95 1319.91L3530.59 1313.47L3675.47 1328.16L3709.06 1316.4L3717.31 1305.79L3723.79 1272.32L3715.77 1268.92L3711.91 1302.74L3706.71 1311.31L3676.51 1321.91L3528.74 1308.18L3505.64 1313.58L3407.61 1312.77L3384.52 1316.71L3350.39 1326.27L3297.9 1327.97L3270.02 1320.25L3265.05 1317.55L3218.04 1284.66L3201.46 1283L3155.57 1287.24L3116.85 1269.11L3072.66 1257.35L3053.73 1245.13L3033.1 1216.08L3010.34 1202.32L2981.65 1171.58L2981.19 1158.58L2970.28 1173.24Z" fill="black"/>
<path d="M3833.07 1398.93L3884.48 1384.2L3925.74 1337.18L4005.26 1290.29L4025.85 1287.12L4115.66 1288.71L4168.18 1287.24L4168.07 1277.41L4111.69 1282.84L4026.85 1281.92L4002.83 1285.66L3921.04 1333.17L3889.26 1370.89L3824.67 1392.14L3833.07 1398.93Z" fill="black"/>
<path d="M3398.9 1553.97L3434.45 1556.17L3480.92 1550.65L3533.29 1540.82L3585.81 1544.56L3633.36 1560.18L3677.44 1569.05L3734.89 1560.87L3778.74 1544.36L3805.66 1527.2L3833.46 1514.21L3877.34 1501.94L3867.93 1492.72L3832.69 1506.38L3801.95 1521.3L3773.46 1538.43L3731.46 1554.01L3677.01 1558.48L3637.06 1553.23L3592.48 1535.69L3534.02 1530.63L3475.68 1542.44L3429.09 1547.37L3403.8 1544.83" stroke="#94B1AF" stroke-miterlimit="10"/>
<path d="M3428.28 754.209L3390.95 791.387L3362.03 824.477L3338.63 862.157L3281.67 857.143L3236.47 830.34H3231.85L3204.23 918.272L3191.24 935.009L3153.99 957.185L3118.39 978.975L3041.77 1061.89L3028.81 1079.48L3024.84 1049.9L3015.12 1026.3L3015.43 1006.32L3024.23 984.22L3027.23 920.046L3018.79 897.947L2994.88 870.102L2972.78 866.168L2954.93 849.816L2934.64 802.61L2936.15 784.445L2949.14 768.98L3049.64 689.687L3078.1 690.304L3096.26 693.312L3108.99 694.508L3125.03 680.894L3128.34 671.213L3130.16 642.751L3151.64 609.468L3149.55 578.268L3141.07 554.356" stroke="#94B1AF" stroke-miterlimit="10"/>
<path d="M3480.54 692.155L3448.38 748.231L3406.3 911.137L3450.03 962.7L3490.45 1031.97L3524.65 1061.28L3539.07 1079.83L3557.24 1093.02L3588.97 1101.69L3630.66 1138.37L3647.55 1157.77L3704.85 1242.73L3719.7 1259.63L3729.61 1259.24L3733.31 1268.3L3814.99 1352.03L3871.48 1481.54L3924.62 1540.97L3966.27 1611.97L4019.14 1655.09L4033.83 1678.07L4081.84 1882.82L4099.46 1929.84L4101.93 2020.93L4112.69 2074.35L4110.72 2134.09L4118.09 2159.08L4141.11 2187.46L4191.9 2315L4194.56 2354.26L4234.78 2428.97L4233.08 2553.96L4223.71 2555.5L4223.29 2433.56L4183.61 2364.29L4164.44 2270.34L4129.97 2193.59L4108.33 2165.94L4100.04 2141.57L4101.89 2074.38L4090.36 2036.13L4087.51 1932.77L4061.13 1863.04L4023.54 1686.98L4011.23 1662.65L3955.4 1618.3L3913.28 1549.65L3857.52 1482.73L3803.38 1357.85L3729.61 1281.8L3679.6 1231.86L3637.83 1169.42L3581.57 1112.99L3553.65 1104.9L3528.39 1086.58L3511.46 1065.06L3477.14 1037.87L3439.35 968.254L3390.26 917.038L3395.01 896.559L3435.61 743.565L3466.92 682.282L3480.54 692.155Z" fill="black"/>
<path d="M2448.14 1515.21L2406.15 1548.61L2356.25 1584.36L2280.86 1622.46L2232.15 1631.87L2195.21 1644.44L2096.64 1696.32L2044.43 1734.38L1843.71 1801.18L2044.43 1734.38L2096.64 1696.32L2195.21 1644.44L2232.15 1631.87L2280.86 1622.46L2356.25 1584.36L2448.14 1515.21Z" stroke="#94B1AF" stroke-miterlimit="10"/>
<path d="M2570.5 1442.82L2448.14 1515.21L2356.25 1584.36L2280.86 1622.46L2232.15 1631.87L2195.21 1644.44L2096.64 1696.32L2044.43 1734.38L1843.71 1801.18V1816.88L2049.14 1745.8L2048.75 1778.77L2060.13 1836.12L2058.54 1939.44L2077.79 2032.12L2074.28 2148.39L2069.96 2212.8L2025.57 2372.66L1991.41 2578.49L1945.83 2689.25L1956.97 2699.43L2002.71 2588.17L2085 2206.17L2092.83 2024.56L2071.89 1933.96L2073.74 1831.72L2062.71 1777.38L2065.22 1739.12L2097.42 1710.16L2212.25 1651.12L2285.91 1631.1L2320.62 1618.87L2365.89 1594.96L2413.94 1559.75L2458.67 1526.74L2476.25 1515.36L2579.41 1452.69L2600.62 1444.28L2764.97 1387.44L2807.16 1363.49L2841.13 1326.58L2868.86 1279.33L2891.61 1249.06L2997.7 1151.56L3031.44 1095.87L3125.07 989.234L3167.91 963.742L3197.37 949.125L3212.87 931.192L3236.86 849.585L3278.43 868.328L3308.66 873.959L3346.19 883.562L3395.01 896.559L3391.92 916.305L3439.35 968.254L3477.14 1037.87L3511.46 1065.06L3528.39 1086.58L3553.65 1104.9L3580.26 1112.72L3637.68 1168.42L3680.75 1233.28L3729.61 1281.8L3803.92 1359.47L3855.52 1484.01L3911.51 1550.8L3954.59 1619.88L4008.65 1662.22L4011.58 1666.77L4019.14 1655.09L3966.27 1611.97L3924.62 1540.97L3871.48 1481.54L3814.99 1352.03L3733.31 1268.3L3729.61 1259.24L3719.7 1259.63L3647.55 1157.77L3630.66 1138.37L3588.97 1101.69L3557.24 1093.02L3539.07 1079.83L3524.65 1061.28L3490.45 1031.97L3450.03 962.701L3406.3 911.137L3412.86 885.876L3400.52 881.865L3350.62 871.529L3338.63 862.157L3281.67 857.144L3236.47 830.34H3231.85L3204.24 918.272L3191.24 935.01L3118.4 978.976L3066.03 1038.1L3018.37 1093.52L2985.47 1143.46L2971.86 1152.83L2966.11 1164.94L2888.02 1234.87L2860.76 1267.26L2825.98 1322.06L2802.38 1348.1L2760.88 1373.51L2602.16 1427.7L2570.5 1442.82Z" fill="black"/>
<path d="M3136.52 570.478L3146.82 568.396L3149.55 578.269L3151.64 609.469L3130.16 642.752L3128.35 671.214L3125.03 680.894L3108.99 694.508L3096.26 693.313L3078.1 690.305L3049.64 689.688L2949.15 768.981L2936.15 784.446L2934.65 802.611L2954.93 849.816L2972.78 866.169L2994.88 870.103L3018.79 897.948L3027.23 920.046L3024.23 984.221L3015.43 1006.32L3015.13 1026.3L3024.84 1049.9L3028.82 1079.48L3019.68 1088.35L3016.98 1052.33L3006.99 1029.61L3008.8 1003L3016.05 984.221L3017.86 921.55L3013.04 907.628L2990.64 876.157L2968.85 871.298L2949.45 854.059L2926.47 803.806L2927.36 783.52L2933.1 770.793L3047.21 681.203L3077.79 681.512L3107.44 686.949L3118.97 674.531L3123.79 637.314L3139.53 610.973L3140.45 592.191L3138.95 573.756L3136.52 570.478Z" fill="black"/>
<path d="M3016.98 1052.33L3006.99 1029.61L3008.8 1003L3016.05 984.221L3017.86 921.55L3013.04 907.627L2990.64 876.157L2968.85 871.297L2949.45 854.058L2926.47 803.806L2927.36 783.52L2933.1 770.793L3047.21 681.202L3077.79 681.511L3107.44 686.949L3118.97 674.53L3123.79 637.314L3139.53 610.972L3140.45 592.191L3138.95 573.756L3132.28 557.712" stroke="#94B1AF" stroke-miterlimit="10"/>
<path d="M3458.57 490.002C3460.19 490.002 3461.44 491.25 3461.44 492.822C3461.44 494.394 3460.19 495.642 3458.57 495.642H3457.1V498.402H3455.44V490.002H3458.57ZM3458.57 494.094C3459.28 494.094 3459.8 493.542 3459.8 492.822C3459.8 492.09 3459.28 491.55 3458.57 491.55H3457.1V494.094H3458.57ZM3467.06 498.402L3466.56 496.89H3463.21L3462.71 498.402H3460.92L3463.86 490.002H3465.91L3468.86 498.402H3467.06ZM3463.74 495.342H3466.04L3464.89 491.91L3463.74 495.342ZM3474.29 498.402L3472.59 495.486H3471.33V498.402H3469.68V490.002H3473.04C3474.59 490.002 3475.83 491.25 3475.83 492.786C3475.83 493.842 3475.17 494.79 3474.21 495.234L3476.07 498.402H3474.29ZM3471.33 491.55V494.034H3473.04C3473.66 494.034 3474.18 493.482 3474.18 492.786C3474.18 492.09 3473.66 491.55 3473.04 491.55H3471.33ZM3477.05 490.002H3478.71V498.402H3477.05V490.002ZM3483 498.57C3481.28 498.57 3480.16 497.742 3479.7 496.494L3481.12 495.666C3481.42 496.446 3482 496.95 3483.05 496.95C3484.04 496.95 3484.39 496.53 3484.39 496.062C3484.39 495.438 3483.83 495.198 3482.58 494.838C3481.3 494.466 3480.05 493.926 3480.05 492.33C3480.05 490.746 3481.37 489.834 3482.81 489.834C3484.19 489.834 3485.24 490.542 3485.81 491.718L3484.42 492.522C3484.12 491.886 3483.66 491.442 3482.81 491.442C3482.11 491.442 3481.7 491.802 3481.7 492.282C3481.7 492.798 3482.03 493.074 3483.3 493.458C3484.63 493.878 3486.05 494.322 3486.05 496.038C3486.05 497.61 3484.79 498.57 3483 498.57Z" fill="black"/>
<path d="M3431.91 753.053L3361.49 823.745L3335.93 865.397L3333.73 913.143L3327.44 921.165L3330.41 1007.59L3252.59 1300.66L3244.88 1325.69L3194.63 1448.72L3188.97 1467.35L3155.96 1508.5L3159.81 1579.04L3073.39 1749.62L3042.2 1921.82L3046.32 1965.28L2953 2188.47L2961.41 2235.59L2948.34 2256.42L2957.75 2248.78L2968.35 2240.84L2962.03 2188.89L3059.05 1966.21L3051.22 1922.78L3083 1753.78L3168.91 1586.36L3164.48 1514.24L3199.07 1468.81L3255.99 1320.25L3340.48 1005.93L3337.05 925.33L3346.46 912.487L3349.23 871.607L3373.76 827.872L3437.85 763.581L3431.91 753.053Z" fill="black"/>
<path d="M3470.24 678.118L3493.49 632.995L3505.22 598.825L3505.49 541.052L3517.94 540.512L3517.71 600.367L3504.33 634.576L3479.03 685.098L3470.24 678.118Z" fill="black"/>
<path d="M3010.5 2240.88H2942.82V2308.56H3010.5V2240.88Z" fill="black"/>
<path d="M2997.31 2252.45H2952.81V2296.95H2997.31V2252.45Z" fill="white" stroke="#94B1AF" stroke-miterlimit="10"/>
<path d="M2479.3 1797.86H2411.62V1865.55H2479.3V1797.86Z" fill="black"/>
<path d="M2466.15 1809.43H2421.65V1853.94H2466.15V1809.43Z" fill="white" stroke="#94B1AF" stroke-miterlimit="10"/>
<path d="M3080.06 2154.1H2859.37V2218.59H3080.06V2154.1Z" fill="white" stroke="#94B1AF" stroke-miterlimit="10"/>
<path d="M2877.23 2168.03H2880.77V2169.61H2875.58V2161.21H2880.71V2162.8H2877.23V2164.58H2880.41V2166.14H2877.23V2168.03ZM2887.5 2161.21V2162.8H2885.23V2169.61H2883.57V2162.8H2881.32V2161.21H2887.5ZM2893.21 2169.61L2892.71 2168.1H2889.36L2888.86 2169.61H2887.07L2890.01 2161.21H2892.06L2895.01 2169.61H2893.21ZM2889.89 2166.55H2892.19L2891.04 2163.12L2889.89 2166.55ZM2904.05 2161.21V2169.61H2902.4V2164.16L2900.04 2168.06H2899.85L2897.48 2164.18V2169.61H2895.83V2161.21H2897.53L2899.94 2165.18L2902.34 2161.21H2904.05ZM2908.74 2161.21C2910.36 2161.21 2911.61 2162.46 2911.61 2164.03C2911.61 2165.6 2910.36 2166.85 2908.74 2166.85H2907.27V2169.61H2905.61V2161.21H2908.74ZM2908.74 2165.3C2909.45 2165.3 2909.97 2164.75 2909.97 2164.03C2909.97 2163.3 2909.45 2162.76 2908.74 2162.76H2907.27V2165.3H2908.74ZM2914.35 2168.03H2917.89V2169.61H2912.69V2161.21H2917.83V2162.8H2914.35V2164.58H2917.53V2166.14H2914.35V2168.03ZM2921.92 2169.78C2920.21 2169.78 2919.08 2168.95 2918.62 2167.7L2920.04 2166.88C2920.34 2167.66 2920.93 2168.16 2921.97 2168.16C2922.97 2168.16 2923.31 2167.74 2923.31 2167.27C2923.31 2166.65 2922.75 2166.41 2921.5 2166.05C2920.22 2165.68 2918.97 2165.14 2918.97 2163.54C2918.97 2161.96 2920.29 2161.04 2921.73 2161.04C2923.11 2161.04 2924.17 2161.75 2924.73 2162.93L2923.34 2163.73C2923.04 2163.1 2922.58 2162.65 2921.73 2162.65C2921.03 2162.65 2920.63 2163.01 2920.63 2163.49C2920.63 2164.01 2920.95 2164.28 2922.22 2164.67C2923.55 2165.09 2924.97 2165.53 2924.97 2167.25C2924.97 2168.82 2923.71 2169.78 2921.92 2169.78Z" fill="black"/>
<path d="M3275 1485.74H3207.32V1553.43H3275V1485.74Z" fill="black"/>
<path d="M3261.85 1497.27H3217.35V1541.78H3261.85V1497.27Z" fill="white" stroke="#94B1AF" stroke-miterlimit="10"/>
<path d="M3344.56 1398.97H3123.87V1463.45H3344.56V1398.97Z" fill="white" stroke="#94B1AF" stroke-miterlimit="10"/>
<path d="M3138.57 1414.44L3138.07 1412.93H3134.72L3134.22 1414.44H3132.43L3135.37 1406.04H3137.42L3140.37 1414.44H3138.57ZM3135.25 1411.38H3137.55L3136.4 1407.95L3135.25 1411.38ZM3145.8 1414.44L3144.11 1411.52H3142.85V1414.44H3141.19V1406.04H3144.55C3146.1 1406.04 3147.35 1407.29 3147.35 1408.82C3147.35 1409.88 3146.69 1410.83 3145.73 1411.27L3147.59 1414.44H3145.8ZM3142.85 1407.59V1410.07H3144.55C3145.17 1410.07 3145.69 1409.52 3145.69 1408.82C3145.69 1408.13 3145.17 1407.59 3144.55 1407.59H3142.85ZM3151.69 1406.04C3153.31 1406.04 3154.56 1407.29 3154.56 1408.86C3154.56 1410.43 3153.31 1411.68 3151.69 1411.68H3150.22V1414.44H3148.56V1406.04H3151.69ZM3151.69 1410.13C3152.4 1410.13 3152.92 1409.58 3152.92 1408.86C3152.92 1408.13 3152.4 1407.59 3151.69 1407.59H3150.22V1410.13H3151.69ZM3160.18 1414.44L3159.68 1412.93H3156.33L3155.83 1414.44H3154.04L3156.98 1406.04H3159.03L3161.98 1414.44H3160.18ZM3156.86 1411.38H3159.16L3158.01 1407.95L3156.86 1411.38ZM3165.19 1414.61C3163.9 1414.61 3162.93 1414.05 3162.42 1413.01L3163.84 1412.19C3164.11 1412.72 3164.49 1412.99 3165.19 1412.99C3166.1 1412.99 3166.5 1412.51 3166.5 1411.82V1406.04H3168.14V1411.82C3168.14 1413.63 3166.84 1414.61 3165.19 1414.61ZM3173.6 1414.61C3171.18 1414.61 3169.25 1412.69 3169.25 1410.24C3169.25 1407.78 3171.18 1405.87 3173.6 1405.87C3176.03 1405.87 3177.97 1407.78 3177.97 1410.24C3177.97 1412.69 3176.03 1414.61 3173.6 1414.61ZM3173.6 1412.99C3175.13 1412.99 3176.32 1411.85 3176.32 1410.24C3176.32 1408.62 3175.13 1407.48 3173.6 1407.48C3172.08 1407.48 3170.89 1408.62 3170.89 1410.24C3170.89 1411.85 3172.08 1412.99 3173.6 1412.99ZM3184 1406.04H3185.65V1414.44H3184.39L3180.79 1409.3V1414.44H3179.14V1406.04H3180.4L3184 1411.16V1406.04Z" fill="black"/>
<path d="M3893 1226.88H3825.32V1294.57H3893V1226.88Z" fill="black"/>
<path d="M3879.85 1238.45H3835.35V1282.96H3879.85V1238.45Z" fill="white" stroke="#94B1AF" stroke-miterlimit="10"/>
<path d="M3962.57 1140.11H3741.88V1204.59H3962.57V1140.11Z" fill="white" stroke="#94B1AF" stroke-miterlimit="10"/>
<path d="M3801.69 1153.99H3805.23V1155.58H3800.04V1147.18H3805.17V1148.76H3801.69V1150.55H3804.87V1152.11H3801.69V1153.99ZM3808.48 1155.58L3805.66 1147.18H3807.46L3809.51 1153.63L3811.55 1147.18H3813.36L3810.53 1155.58H3808.48ZM3818.78 1155.58L3817.08 1152.66H3815.82V1155.58H3814.17V1147.18H3817.53C3819.08 1147.18 3820.32 1148.43 3820.32 1149.96C3820.32 1151.02 3819.66 1151.97 3818.7 1152.41L3820.56 1155.58H3818.78ZM3815.82 1148.73V1151.21H3817.53C3818.15 1151.21 3818.67 1150.66 3818.67 1149.96C3818.67 1149.27 3818.15 1148.73 3817.53 1148.73H3815.82ZM3827.95 1147.18L3825.07 1152.3V1155.58H3823.43V1152.3L3820.56 1147.18H3822.43L3824.26 1150.68L3826.08 1147.18H3827.95Z" fill="black"/>
<path d="M3269.56 789.807H3201.88V857.491H3269.56V789.807Z" fill="black"/>
<path d="M3256.41 801.377H3211.91V845.883H3256.41V801.377Z" fill="white" stroke="#94B1AF" stroke-miterlimit="10"/>
<path d="M3339.13 703.07H3118.43V767.554H3339.13V703.07Z" fill="white" stroke="#94B1AF" stroke-miterlimit="10"/>
<path d="M3166.07 710.141V718.541H3164.43V713.093L3162.07 716.993H3161.87L3159.51 713.105V718.541H3157.85V710.141H3159.56L3161.97 714.113L3164.37 710.141H3166.07ZM3173.04 718.541L3172.54 717.029H3169.19L3168.68 718.541H3166.9L3169.84 710.141H3171.89L3174.84 718.541H3173.04ZM3169.72 715.481H3172.02L3170.87 712.049L3169.72 715.481ZM3178.34 718.709C3176.62 718.709 3175.49 717.881 3175.04 716.633L3176.45 715.805C3176.75 716.585 3177.34 717.089 3178.38 717.089C3179.38 717.089 3179.73 716.669 3179.73 716.201C3179.73 715.577 3179.16 715.337 3177.92 714.977C3176.63 714.605 3175.38 714.065 3175.38 712.469C3175.38 710.885 3176.7 709.973 3178.14 709.973C3179.52 709.973 3180.58 710.681 3181.14 711.857L3179.75 712.661C3179.45 712.025 3179 711.581 3178.14 711.581C3177.45 711.581 3177.04 711.941 3177.04 712.421C3177.04 712.937 3177.36 713.213 3178.64 713.597C3179.97 714.017 3181.38 714.461 3181.38 716.177C3181.38 717.749 3180.12 718.709 3178.34 718.709ZM3185.07 718.709C3183.36 718.709 3182.23 717.881 3181.77 716.633L3183.19 715.805C3183.49 716.585 3184.08 717.089 3185.12 717.089C3186.12 717.089 3186.47 716.669 3186.47 716.201C3186.47 715.577 3185.9 715.337 3184.65 714.977C3183.37 714.605 3182.12 714.065 3182.12 712.469C3182.12 710.885 3183.44 709.973 3184.88 709.973C3186.26 709.973 3187.32 710.681 3187.88 711.857L3186.49 712.661C3186.19 712.025 3185.73 711.581 3184.88 711.581C3184.19 711.581 3183.78 711.941 3183.78 712.421C3183.78 712.937 3184.1 713.213 3185.37 713.597C3186.71 714.017 3188.12 714.461 3188.12 716.177C3188.12 717.749 3186.86 718.709 3185.07 718.709ZM3195.47 710.141L3192.59 715.265V718.541H3190.95V715.265L3188.08 710.141H3189.95L3191.78 713.645L3193.6 710.141H3195.47Z" fill="black"/>
<path d="M2560.67 1720.15H2319.34V1795.59H2560.67V1720.15Z" fill="white" stroke="#94B1AF" stroke-miterlimit="10"/>
<path d="M2331.48 1732C2333.8 1732 2335.52 1733.84 2335.52 1736.2C2335.52 1738.57 2333.8 1740.4 2331.48 1740.4H2328.14V1732H2331.48ZM2331.48 1738.82C2332.93 1738.82 2333.94 1737.75 2333.94 1736.2C2333.94 1734.66 2332.93 1733.59 2331.48 1733.59H2329.8V1738.82H2331.48ZM2340.67 1740.57C2338.25 1740.57 2336.31 1738.65 2336.31 1736.2C2336.31 1733.74 2338.25 1731.84 2340.67 1731.84C2343.09 1731.84 2345.04 1733.74 2345.04 1736.2C2345.04 1738.65 2343.09 1740.57 2340.67 1740.57ZM2340.67 1738.95C2342.19 1738.95 2343.38 1737.81 2343.38 1736.2C2343.38 1734.58 2342.19 1733.44 2340.67 1733.44C2339.15 1733.44 2337.96 1734.58 2337.96 1736.2C2337.96 1737.81 2339.15 1738.95 2340.67 1738.95ZM2349.28 1740.57C2347.44 1740.57 2346.07 1739.47 2346.07 1737.66V1732H2347.72V1737.52C2347.72 1738.34 2348.15 1738.95 2349.28 1738.95C2350.4 1738.95 2350.84 1738.34 2350.84 1737.52V1732H2352.49V1737.66C2352.49 1739.47 2351.12 1740.57 2349.28 1740.57ZM2358.59 1740.4L2356.9 1737.49H2355.64V1740.4H2353.98V1732H2357.34C2358.89 1732 2360.14 1733.25 2360.14 1734.79C2360.14 1735.84 2359.48 1736.79 2358.52 1737.24L2360.38 1740.4H2358.59ZM2355.64 1733.55V1736.04H2357.34C2357.97 1736.04 2358.48 1735.48 2358.48 1734.79C2358.48 1734.09 2357.97 1733.55 2357.34 1733.55H2355.64ZM2364.69 1732C2367.01 1732 2368.73 1733.84 2368.73 1736.2C2368.73 1738.57 2367.01 1740.4 2364.69 1740.4H2361.35V1732H2364.69ZM2364.69 1738.82C2366.14 1738.82 2367.15 1737.75 2367.15 1736.2C2367.15 1734.66 2366.14 1733.59 2364.69 1733.59H2363.01V1738.82H2364.69ZM2375 1740.4L2374.5 1738.89H2371.15L2370.65 1740.4H2368.86L2371.8 1732H2373.85L2376.8 1740.4H2375ZM2371.68 1737.34H2373.98L2372.83 1733.91L2371.68 1737.34ZM2382.48 1732H2384.14V1740.4H2382.88L2379.28 1735.27V1740.4H2377.62V1732H2378.88L2382.48 1737.13V1732Z" fill="black"/>
<path d="M1740.08 1164.22L1738.39 1161.3H1737.13V1164.22H1735.48V1155.82H1738.84C1740.38 1155.82 1741.63 1157.06 1741.63 1158.6C1741.63 1159.66 1740.97 1160.6 1740.01 1161.05L1741.87 1164.22H1740.08ZM1737.13 1157.36V1159.85H1738.84C1739.46 1159.85 1739.98 1159.3 1739.98 1158.6C1739.98 1157.9 1739.46 1157.36 1738.84 1157.36H1737.13ZM1748.25 1164.22L1747.74 1162.7H1744.39L1743.89 1164.22H1742.1L1745.04 1155.82H1747.09L1750.05 1164.22H1748.25ZM1744.92 1161.16H1747.23L1746.07 1157.72L1744.92 1161.16ZM1759.08 1155.82V1164.22H1757.44V1158.77L1755.07 1162.67H1754.88L1752.52 1158.78V1164.22H1750.86V1155.82H1752.57L1754.98 1159.79L1757.38 1155.82H1759.08ZM1765.72 1159.86C1766.4 1160.24 1766.83 1160.9 1766.83 1161.78C1766.83 1163.22 1765.66 1164.22 1764.21 1164.22H1760.65V1155.82H1763.96C1765.38 1155.82 1766.52 1156.78 1766.52 1158.18C1766.52 1158.9 1766.22 1159.46 1765.72 1159.86ZM1763.96 1157.36H1762.3V1159.21H1763.96C1764.48 1159.21 1764.86 1158.82 1764.86 1158.29C1764.86 1157.76 1764.49 1157.36 1763.96 1157.36ZM1764.21 1162.67C1764.78 1162.67 1765.18 1162.25 1765.18 1161.67C1765.18 1161.11 1764.78 1160.69 1764.21 1160.69H1762.3V1162.67H1764.21ZM1771.88 1164.38C1769.46 1164.38 1767.53 1162.46 1767.53 1160.02C1767.53 1157.56 1769.46 1155.65 1771.88 1155.65C1774.31 1155.65 1776.25 1157.56 1776.25 1160.02C1776.25 1162.46 1774.31 1164.38 1771.88 1164.38ZM1771.88 1162.76C1773.41 1162.76 1774.6 1161.62 1774.6 1160.02C1774.6 1158.4 1773.41 1157.26 1771.88 1157.26C1770.36 1157.26 1769.17 1158.4 1769.17 1160.02C1769.17 1161.62 1770.36 1162.76 1771.88 1162.76ZM1780.49 1164.38C1778.65 1164.38 1777.29 1163.28 1777.29 1161.47V1155.82H1778.93V1161.34C1778.93 1162.15 1779.36 1162.76 1780.49 1162.76C1781.62 1162.76 1782.05 1162.15 1782.05 1161.34V1155.82H1783.71V1161.47C1783.71 1163.28 1782.34 1164.38 1780.49 1164.38ZM1785.2 1155.82H1786.85V1164.22H1785.2V1155.82ZM1790.06 1162.63H1793.27V1164.22H1788.41V1155.82H1790.06V1162.63ZM1795.87 1162.63H1799.07V1164.22H1794.21V1155.82H1795.87V1162.63ZM1801.67 1162.63H1805.21V1164.22H1800.01V1155.82H1805.15V1157.4H1801.67V1159.19H1804.85V1160.75H1801.67V1162.63ZM1811.93 1155.82V1157.4H1809.66V1164.22H1808.01V1157.4H1805.75V1155.82H1811.93Z" fill="black"/>
<path d="M1784.88 1854.6L1784.37 1853.09H1781.02L1780.52 1854.6H1778.73L1781.67 1846.2H1783.72L1786.68 1854.6H1784.88ZM1781.55 1851.54H1783.86L1782.7 1848.11L1781.55 1851.54ZM1792.57 1850.24C1793.24 1850.63 1793.67 1851.29 1793.67 1852.16C1793.67 1853.6 1792.51 1854.6 1791.05 1854.6H1787.49V1846.2H1790.8C1792.22 1846.2 1793.36 1847.16 1793.36 1848.56C1793.36 1849.28 1793.06 1849.85 1792.57 1850.24ZM1790.8 1847.75H1789.15V1849.6H1790.8C1791.32 1849.6 1791.7 1849.2 1791.7 1848.67C1791.7 1848.14 1791.33 1847.75 1790.8 1847.75ZM1791.05 1853.05C1791.62 1853.05 1792.03 1852.63 1792.03 1852.06C1792.03 1851.49 1791.62 1851.07 1791.05 1851.07H1789.15V1853.05H1791.05ZM1796.41 1853.02H1799.62V1854.6H1794.76V1846.2H1796.41V1853.02ZM1800.56 1846.2H1802.21V1854.6H1800.56V1846.2ZM1806.51 1854.77C1804.79 1854.77 1803.66 1853.94 1803.21 1852.69L1804.62 1851.86C1804.92 1852.64 1805.51 1853.15 1806.56 1853.15C1807.55 1853.15 1807.9 1852.73 1807.9 1852.26C1807.9 1851.64 1807.34 1851.4 1806.09 1851.04C1804.8 1850.66 1803.56 1850.12 1803.56 1848.53C1803.56 1846.94 1804.88 1846.03 1806.32 1846.03C1807.7 1846.03 1808.75 1846.74 1809.32 1847.92L1807.92 1848.72C1807.62 1848.08 1807.17 1847.64 1806.32 1847.64C1805.62 1847.64 1805.21 1848 1805.21 1848.48C1805.21 1849 1805.54 1849.27 1806.81 1849.66C1808.14 1850.08 1809.56 1850.52 1809.56 1852.24C1809.56 1853.81 1808.3 1854.77 1806.51 1854.77Z" fill="black"/>
<path d="M1588.55 1752.91H1590.21V1761.31H1588.95L1585.35 1756.17V1761.31H1583.69V1752.91H1584.95L1588.55 1758.03V1752.91ZM1597.17 1761.31L1596.66 1759.79H1593.32L1592.81 1761.31H1591.02L1593.96 1752.91H1596.02L1598.97 1761.31H1597.17ZM1593.84 1758.25H1596.15L1595 1754.81L1593.84 1758.25ZM1604.64 1752.91H1606.3V1761.31H1605.04L1601.44 1756.17V1761.31H1599.78V1752.91H1601.04L1604.64 1758.03V1752.91ZM1613.41 1752.91V1754.49H1611.15V1761.31H1609.49V1754.49H1607.23V1752.91H1613.41ZM1615.99 1759.72H1619.53V1761.31H1614.34V1752.91H1619.47V1754.49H1615.99V1756.28H1619.17V1757.84H1615.99V1759.72ZM1623.57 1761.47C1621.85 1761.47 1620.73 1760.65 1620.27 1759.4L1621.69 1758.57C1621.99 1759.35 1622.57 1759.85 1623.62 1759.85C1624.61 1759.85 1624.96 1759.43 1624.96 1758.97C1624.96 1758.34 1624.4 1758.1 1623.15 1757.74C1621.87 1757.37 1620.62 1756.83 1620.62 1755.23C1620.62 1753.65 1621.94 1752.74 1623.38 1752.74C1624.76 1752.74 1625.81 1753.45 1626.38 1754.62L1624.99 1755.43C1624.69 1754.79 1624.23 1754.35 1623.38 1754.35C1622.68 1754.35 1622.27 1754.71 1622.27 1755.19C1622.27 1755.7 1622.6 1755.98 1623.87 1756.36C1625.2 1756.78 1626.62 1757.23 1626.62 1758.94C1626.62 1760.51 1625.36 1761.47 1623.57 1761.47ZM1628 1762.51H1627.31L1632.11 1751.71H1632.8L1628 1762.51Z" fill="black"/>
<path d="M1601.88 1816.84L1600.18 1813.93H1598.92V1816.84H1597.27V1808.44H1600.63C1602.18 1808.44 1603.42 1809.69 1603.42 1811.23C1603.42 1812.28 1602.76 1813.23 1601.8 1813.67L1603.66 1816.84H1601.88ZM1598.92 1809.99V1812.47H1600.63C1601.25 1812.47 1601.77 1811.92 1601.77 1811.23C1601.77 1810.53 1601.25 1809.99 1600.63 1809.99H1598.92ZM1606.3 1815.26H1609.84V1816.84H1604.64V1808.44H1609.78V1810.03H1606.3V1811.81H1609.48V1813.37H1606.3V1815.26ZM1615.86 1808.44H1617.52V1816.84H1616.26L1612.66 1811.71V1816.84H1611V1808.44H1612.26L1615.86 1813.57V1808.44ZM1623.94 1808.44H1625.59V1816.84H1624.33L1620.73 1811.71V1816.84H1619.08V1808.44H1620.34L1623.94 1813.57V1808.44ZM1628.81 1815.26H1632.35V1816.84H1627.15V1808.44H1632.29V1810.03H1628.81V1811.81H1631.99V1813.37H1628.81V1815.26ZM1636.38 1817.01C1634.67 1817.01 1633.54 1816.18 1633.08 1814.93L1634.5 1814.11C1634.8 1814.89 1635.39 1815.39 1636.43 1815.39C1637.43 1815.39 1637.77 1814.97 1637.77 1814.5C1637.77 1813.88 1637.21 1813.64 1635.96 1813.28C1634.68 1812.91 1633.43 1812.37 1633.43 1810.77C1633.43 1809.19 1634.75 1808.27 1636.19 1808.27C1637.57 1808.27 1638.63 1808.98 1639.19 1810.16L1637.8 1810.96C1637.5 1810.33 1637.04 1809.88 1636.19 1809.88C1635.49 1809.88 1635.09 1810.24 1635.09 1810.72C1635.09 1811.24 1635.41 1811.51 1636.68 1811.9C1638.01 1812.32 1639.43 1812.76 1639.43 1814.48C1639.43 1816.05 1638.17 1817.01 1636.38 1817.01Z" fill="black"/>
<path d="M1736.19 2757.49C1736.87 2757.87 1737.3 2758.53 1737.3 2759.41C1737.3 2760.85 1736.13 2761.84 1734.68 2761.84H1731.12V2753.44H1734.43C1735.85 2753.44 1736.99 2754.4 1736.99 2755.81C1736.99 2756.53 1736.69 2757.09 1736.19 2757.49ZM1734.43 2754.99H1732.77V2756.84H1734.43C1734.95 2756.84 1735.33 2756.44 1735.33 2755.91C1735.33 2755.39 1734.96 2754.99 1734.43 2754.99ZM1734.68 2760.29C1735.25 2760.29 1735.65 2759.87 1735.65 2759.3C1735.65 2758.73 1735.25 2758.31 1734.68 2758.31H1732.77V2760.29H1734.68ZM1742.36 2762.01C1739.93 2762.01 1738 2760.09 1738 2757.64C1738 2755.18 1739.93 2753.27 1742.36 2753.27C1744.78 2753.27 1746.72 2755.18 1746.72 2757.64C1746.72 2760.09 1744.78 2762.01 1742.36 2762.01ZM1742.36 2760.39C1743.88 2760.39 1745.07 2759.25 1745.07 2757.64C1745.07 2756.02 1743.88 2754.88 1742.36 2754.88C1740.83 2754.88 1739.64 2756.02 1739.64 2757.64C1739.64 2759.25 1740.83 2760.39 1742.36 2760.39ZM1752.5 2761.84L1750.8 2758.93H1749.54V2761.84H1747.89V2753.44H1751.25C1752.8 2753.44 1754.04 2754.69 1754.04 2756.23C1754.04 2757.28 1753.38 2758.23 1752.42 2758.67L1754.28 2761.84H1752.5ZM1749.54 2754.99V2757.47H1751.25C1751.87 2757.47 1752.39 2756.92 1752.39 2756.23C1752.39 2755.53 1751.87 2754.99 1751.25 2754.99H1749.54ZM1758.59 2753.44C1760.91 2753.44 1762.64 2755.28 1762.64 2757.64C1762.64 2760.01 1760.91 2761.84 1758.59 2761.84H1755.26V2753.44H1758.59ZM1758.59 2760.26C1760.05 2760.26 1761.05 2759.19 1761.05 2757.64C1761.05 2756.09 1760.05 2755.03 1758.59 2755.03H1756.91V2760.26H1758.59ZM1765.47 2760.26H1769.01V2761.84H1763.81V2753.44H1768.95V2755.03H1765.47V2756.81H1768.65V2758.37H1765.47V2760.26ZM1775.71 2761.84L1775.2 2760.33H1771.85L1771.35 2761.84H1769.56L1772.5 2753.44H1774.55L1777.51 2761.84H1775.71ZM1772.38 2758.78H1774.69L1773.53 2755.35L1772.38 2758.78ZM1781.22 2762.01C1779.38 2762.01 1778.01 2760.91 1778.01 2759.09V2753.44H1779.66V2758.96C1779.66 2759.78 1780.09 2760.39 1781.22 2760.39C1782.35 2760.39 1782.78 2759.78 1782.78 2758.96V2753.44H1784.43V2759.09C1784.43 2760.91 1783.07 2762.01 1781.22 2762.01ZM1792.19 2761.84H1790.31L1788.68 2759.11L1787.05 2761.84H1785.17L1787.74 2757.53L1785.31 2753.44H1787.18L1788.68 2755.96L1790.18 2753.44H1792.05L1789.61 2757.52L1792.19 2761.84ZM1793.42 2763.04H1792.74L1797.54 2752.24H1798.22L1793.42 2763.04Z" fill="black"/>
<path d="M1754.26 2808.98V2810.56H1751.99V2817.38H1750.33V2810.56H1748.08V2808.98H1754.26ZM1758.67 2817.55C1756.25 2817.55 1754.32 2815.63 1754.32 2813.18C1754.32 2810.72 1756.25 2808.81 1758.67 2808.81C1761.1 2808.81 1763.04 2810.72 1763.04 2813.18C1763.04 2815.63 1761.1 2817.55 1758.67 2817.55ZM1758.67 2815.93C1760.2 2815.93 1761.39 2814.79 1761.39 2813.18C1761.39 2811.56 1760.2 2810.42 1758.67 2810.42C1757.15 2810.42 1755.96 2811.56 1755.96 2813.18C1755.96 2814.79 1757.15 2815.93 1758.67 2815.93ZM1767.28 2817.55C1765.44 2817.55 1764.08 2816.44 1764.08 2814.63V2808.98H1765.72V2814.5C1765.72 2815.31 1766.15 2815.93 1767.28 2815.93C1768.41 2815.93 1768.84 2815.31 1768.84 2814.5V2808.98H1770.5V2814.63C1770.5 2816.44 1769.13 2817.55 1767.28 2817.55ZM1773.64 2815.79H1776.85V2817.38H1771.99V2808.98H1773.64V2815.79ZM1781.24 2817.55C1778.82 2817.55 1776.89 2815.63 1776.89 2813.18C1776.89 2810.72 1778.82 2808.81 1781.24 2808.81C1783.67 2808.81 1785.61 2810.72 1785.61 2813.18C1785.61 2815.63 1783.67 2817.55 1781.24 2817.55ZM1781.24 2815.93C1782.77 2815.93 1783.96 2814.79 1783.96 2813.18C1783.96 2811.56 1782.77 2810.42 1781.24 2810.42C1779.72 2810.42 1778.53 2811.56 1778.53 2813.18C1778.53 2814.79 1779.72 2815.93 1781.24 2815.93ZM1789.85 2817.55C1788.01 2817.55 1786.65 2816.44 1786.65 2814.63V2808.98H1788.29V2814.5C1788.29 2815.31 1788.72 2815.93 1789.85 2815.93C1790.98 2815.93 1791.41 2815.31 1791.41 2814.5V2808.98H1793.07V2814.63C1793.07 2816.44 1791.7 2817.55 1789.85 2817.55ZM1797.43 2817.55C1795.71 2817.55 1794.58 2816.72 1794.13 2815.47L1795.54 2814.64C1795.84 2815.42 1796.43 2815.93 1797.47 2815.93C1798.47 2815.93 1798.82 2815.51 1798.82 2815.04C1798.82 2814.41 1798.25 2814.17 1797.01 2813.81C1795.72 2813.44 1794.47 2812.9 1794.47 2811.31C1794.47 2809.72 1795.79 2808.81 1797.23 2808.81C1798.61 2808.81 1799.67 2809.52 1800.23 2810.69L1798.84 2811.5C1798.54 2810.86 1798.09 2810.42 1797.23 2810.42C1796.54 2810.42 1796.13 2810.78 1796.13 2811.26C1796.13 2811.77 1796.45 2812.05 1797.73 2812.43C1799.06 2812.85 1800.47 2813.3 1800.47 2815.01C1800.47 2816.59 1799.21 2817.55 1797.43 2817.55ZM1803.15 2815.79H1806.69V2817.38H1801.49V2808.98H1806.63V2810.56H1803.15V2812.35H1806.33V2813.91H1803.15V2815.79Z" fill="black"/>
<path d="M4187.86 2616.1H4191.06V2617.68H4186.2V2609.28H4187.86V2616.1ZM4197.56 2609.28L4194.68 2614.4V2617.68H4193.03V2614.4L4190.17 2609.28H4192.04L4193.86 2612.78L4195.69 2609.28H4197.56ZM4201.73 2617.85C4199.3 2617.85 4197.37 2615.93 4197.37 2613.48C4197.37 2611.02 4199.3 2609.11 4201.73 2609.11C4204.15 2609.11 4206.09 2611.02 4206.09 2613.48C4206.09 2615.93 4204.15 2617.85 4201.73 2617.85ZM4201.73 2616.23C4203.25 2616.23 4204.44 2615.09 4204.44 2613.48C4204.44 2611.86 4203.25 2610.72 4201.73 2610.72C4200.2 2610.72 4199.01 2611.86 4199.01 2613.48C4199.01 2615.09 4200.2 2616.23 4201.73 2616.23ZM4212.12 2609.28H4213.77V2617.68H4212.51L4208.91 2612.54V2617.68H4207.26V2609.28H4208.52L4212.12 2614.4V2609.28Z" fill="black"/>
<path d="M4603.53 1443.64V1445.22H4601.26V1452.04H4599.6V1445.22H4597.35V1443.64H4603.53ZM4609.06 1452.04L4607.37 1449.12H4606.11V1452.04H4604.45V1443.64H4607.81C4609.36 1443.64 4610.61 1444.89 4610.61 1446.42C4610.61 1447.48 4609.95 1448.43 4608.99 1448.87L4610.85 1452.04H4609.06ZM4606.11 1445.19V1447.67H4607.81C4608.44 1447.67 4608.95 1447.12 4608.95 1446.42C4608.95 1445.73 4608.44 1445.19 4607.81 1445.19H4606.11ZM4615.7 1452.21C4613.28 1452.21 4611.35 1450.29 4611.35 1447.84C4611.35 1445.38 4613.28 1443.47 4615.7 1443.47C4618.13 1443.47 4620.07 1445.38 4620.07 1447.84C4620.07 1450.29 4618.13 1452.21 4615.7 1452.21ZM4615.7 1450.59C4617.23 1450.59 4618.41 1449.45 4618.41 1447.84C4618.41 1446.22 4617.23 1445.08 4615.7 1445.08C4614.18 1445.08 4612.99 1446.22 4612.99 1447.84C4612.99 1449.45 4614.18 1450.59 4615.7 1450.59ZM4627.27 1443.64L4624.39 1448.76V1452.04H4622.75V1448.76L4619.88 1443.64H4621.75L4623.58 1447.14L4625.4 1443.64H4627.27ZM4629.73 1450.46H4633.27V1452.04H4628.08V1443.64H4633.21V1445.22H4629.73V1447.01H4632.91V1448.57H4629.73V1450.46ZM4637.31 1452.21C4635.59 1452.21 4634.46 1451.38 4634.01 1450.13L4635.42 1449.3C4635.72 1450.08 4636.31 1450.59 4637.36 1450.59C4638.35 1450.59 4638.7 1450.17 4638.7 1449.7C4638.7 1449.08 4638.14 1448.84 4636.89 1448.48C4635.6 1448.1 4634.36 1447.56 4634.36 1445.97C4634.36 1444.38 4635.68 1443.47 4637.12 1443.47C4638.5 1443.47 4639.55 1444.18 4640.12 1445.36L4638.72 1446.16C4638.42 1445.52 4637.97 1445.08 4637.12 1445.08C4636.42 1445.08 4636.01 1445.44 4636.01 1445.92C4636.01 1446.44 4636.34 1446.71 4637.61 1447.1C4638.94 1447.52 4640.36 1447.96 4640.36 1449.68C4640.36 1451.25 4639.1 1452.21 4637.31 1452.21Z" fill="black"/>
<path d="M4432.66 1009.96V1018.36H4431.01V1012.91L4428.65 1016.81H4428.46L4426.09 1012.92V1018.36H4424.44V1009.96H4426.14L4428.55 1013.93L4430.95 1009.96H4432.66ZM4439.62 1018.36L4439.12 1016.85H4435.77L4435.27 1018.36H4433.48L4436.42 1009.96H4438.47L4441.42 1018.36H4439.62ZM4436.3 1015.3H4438.6L4437.45 1011.87L4436.3 1015.3ZM4446.85 1018.36L4445.15 1015.44H4443.89V1018.36H4442.24V1009.96H4445.6C4447.15 1009.96 4448.39 1011.21 4448.39 1012.74C4448.39 1013.8 4447.73 1014.75 4446.77 1015.19L4448.63 1018.36H4446.85ZM4443.89 1011.51V1013.99H4445.6C4446.22 1013.99 4446.74 1013.44 4446.74 1012.74C4446.74 1012.05 4446.22 1011.51 4445.6 1011.51H4443.89ZM4454.47 1009.96H4456.13V1018.36H4454.87L4451.27 1013.22V1018.36H4449.61V1009.96H4450.87L4454.47 1015.08V1009.96ZM4459.34 1016.77H4462.88V1018.36H4457.68V1009.96H4462.82V1011.54H4459.34V1013.33H4462.52V1014.89H4459.34V1016.77ZM4467.05 1015.48V1013.99H4471.55V1015.48H4467.05ZM4474.76 1016.77H4477.97V1018.36H4473.11V1009.96H4474.76V1016.77ZM4484.54 1018.36L4484.04 1016.85H4480.69L4480.19 1018.36H4478.4L4481.34 1009.96H4483.39L4486.34 1018.36H4484.54ZM4481.22 1015.3H4483.52L4482.37 1011.87L4481.22 1015.3Z" fill="black"/>
<path d="M4409.28 1073.89L4406.46 1065.49H4408.26L4410.31 1071.95L4412.35 1065.49H4414.16L4411.33 1073.89H4409.28ZM4419.89 1073.89L4419.39 1072.38H4416.04L4415.53 1073.89H4413.75L4416.69 1065.49H4418.74L4421.69 1073.89H4419.89ZM4416.57 1070.83H4418.87L4417.72 1067.4L4416.57 1070.83ZM4424.16 1072.31H4427.37V1073.89H4422.51V1065.49H4424.16V1072.31ZM4429.96 1072.31H4433.17V1073.89H4428.31V1065.49H4429.96V1072.31ZM4438.54 1063.09L4437.2 1064.74H4435.72L4436.68 1063.09H4438.54ZM4435.76 1072.31H4439.3V1073.89H4434.11V1065.49H4439.24V1067.08H4435.76V1068.87H4438.94V1070.43H4435.76V1072.31ZM4442.13 1072.31H4445.67V1073.89H4440.47V1065.49H4445.61V1067.08H4442.13V1068.87H4445.31V1070.43H4442.13V1072.31ZM4458.05 1065.49V1073.89H4456.41V1068.45L4454.05 1072.35H4453.85L4451.49 1068.46V1073.89H4449.83V1065.49H4451.54L4453.95 1069.47L4456.35 1065.49H4458.05ZM4461.28 1072.31H4464.82V1073.89H4459.62V1065.49H4464.76V1067.08H4461.28V1068.87H4464.46V1070.43H4461.28V1072.31ZM4471.54 1065.49V1067.08H4469.27V1073.89H4467.62V1067.08H4465.36V1065.49H4471.54ZM4474.23 1072.31H4477.79V1073.89H4472.12V1072.57L4475.61 1067.08H4472.2V1065.49H4477.72V1066.8L4474.23 1072.31Z" fill="black"/>
<path d="M3010.31 3131.9C3007.89 3131.9 3005.96 3129.98 3005.96 3127.53C3005.96 3125.07 3007.89 3123.17 3010.31 3123.17C3012.74 3123.17 3014.68 3125.07 3014.68 3127.53C3014.68 3129.98 3012.74 3131.9 3010.31 3131.9ZM3010.31 3130.28C3011.84 3130.28 3013.03 3129.14 3013.03 3127.53C3013.03 3125.91 3011.84 3124.77 3010.31 3124.77C3008.79 3124.77 3007.6 3125.91 3007.6 3127.53C3007.6 3129.14 3008.79 3130.28 3010.31 3130.28ZM3020.45 3131.73L3018.76 3128.82H3017.5V3131.73H3015.85V3123.33H3019.21C3020.75 3123.33 3022 3124.58 3022 3126.12C3022 3127.17 3021.34 3128.12 3020.38 3128.57L3022.24 3131.73H3020.45ZM3017.5 3124.88V3127.37H3019.21C3019.83 3127.37 3020.35 3126.81 3020.35 3126.12C3020.35 3125.42 3019.83 3124.88 3019.21 3124.88H3017.5ZM3024.87 3130.15H3028.08V3131.73H3023.22V3123.33H3024.87V3130.15ZM3030.67 3130.15H3034.21V3131.73H3029.02V3123.33H3034.15V3124.92H3030.67V3126.71H3033.85V3128.27H3030.67V3130.15ZM3040.91 3131.73L3040.41 3130.22H3037.06L3036.55 3131.73H3034.77L3037.71 3123.33H3039.76L3042.71 3131.73H3040.91ZM3037.59 3128.67H3039.89L3038.74 3125.24L3037.59 3128.67ZM3048.39 3123.33H3050.04V3131.73H3048.78L3045.18 3126.6V3131.73H3043.53V3123.33H3044.79L3048.39 3128.46V3123.33ZM3054.34 3131.9C3052.62 3131.9 3051.5 3131.07 3051.04 3129.83L3052.46 3129C3052.76 3129.78 3053.34 3130.28 3054.39 3130.28C3055.38 3130.28 3055.73 3129.86 3055.73 3129.39C3055.73 3128.77 3055.17 3128.53 3053.92 3128.17C3052.64 3127.8 3051.39 3127.26 3051.39 3125.66C3051.39 3124.08 3052.71 3123.17 3054.15 3123.17C3055.53 3123.17 3056.58 3123.87 3057.15 3125.05L3055.76 3125.85C3055.46 3125.22 3055 3124.77 3054.15 3124.77C3053.45 3124.77 3053.04 3125.13 3053.04 3125.61C3053.04 3126.13 3053.37 3126.41 3054.64 3126.79C3055.97 3127.21 3057.39 3127.65 3057.39 3129.37C3057.39 3130.94 3056.13 3131.9 3054.34 3131.9Z" fill="black"/>
<path d="M1976.59 1049.48L1974.9 1046.57H1973.64V1049.48H1971.98V1041.08H1975.34C1976.89 1041.08 1978.14 1042.33 1978.14 1043.87C1978.14 1044.92 1977.48 1045.87 1976.52 1046.31L1978.38 1049.48H1976.59ZM1973.64 1042.63V1045.11H1975.34C1975.96 1045.11 1976.48 1044.56 1976.48 1043.87C1976.48 1043.17 1975.96 1042.63 1975.34 1042.63H1973.64ZM1984.75 1049.48L1984.25 1047.97H1980.9L1980.39 1049.48H1978.61L1981.55 1041.08H1983.6L1986.55 1049.48H1984.75ZM1981.43 1046.42H1983.73L1982.58 1042.99L1981.43 1046.42ZM1995.59 1041.08V1049.48H1993.94V1044.03L1991.58 1047.93H1991.39L1989.02 1044.05V1049.48H1987.37V1041.08H1989.07L1991.48 1045.05L1993.88 1041.08H1995.59ZM2002.23 1045.13C2002.9 1045.51 2003.33 1046.17 2003.33 1047.05C2003.33 1048.49 2002.17 1049.48 2000.72 1049.48H1997.15V1041.08H2000.46C2001.88 1041.08 2003.02 1042.04 2003.02 1043.45C2003.02 1044.17 2002.72 1044.73 2002.23 1045.13ZM2000.46 1042.63H1998.81V1044.48H2000.46C2000.98 1044.48 2001.36 1044.08 2001.36 1043.55C2001.36 1043.03 2000.99 1042.63 2000.46 1042.63ZM2000.72 1047.93C2001.28 1047.93 2001.69 1047.51 2001.69 1046.94C2001.69 1046.37 2001.28 1045.95 2000.72 1045.95H1998.81V1047.93H2000.72ZM2008.39 1049.65C2005.96 1049.65 2004.03 1047.73 2004.03 1045.28C2004.03 1042.82 2005.96 1040.91 2008.39 1040.91C2010.81 1040.91 2012.76 1042.82 2012.76 1045.28C2012.76 1047.73 2010.81 1049.65 2008.39 1049.65ZM2008.39 1048.03C2009.91 1048.03 2011.1 1046.89 2011.1 1045.28C2011.1 1043.66 2009.91 1042.52 2008.39 1042.52C2006.86 1042.52 2005.68 1043.66 2005.68 1045.28C2005.68 1046.89 2006.86 1048.03 2008.39 1048.03ZM2016.99 1049.65C2015.16 1049.65 2013.79 1048.55 2013.79 1046.73V1041.08H2015.43V1046.6C2015.43 1047.42 2015.87 1048.03 2016.99 1048.03C2018.12 1048.03 2018.55 1047.42 2018.55 1046.6V1041.08H2020.21V1046.73C2020.21 1048.55 2018.84 1049.65 2016.99 1049.65ZM2021.7 1041.08H2023.36V1049.48H2021.7V1041.08ZM2026.57 1047.9H2029.77V1049.48H2024.91V1041.08H2026.57V1047.9ZM2032.37 1047.9H2035.57V1049.48H2030.71V1041.08H2032.37V1047.9ZM2038.17 1047.9H2041.71V1049.48H2036.51V1041.08H2041.65V1042.67H2038.17V1044.45H2041.35V1046.01H2038.17V1047.9ZM2048.43 1041.08V1042.67H2046.17V1049.48H2044.51V1042.67H2042.25V1041.08H2048.43Z" fill="black"/>
<path d="M2938.66 465.968L2935.84 457.568H2937.64L2939.69 464.024L2941.73 457.568H2943.54L2940.71 465.968H2938.66ZM2946.01 464.384H2949.55V465.968H2944.35V457.568H2949.49V459.152H2946.01V460.94H2949.19V462.5H2946.01V464.384ZM2955.32 465.968L2953.63 463.052H2952.37V465.968H2950.72V457.568H2954.08C2955.62 457.568 2956.87 458.816 2956.87 460.352C2956.87 461.408 2956.21 462.356 2955.25 462.8L2957.11 465.968H2955.32ZM2952.37 459.116V461.6H2954.08C2954.7 461.6 2955.22 461.048 2955.22 460.352C2955.22 459.656 2954.7 459.116 2954.08 459.116H2952.37ZM2960.83 466.136C2959.11 466.136 2957.98 465.308 2957.53 464.06L2958.94 463.232C2959.24 464.012 2959.83 464.516 2960.87 464.516C2961.87 464.516 2962.22 464.096 2962.22 463.628C2962.22 463.004 2961.65 462.764 2960.41 462.404C2959.12 462.032 2957.87 461.492 2957.87 459.896C2957.87 458.312 2959.19 457.4 2960.63 457.4C2962.01 457.4 2963.07 458.108 2963.63 459.284L2962.24 460.088C2961.94 459.452 2961.49 459.008 2960.63 459.008C2959.94 459.008 2959.53 459.368 2959.53 459.848C2959.53 460.364 2959.85 460.64 2961.13 461.024C2962.46 461.444 2963.87 461.888 2963.87 463.604C2963.87 465.176 2962.61 466.136 2960.83 466.136ZM2970.22 465.968L2969.72 464.456H2966.37L2965.87 465.968H2964.08L2967.02 457.568H2969.07L2972.02 465.968H2970.22ZM2966.9 462.908H2969.2L2968.05 459.476L2966.9 462.908ZM2972.84 457.568H2974.5V465.968H2972.84V457.568ZM2977.71 464.384H2980.91V465.968H2976.05V457.568H2977.71V464.384ZM2983.51 464.384H2986.71V465.968H2981.85V457.568H2983.51V464.384ZM2989.31 464.384H2992.85V465.968H2987.65V457.568H2992.79V459.152H2989.31V460.94H2992.49V462.5H2989.31V464.384ZM2996.88 466.136C2995.17 466.136 2994.04 465.308 2993.58 464.06L2995 463.232C2995.3 464.012 2995.89 464.516 2996.93 464.516C2997.93 464.516 2998.28 464.096 2998.28 463.628C2998.28 463.004 2997.71 462.764 2996.46 462.404C2995.18 462.032 2993.93 461.492 2993.93 459.896C2993.93 458.312 2995.25 457.4 2996.69 457.4C2998.07 457.4 2999.13 458.108 2999.69 459.284L2998.3 460.088C2998 459.452 2997.54 459.008 2996.69 459.008C2996 459.008 2995.59 459.368 2995.59 459.848C2995.59 460.364 2995.91 460.64 2997.18 461.024C2998.52 461.444 2999.93 461.888 2999.93 463.604C2999.93 465.176 2998.67 466.136 2996.88 466.136Z" fill="black"/>
<path d="M3677.2 2453.03H3609.53V2520.72H3677.2V2453.03Z" fill="black"/>
<path d="M3664.05 2464.6H3619.55V2509.11H3664.05V2464.6Z" fill="white" stroke="#94B1AF" stroke-miterlimit="10"/>
<path d="M3755.22 2375.94H3534.52V2440.42H3755.22V2375.94Z" fill="white" stroke="#94B1AF" stroke-miterlimit="10"/>
<path d="M3577.34 2383.01V2391.41H3575.7V2385.96L3573.34 2389.86H3573.14L3570.78 2385.97V2391.41H3569.12V2383.01H3570.83L3573.24 2386.98L3575.64 2383.01H3577.34ZM3584.31 2391.41L3583.8 2389.9H3580.46L3579.95 2391.41H3578.16L3581.1 2383.01H3583.16L3586.11 2391.41H3584.31ZM3580.98 2388.35H3583.29L3582.14 2384.92L3580.98 2388.35ZM3586.92 2383.01H3588.58V2391.41H3586.92V2383.01ZM3592.87 2391.58C3591.16 2391.58 3590.03 2390.75 3589.57 2389.5L3590.99 2388.67C3591.29 2389.45 3591.88 2389.96 3592.92 2389.96C3593.92 2389.96 3594.27 2389.54 3594.27 2389.07C3594.27 2388.44 3593.7 2388.2 3592.45 2387.84C3591.17 2387.47 3589.92 2386.93 3589.92 2385.34C3589.92 2383.75 3591.24 2382.84 3592.68 2382.84C3594.06 2382.84 3595.12 2383.55 3595.68 2384.72L3594.29 2385.53C3593.99 2384.89 3593.53 2384.45 3592.68 2384.45C3591.99 2384.45 3591.58 2384.81 3591.58 2385.29C3591.58 2385.8 3591.9 2386.08 3593.17 2386.46C3594.51 2386.88 3595.92 2387.33 3595.92 2389.04C3595.92 2390.62 3594.66 2391.58 3592.87 2391.58ZM3599.61 2391.58C3597.9 2391.58 3596.77 2390.75 3596.31 2389.5L3597.73 2388.67C3598.03 2389.45 3598.62 2389.96 3599.66 2389.96C3600.66 2389.96 3601 2389.54 3601 2389.07C3601 2388.44 3600.44 2388.2 3599.19 2387.84C3597.91 2387.47 3596.66 2386.93 3596.66 2385.34C3596.66 2383.75 3597.98 2382.84 3599.42 2382.84C3600.8 2382.84 3601.86 2383.55 3602.42 2384.72L3601.03 2385.53C3600.73 2384.89 3600.27 2384.45 3599.42 2384.45C3598.72 2384.45 3598.32 2384.81 3598.32 2385.29C3598.32 2385.8 3598.64 2386.08 3599.91 2386.46C3601.24 2386.88 3602.66 2387.33 3602.66 2389.04C3602.66 2390.62 3601.4 2391.58 3599.61 2391.58ZM3605.34 2389.82H3608.88V2391.41H3603.68V2383.01H3608.82V2384.59H3605.34V2386.38H3608.52V2387.94H3605.34V2389.82Z" fill="black"/>
<path d="M4042.43 2218.78H3821.74V2338.06H4042.43V2218.78Z" fill="white" stroke="#94B1AF" stroke-miterlimit="10"/>
<path d="M3839.49 2227.7V2236.1H3837.85V2230.65L3835.48 2234.55H3835.29L3832.93 2230.66V2236.1H3831.27V2227.7H3832.97L3835.39 2231.67L3837.79 2227.7H3839.49ZM3841.06 2227.7H3842.71V2236.1H3841.06V2227.7ZM3845.92 2234.52H3849.13V2236.1H3844.27V2227.7H3845.92V2234.52ZM3851.72 2234.52H3854.93V2236.1H3850.07V2227.7H3851.72V2234.52ZM3861.43 2227.7L3858.55 2232.82V2236.1H3856.9V2232.82L3854.03 2227.7H3855.91L3857.73 2231.2L3859.55 2227.7H3861.43ZM3861.62 2233.22V2231.73H3866.12V2233.22H3861.62ZM3872.34 2234.52H3875.54V2236.1H3870.68V2227.7H3872.34V2234.52ZM3882.12 2236.1L3881.61 2234.59H3878.26L3877.76 2236.1H3875.97L3878.91 2227.7H3880.96L3883.92 2236.1H3882.12ZM3878.79 2233.04H3881.1L3879.94 2229.61L3878.79 2233.04Z" fill="black"/>
<path d="M3870.03 2284.82H3866.67V2286.81H3869.93V2288.4H3866.67V2291.64H3865.01V2283.24H3870.03V2284.82ZM3875.21 2291.8C3872.78 2291.8 3870.85 2289.88 3870.85 2287.44C3870.85 2284.98 3872.78 2283.07 3875.21 2283.07C3877.63 2283.07 3879.58 2284.98 3879.58 2287.44C3879.58 2289.88 3877.63 2291.8 3875.21 2291.8ZM3875.21 2290.18C3876.73 2290.18 3877.92 2289.04 3877.92 2287.44C3877.92 2285.82 3876.73 2284.68 3875.21 2284.68C3873.68 2284.68 3872.5 2285.82 3872.5 2287.44C3872.5 2289.04 3873.68 2290.18 3875.21 2290.18ZM3885.35 2291.64L3883.65 2288.72H3882.39V2291.64H3880.74V2283.24H3884.1C3885.65 2283.24 3886.89 2284.48 3886.89 2286.02C3886.89 2287.08 3886.23 2288.02 3885.27 2288.47L3887.13 2291.64H3885.35ZM3882.39 2284.78V2287.27H3884.1C3884.72 2287.27 3885.24 2286.72 3885.24 2286.02C3885.24 2285.32 3884.72 2284.78 3884.1 2284.78H3882.39ZM3889.77 2290.05H3893.31V2291.64H3888.11V2283.24H3893.25V2284.82H3889.77V2286.61H3892.95V2288.17H3889.77V2290.05ZM3900.03 2283.24V2284.82H3897.76V2291.64H3896.11V2284.82H3893.85V2283.24H3900.03Z" fill="black"/>
<path d="M3979.61 2349.98H3911.94V2417.67H3979.61V2349.98Z" fill="black"/>
<path d="M3966.46 2361.55H3921.96V2406.06H3966.46V2361.55Z" fill="white" stroke="#94B1AF" stroke-miterlimit="10"/>
<path d="M3660.89 1820.23H3440.2V1939.52H3660.89V1820.23Z" fill="white" stroke="#94B1AF" stroke-miterlimit="10"/>
<path d="M3458.72 1835.93H3461.92V1837.51H3457.06V1829.11H3458.72V1835.93ZM3468.5 1837.51L3467.99 1836H3464.64L3464.14 1837.51H3462.35L3465.29 1829.11H3467.34L3470.3 1837.51H3468.5ZM3465.17 1834.45H3467.48L3466.32 1831.02L3465.17 1834.45ZM3479.13 1830.7H3475.77V1832.69H3479.03V1834.27H3475.77V1837.51H3474.11V1829.11H3479.13V1830.7ZM3481.99 1835.93H3485.53V1837.51H3480.33V1829.11H3485.47V1830.7H3481.99V1832.49H3485.17V1834.05H3481.99V1835.93ZM3491.31 1837.51L3489.61 1834.6H3488.35V1837.51H3486.7V1829.11H3490.06C3491.61 1829.11 3492.85 1830.36 3492.85 1831.9C3492.85 1832.95 3492.19 1833.9 3491.23 1834.35L3493.09 1837.51H3491.31ZM3488.35 1830.66V1833.15H3490.06C3490.68 1833.15 3491.2 1832.59 3491.2 1831.9C3491.2 1831.2 3490.68 1830.66 3490.06 1830.66H3488.35ZM3499.45 1829.11V1830.7H3497.18V1837.51H3495.53V1830.7H3493.27V1829.11H3499.45ZM3504.8 1826.71L3503.47 1828.36H3501.98L3502.94 1826.71H3504.8ZM3502.03 1835.93H3505.57V1837.51H3500.37V1829.11H3505.51V1830.7H3502.03V1832.49H3505.21V1834.05H3502.03V1835.93Z" fill="black"/>
<path d="M3496.24 1893.05L3495.74 1891.54H3492.39L3491.89 1893.05H3490.1L3493.04 1884.65H3495.09L3498.04 1893.05H3496.24ZM3492.92 1889.99H3495.22L3494.07 1886.56L3492.92 1889.99ZM3500.51 1891.47H3503.72V1893.05H3498.86V1884.65H3500.51V1891.47ZM3510.29 1893.05L3509.79 1891.54H3506.44L3505.94 1893.05H3504.15L3507.09 1884.65H3509.14L3512.09 1893.05H3510.29ZM3506.97 1889.99H3509.27L3508.12 1886.56L3506.97 1889.99ZM3512.91 1884.65H3514.56V1893.05H3512.91V1884.65ZM3518.86 1893.22C3517.14 1893.22 3516.01 1892.39 3515.56 1891.14L3516.97 1890.31C3517.27 1891.09 3517.86 1891.6 3518.91 1891.6C3519.9 1891.6 3520.25 1891.18 3520.25 1890.71C3520.25 1890.09 3519.69 1889.85 3518.44 1889.49C3517.15 1889.11 3515.91 1888.57 3515.91 1886.98C3515.91 1885.39 3517.23 1884.48 3518.67 1884.48C3520.05 1884.48 3521.1 1885.19 3521.67 1886.37L3520.27 1887.17C3519.97 1886.53 3519.52 1886.09 3518.67 1886.09C3517.97 1886.09 3517.56 1886.45 3517.56 1886.93C3517.56 1887.45 3517.89 1887.72 3519.16 1888.11C3520.49 1888.53 3521.91 1888.97 3521.91 1890.69C3521.91 1892.26 3520.65 1893.22 3518.86 1893.22Z" fill="black"/>
<path d="M3598.08 1951.43H3530.4V2019.12H3598.08V1951.43Z" fill="black"/>
<path d="M3584.93 1962.97H3540.42V2007.47H3584.93V1962.97Z" fill="white" stroke="#94B1AF" stroke-miterlimit="10"/>
</svg>
